<svg 
 xmlns="http://www.w3.org/2000/svg"
 xmlns:xlink="http://www.w3.org/1999/xlink"
 width="382px" height="382px">
<path fill-rule="evenodd"  fill="#f05b30"
 d="M352.813,366.316 C357.700,364.886 358.966,374.193 359.187,382.000 L230.084,382.000 C235.171,381.665 239.277,380.043 238.934,373.662 C238.595,367.333 235.652,363.487 228.714,363.896 C221.537,364.319 214.323,364.440 207.211,365.354 C205.890,365.524 203.713,369.133 204.077,370.636 C205.524,376.599 208.469,380.504 212.810,382.000 L53.163,382.000 C53.002,380.735 52.777,379.557 52.068,379.044 C40.015,370.316 39.962,369.729 53.112,362.165 C57.455,359.667 58.763,356.961 55.812,352.202 C50.893,344.270 46.744,335.865 41.939,327.857 C39.419,323.656 37.022,323.834 32.842,327.396 C24.217,334.743 23.340,344.806 21.582,354.507 C21.166,356.809 24.575,359.830 26.286,362.480 C28.639,366.122 34.321,370.044 28.652,374.056 C24.124,377.260 18.713,376.852 13.408,372.061 C-4.706,355.702 2.781,338.395 10.834,321.258 C14.294,313.898 15.665,308.602 9.909,301.066 C2.601,291.498 -3.711,279.717 2.926,267.378 C6.207,261.277 12.694,256.477 18.596,252.308 C25.116,247.702 28.427,242.941 27.889,234.432 C27.411,226.869 30.626,219.112 30.427,211.487 C29.906,191.586 37.831,174.076 44.464,156.109 C45.957,152.065 46.931,147.776 47.659,143.518 C49.263,134.150 50.914,125.715 58.956,118.347 C65.361,112.478 68.048,102.551 72.331,94.396 C81.760,76.442 90.987,58.381 100.643,40.551 C104.406,33.604 111.018,32.905 117.430,36.167 C136.880,46.065 156.141,56.338 175.406,66.594 C183.950,71.142 191.836,67.282 193.317,57.773 C193.558,56.218 195.409,54.964 195.879,53.382 C196.579,51.032 197.755,48.063 196.919,46.141 C190.969,32.473 198.003,13.653 211.759,7.299 C214.100,6.217 216.700,5.211 218.458,3.451 C222.502,-0.601 225.550,-1.350 228.553,4.493 C229.194,5.740 231.473,6.404 233.128,6.835 C245.015,9.933 249.860,18.505 254.103,29.413 C257.691,38.641 253.984,44.478 250.907,52.026 C247.895,59.412 247.166,67.834 246.262,75.894 C246.027,77.995 248.869,80.440 250.297,82.727 C252.084,81.359 253.919,80.048 255.646,78.608 C257.824,76.792 259.615,74.209 262.089,73.104 C277.396,66.263 292.759,59.524 308.352,53.373 C310.496,52.527 315.279,54.271 316.665,56.298 C322.433,64.729 327.215,73.825 332.664,82.484 C336.127,87.986 339.617,93.620 343.999,98.363 C352.171,107.208 357.070,116.867 356.757,129.265 C356.618,134.759 357.793,140.651 359.858,145.766 C365.121,158.801 372.234,171.164 376.653,184.443 C379.999,194.498 381.590,205.533 381.736,216.162 C382.000,235.436 380.405,254.497 372.594,272.857 C369.560,279.989 370.813,289.039 370.578,297.229 C370.252,308.538 365.621,316.698 356.755,324.256 C350.591,329.509 347.663,338.584 343.538,346.088 C343.213,346.679 344.570,348.747 345.608,349.429 C350.166,352.424 352.747,355.327 346.377,359.117 C345.1000,359.341 345.594,360.327 345.693,360.416 C348.062,362.551 351.143,366.805 352.813,366.316 ZM73.251,314.732 C74.704,318.071 76.124,321.428 77.469,324.812 C78.155,326.539 78.647,328.342 79.228,330.111 C81.735,329.072 84.811,328.591 86.562,326.811 C87.890,325.462 87.529,322.458 87.918,320.190 C88.403,319.530 88.889,318.870 89.374,318.209 C85.400,314.963 81.645,311.379 77.355,308.622 C75.402,307.367 72.395,307.747 69.865,307.385 C70.997,309.832 72.175,312.260 73.251,314.732 ZM146.474,88.354 C139.124,81.306 131.028,75.034 123.645,68.017 C117.467,62.146 115.349,65.921 112.383,71.234 C109.596,76.228 105.724,80.639 102.147,85.164 C100.409,87.363 97.695,88.927 96.379,91.305 C87.504,107.362 78.447,123.344 70.324,139.781 C63.856,152.866 58.015,166.341 53.037,180.055 C48.739,191.898 46.046,204.322 43.189,214.538 C43.915,221.567 44.537,226.447 44.894,231.345 C45.296,236.858 47.962,238.203 53.263,237.231 C57.148,236.518 61.557,236.303 65.267,237.414 C77.336,241.028 84.955,236.630 87.717,224.454 C88.732,219.981 91.490,215.908 93.401,211.630 C95.307,207.360 97.953,203.223 98.860,198.743 C101.094,187.700 106.758,179.111 115.197,171.913 C117.046,170.335 119.022,167.632 119.064,165.411 C119.574,138.633 132.423,116.799 146.421,95.301 C147.531,93.597 147.665,89.497 146.474,88.354 ZM274.922,378.054 C279.838,377.300 283.739,376.966 287.478,376.007 C289.127,375.584 290.449,373.894 291.919,372.780 C290.065,371.323 287.992,368.448 286.396,368.691 C282.451,369.293 278.640,371.143 274.948,372.860 C273.257,373.645 271.971,375.299 270.502,376.558 C272.253,377.150 274.003,377.743 274.922,378.054 ZM261.387,336.937 C270.571,340.959 280.211,343.943 289.182,347.102 C292.129,345.963 293.1000,345.240 295.871,344.517 C294.673,343.316 293.679,341.720 292.243,340.979 C283.341,336.382 274.404,331.837 265.309,327.641 C263.744,326.920 261.367,327.952 259.365,328.174 C259.991,331.205 259.745,336.218 261.387,336.937 ZM206.384,357.731 C206.426,359.223 207.766,361.686 208.947,361.987 C225.531,366.216 239.194,355.116 238.541,338.567 C237.313,333.873 236.602,328.949 234.652,324.575 C233.567,322.143 230.678,319.504 228.147,318.919 C221.556,317.395 206.521,331.072 206.529,337.795 C206.537,344.441 206.195,351.092 206.384,357.731 ZM181.971,288.272 C180.112,288.527 178.456,290.251 176.707,291.301 C178.324,293.713 179.925,298.135 181.560,298.147 C185.892,298.179 191.693,297.672 194.289,294.918 C200.562,288.261 205.199,287.354 211.199,294.826 C212.080,295.922 216.739,295.288 218.608,293.976 C220.902,292.368 222.102,289.206 223.775,286.716 C221.137,286.099 218.431,284.777 215.876,285.022 C211.309,285.459 206.833,286.840 202.319,287.826 C202.172,287.342 202.024,286.857 201.877,286.373 C195.236,286.966 188.569,287.368 181.971,288.272 ZM237.917,159.239 C237.449,158.268 234.405,157.306 233.724,157.844 C216.417,171.517 196.785,182.929 187.169,204.259 C186.483,205.781 186.293,207.526 185.871,209.167 C187.561,209.216 189.496,209.832 190.899,209.224 C201.521,204.623 212.852,200.998 222.357,194.670 C231.750,188.416 239.013,179.205 239.631,166.376 C239.151,164.130 238.990,161.466 237.917,159.239 ZM355.688,274.283 C361.753,259.188 367.439,243.930 362.938,227.105 C358.585,210.840 354.476,194.511 350.260,178.209 C351.162,177.976 352.065,177.743 352.968,177.511 C352.245,173.611 352.200,169.417 350.653,165.875 C347.804,159.347 343.995,153.241 340.721,146.890 C331.300,128.617 322.487,110.006 312.385,92.119 C305.250,79.488 293.487,79.325 284.414,90.169 C280.446,94.911 275.621,98.930 271.447,103.515 C267.554,107.791 263.810,112.235 260.368,116.876 C257.193,121.158 254.381,125.725 251.633,130.299 C248.036,136.286 244.880,141.973 248.152,149.738 C253.707,162.922 253.626,176.752 245.010,188.441 C239.313,196.170 231.550,202.888 223.500,208.242 C215.506,213.558 205.943,216.495 197.195,220.735 C195.606,221.506 194.624,223.525 193.362,224.967 C194.650,225.471 196.052,226.596 197.210,226.386 C215.317,223.100 227.113,233.342 239.490,244.286 C252.478,255.770 255.630,270.326 258.136,286.129 C259.483,294.625 261.243,304.066 271.463,307.974 C280.659,311.489 291.074,313.781 298.416,319.729 C310.978,329.905 321.591,330.046 332.776,319.150 C335.591,316.407 338.341,313.237 340.000,309.735 C345.532,298.058 350.874,286.269 355.688,274.283 Z"/>
</svg>