<svg 
 xmlns="http://www.w3.org/2000/svg"
 xmlns:xlink="http://www.w3.org/1999/xlink"
 width="570px" height="516px">
<path fill-rule="evenodd"  fill="#f05b30"
 d="M568.540,445.490 C566.660,444.349 564.273,443.615 562.976,442.006 C549.181,424.893 535.548,407.650 521.903,390.416 C519.582,387.485 518.188,383.276 512.797,386.146 C511.954,386.595 509.035,383.712 507.417,382.041 C503.902,378.416 500.503,374.665 497.271,370.788 C495.821,369.049 494.904,366.871 493.717,364.910 C489.139,357.351 484.481,349.840 480.024,342.212 C479.169,340.748 479.117,338.829 478.628,337.138 C477.565,333.464 477.429,329.014 475.196,326.277 C467.218,316.500 465.159,304.622 461.201,293.245 C458.121,284.388 451.786,276.656 446.883,268.433 C445.591,266.266 443.222,264.185 443.103,261.971 C442.553,251.766 434.102,250.285 427.334,246.830 C425.585,245.937 423.965,244.797 422.246,243.843 C411.132,237.678 412.497,226.279 412.354,216.673 C412.191,205.607 406.509,197.670 401.268,189.261 C399.898,187.063 396.980,182.788 393.790,189.509 C391.617,194.088 387.054,198.639 382.434,200.740 C371.109,205.890 365.015,214.642 361.227,225.760 C360.819,226.958 360.175,228.311 359.220,229.051 C350.274,235.976 354.302,241.458 361.040,246.720 C361.638,247.187 362.703,248.083 362.601,248.270 C357.747,257.281 366.894,264.469 365.802,272.895 C364.421,283.552 368.307,287.988 379.116,289.135 C382.042,289.446 391.304,287.306 384.665,296.204 C384.172,296.864 384.402,298.061 384.296,299.008 C393.372,298.786 387.181,309.116 392.814,311.275 C391.570,314.121 390.844,317.386 388.956,319.713 C386.335,322.945 380.895,324.847 386.380,330.166 C386.960,330.729 385.519,333.815 384.532,335.438 C382.799,338.285 380.707,340.917 378.737,343.618 C373.755,350.449 372.768,355.389 382.610,359.578 C385.993,361.018 388.651,368.421 388.479,372.981 C388.160,381.408 385.540,389.467 391.118,397.530 C392.986,400.228 392.039,405.069 391.885,408.911 C391.551,417.269 391.524,425.312 399.700,430.700 C400.896,431.488 401.913,433.1000 401.595,435.392 C399.048,446.552 407.673,451.041 413.929,457.181 C417.336,460.525 421.377,464.354 422.518,468.655 C425.990,481.749 434.600,494.263 428.568,508.810 C428.370,509.287 428.262,509.801 428.073,510.282 C427.326,512.190 426.571,514.095 425.818,516.000 L334.715,516.000 C331.291,508.800 326.929,501.807 329.459,492.887 C330.432,489.455 329.147,485.444 329.695,481.819 C330.330,477.623 330.508,471.856 333.215,469.739 C344.101,461.231 341.904,447.356 347.998,437.047 C348.521,436.161 347.401,434.174 346.816,432.795 C344.458,427.233 340.887,421.912 339.837,416.128 C337.869,405.290 337.605,394.308 329.650,385.245 C327.068,382.303 325.501,376.947 326.084,373.088 C327.292,365.101 322.628,361.542 317.700,357.110 C313.438,353.278 309.522,348.703 306.682,343.754 C303.764,338.667 302.639,332.587 300.115,327.229 C298.972,324.802 296.346,323.070 294.394,321.022 C293.127,322.839 291.856,324.654 290.594,326.474 C289.566,327.954 288.834,329.800 287.482,330.870 C276.678,339.428 265.993,348.171 254.767,356.151 C249.504,359.892 248.032,362.351 252.087,368.325 C254.406,371.740 255.617,379.059 253.564,381.632 C248.904,387.474 251.218,390.237 254.839,394.788 C257.393,397.996 260.106,403.684 258.900,406.765 C255.521,415.401 249.451,422.965 245.802,431.529 C243.371,437.235 240.410,447.977 242.597,449.515 C255.393,458.515 251.244,471.385 252.708,482.971 C253.797,491.595 254.403,500.302 255.970,508.835 C256.411,511.230 256.930,513.619 257.489,516.000 L176.507,516.000 C175.563,514.680 174.610,513.368 173.674,512.043 C169.024,505.464 164.147,499.747 155.770,497.031 C147.128,494.228 146.010,488.909 150.437,480.811 C150.734,480.269 150.590,479.138 150.198,478.624 C145.074,471.886 145.754,467.500 153.035,462.039 C158.604,457.861 164.933,454.461 169.754,449.568 C179.669,439.503 189.262,429.037 198.062,418.001 C202.523,412.407 205.089,405.269 208.158,398.665 C208.494,397.943 206.768,395.461 205.517,394.932 C190.203,388.468 188.174,374.079 187.031,360.785 C185.967,348.400 188.238,335.655 189.786,323.160 C190.354,318.578 192.878,314.177 194.850,309.848 C196.372,306.503 198.344,303.349 200.274,300.206 C201.391,298.387 202.648,296.586 204.149,295.083 C206.751,292.478 210.518,290.592 212.113,287.530 C214.454,283.034 212.659,275.138 222.102,278.044 C222.674,278.220 224.115,276.059 224.942,274.843 C226.767,272.160 228.451,269.380 230.210,266.652 C230.482,266.231 231.217,265.685 231.128,265.513 C226.462,256.523 236.619,248.912 233.472,240.195 C232.824,238.396 230.665,237.187 229.753,235.423 C228.508,233.017 226.264,229.594 227.096,227.899 C232.360,217.166 220.920,216.865 217.498,211.674 C216.598,212.475 215.131,213.131 214.884,214.098 C212.295,224.221 207.064,231.994 198.511,238.616 C194.784,241.501 194.350,249.175 193.285,254.837 C188.422,280.699 185.109,292.796 153.703,302.332 C150.802,303.214 148.238,306.287 146.250,308.898 C131.235,328.614 139.312,352.603 134.184,374.094 C131.059,387.195 125.246,399.679 120.308,412.311 C119.433,414.549 117.234,416.729 115.081,417.888 C112.767,419.134 109.787,419.144 107.097,419.694 C107.031,417.549 106.419,415.248 106.988,413.287 C111.051,399.287 116.214,385.542 119.296,371.343 C121.557,360.928 121.318,349.949 121.709,339.204 C121.737,338.454 117.455,336.473 115.683,336.947 C111.483,338.068 106.525,339.334 103.755,342.294 C92.796,354.001 79.890,363.890 76.320,381.638 C74.206,392.147 66.453,401.522 61.279,411.430 C60.347,413.212 58.825,415.161 58.960,416.928 C59.276,421.075 59.089,423.541 53.789,424.062 C51.932,424.244 50.513,428.640 48.849,431.081 C47.905,432.464 46.867,433.784 45.873,435.133 C44.829,434.028 43.325,433.103 42.812,431.791 C37.769,418.910 32.384,406.125 28.191,392.966 C26.240,386.841 25.438,381.020 18.138,378.834 C15.869,378.155 13.374,376.207 12.226,374.149 C5.837,362.685 -0.179,351.259 1.056,337.182 C2.199,324.155 3.006,310.698 12.144,301.007 C22.283,290.253 33.803,280.383 46.138,272.270 C52.796,267.891 57.004,263.109 60.488,256.453 C66.488,244.988 73.124,235.190 88.711,233.787 C93.415,233.363 106.735,232.636 105.252,219.662 C104.936,216.888 107.248,213.865 108.131,210.893 C109.367,206.738 111.420,206.040 114.821,208.813 C120.070,213.092 122.833,211.089 124.869,205.244 C126.718,199.935 129.591,194.988 131.811,189.796 C134.302,183.967 137.301,183.691 141.428,188.329 C142.702,189.761 144.688,190.561 146.349,191.649 C146.867,189.768 147.622,187.916 147.863,185.999 C148.875,177.972 151.920,169.431 142.828,163.655 C145.806,156.515 132.568,149.653 142.487,141.956 C143.481,141.185 141.198,135.903 140.104,132.831 C138.560,128.496 137.221,124.678 144.183,124.242 C145.324,124.171 147.048,122.025 147.257,120.650 C147.837,116.833 147.300,112.823 148.058,109.061 C149.036,104.208 151.108,100.481 157.115,104.646 C158.173,105.380 161.252,104.757 162.258,103.691 C164.158,101.677 165.197,98.867 166.653,96.422 C168.995,92.491 172.091,91.381 175.390,95.028 C178.397,98.354 179.767,97.550 182.461,94.381 C184.067,92.494 188.307,91.391 190.854,92.012 C199.071,94.016 211.783,82.941 210.776,74.043 C210.400,70.712 209.456,67.282 209.928,64.066 C210.338,61.284 212.404,56.451 213.709,56.460 C223.386,56.528 221.007,48.606 222.480,43.771 C225.924,32.460 232.960,23.997 241.527,16.236 C246.324,11.890 249.857,6.169 254.566,1.706 C256.038,0.311 259.724,0.221 262.002,0.884 C268.985,2.918 275.783,5.591 282.642,8.044 C296.459,12.985 305.811,22.590 310.338,36.303 C312.769,43.662 317.731,42.777 323.214,42.402 C326.174,42.199 329.194,42.712 332.129,42.384 C334.905,42.073 337.584,40.642 340.344,40.510 C343.452,40.362 346.654,40.879 349.721,41.542 C352.937,42.238 356.970,45.914 356.550,38.345 C356.488,37.221 360.040,34.760 361.767,34.893 C366.639,35.267 371.401,37.169 376.267,37.464 C378.806,37.618 381.447,35.583 384.091,34.676 C386.054,34.002 388.454,32.605 390.023,33.200 C393.329,34.454 396.136,36.955 399.301,38.662 C402.171,40.209 407.125,43.241 407.936,42.426 C415.272,35.050 416.047,42.913 418.595,46.538 C421.855,51.174 422.577,59.026 431.674,56.327 C432.231,56.162 434.704,60.605 435.421,63.147 C437.310,69.840 434.033,78.073 442.570,82.931 C444.060,83.779 442.461,90.151 442.176,93.963 C441.365,104.821 438.496,115.998 440.192,126.443 C442.010,137.640 447.894,148.234 452.415,158.918 C454.624,164.137 458.247,167.412 464.464,169.351 C468.671,170.663 471.429,177.013 474.519,181.333 C476.600,184.242 477.905,187.698 479.944,190.640 C487.974,202.224 496.984,213.229 503.963,225.399 C507.916,232.291 508.453,241.085 510.853,248.923 C513.175,256.506 515.566,264.101 518.543,271.441 C524.182,285.343 529.356,299.117 525.018,314.562 C521.447,327.271 524.503,339.448 529.119,351.356 C529.305,351.836 529.296,352.522 529.634,352.796 C544.216,364.617 544.662,383.979 554.051,398.828 C561.765,411.029 564.286,426.516 568.937,440.603 C569.409,442.033 568.700,443.852 568.540,445.490 ZM25.596,321.736 C25.328,319.737 24.046,317.874 23.218,315.949 C21.482,317.343 19.543,318.556 18.082,320.194 C17.109,321.283 16.237,323.009 16.312,324.397 C17.019,337.579 17.820,350.760 18.964,363.910 C19.093,365.381 21.517,366.653 22.876,368.017 C23.657,366.135 25.072,364.267 25.112,362.369 C25.333,351.903 25.218,341.431 25.218,330.960 C25.379,330.960 25.541,330.960 25.703,330.959 C25.703,327.880 26.003,324.761 25.596,321.736 Z"/>
</svg>