<svg 
 xmlns="http://www.w3.org/2000/svg"
 xmlns:xlink="http://www.w3.org/1999/xlink"
 width="485px" height="449px">
<path fill-rule="evenodd"  fill="#f05b30"
 d="M172.655,448.1000 C172.662,447.935 172.743,446.934 173.275,446.333 C182.037,436.438 177.898,424.643 178.154,413.583 C178.198,411.714 175.799,409.037 173.850,407.996 C160.754,401.004 152.921,392.056 156.732,375.619 C158.049,369.933 154.870,363.208 153.732,356.960 C153.593,356.197 153.066,355.366 153.242,354.704 C158.505,334.933 151.594,316.456 148.405,297.354 C146.970,288.767 152.468,278.702 155.947,269.743 C158.130,264.121 163.632,259.255 152.010,258.620 C148.891,258.449 146.087,254.838 142.836,253.594 C141.627,253.132 138.781,254.486 138.036,255.786 C136.659,258.186 136.424,261.208 135.465,263.883 C130.302,278.286 119.145,282.763 106.903,273.490 C98.792,267.346 92.947,258.213 86.141,250.373 C84.989,249.045 84.263,247.334 83.059,246.067 C81.589,244.521 79.822,243.258 78.184,241.873 C81.732,241.157 86.341,238.713 88.603,240.094 C92.987,242.770 96.102,247.553 99.627,251.564 C100.631,252.707 101.102,254.304 102.046,255.516 C106.002,260.592 110.181,268.008 117.192,264.558 C120.970,262.699 122.193,254.936 123.767,249.601 C124.914,245.714 124.799,241.445 125.155,237.339 C125.479,233.605 132.910,225.404 120.325,229.526 C119.723,229.723 118.840,229.167 118.118,228.884 C112.416,226.643 105.936,213.608 106.957,207.451 C108.733,196.747 106.140,185.365 112.648,175.195 C113.307,174.166 107.096,168.387 103.693,165.217 C95.649,157.724 87.243,150.617 79.236,143.086 C71.913,136.197 65.868,127.391 57.494,122.354 C50.425,118.103 40.898,117.509 32.318,116.281 C23.636,115.038 14.770,115.124 6.010,114.341 C4.169,114.176 2.439,112.763 0.659,111.925 C2.303,110.494 3.760,108.161 5.622,107.776 C19.001,105.011 32.421,102.375 45.922,100.318 C49.686,99.745 52.115,99.767 54.038,95.483 C56.014,91.079 59.536,86.306 63.668,84.147 C72.202,79.689 78.272,72.250 87.571,68.072 C96.070,64.253 104.494,64.155 112.735,62.134 C118.809,60.645 125.867,62.938 132.453,63.800 C140.636,64.869 148.776,66.253 156.954,67.365 C158.329,67.552 159.798,67.048 161.223,66.863 C160.670,65.479 160.311,63.975 159.535,62.729 C150.144,47.649 135.804,38.715 120.505,30.604 C107.180,23.540 94.544,22.803 81.621,30.982 C80.582,31.640 78.920,31.316 77.547,31.449 C77.868,29.769 77.718,27.783 78.583,26.455 C90.077,8.803 121.778,-3.255 142.863,1.449 C167.586,6.965 186.375,21.189 202.176,40.232 C204.347,42.848 207.731,44.457 210.531,46.560 C211.303,47.140 212.363,47.685 212.671,48.485 C216.958,59.592 222.431,70.477 224.796,81.992 C225.976,87.735 221.416,94.648 219.467,101.036 C218.965,102.680 218.520,104.341 218.048,105.994 C227.308,108.322 227.885,123.977 240.749,120.722 C242.008,120.403 243.405,119.948 244.319,119.105 C245.692,117.837 246.693,116.169 247.853,114.672 C249.884,117.080 252.645,119.181 253.818,121.951 C258.267,132.456 258.277,145.286 272.009,150.349 C279.247,153.017 287.109,154.701 289.991,165.107 C291.998,172.357 299.680,178.124 305.151,184.265 C306.196,185.439 309.013,186.080 310.580,185.589 C324.454,181.246 333.078,189.787 341.846,197.959 C343.338,199.349 344.009,201.873 345.663,202.782 C349.831,205.072 354.342,206.739 358.716,208.656 C357.996,204.525 357.237,200.401 356.561,196.263 C353.724,178.904 341.903,165.993 334.162,151.058 C328.680,140.481 329.503,126.940 335.651,120.225 C342.077,113.207 342.706,104.939 347.630,98.331 C348.612,97.014 351.428,96.946 353.449,96.561 C354.346,96.390 355.961,97.331 356.244,96.974 C364.065,87.074 375.321,93.146 384.342,92.478 C394.737,91.707 405.983,96.830 416.257,100.907 C462.016,119.064 490.909,170.510 483.021,218.958 C482.736,220.710 481.278,222.271 480.366,223.921 C478.999,221.932 477.036,220.127 476.356,217.927 C464.808,180.584 437.708,160.587 401.436,150.785 C399.218,150.185 396.809,150.093 394.494,150.128 C393.041,150.150 391.598,150.851 390.150,151.247 C390.832,152.682 391.399,154.187 392.215,155.542 C401.624,171.167 411.611,186.475 420.345,202.466 C427.947,216.385 429.009,232.385 428.772,247.661 C428.623,257.229 423.563,266.942 419.657,276.148 C417.385,281.502 412.602,284.341 405.802,283.873 C388.962,282.715 371.972,283.148 355.244,281.206 C346.828,280.228 338.574,276.042 330.757,272.257 C323.345,268.668 316.664,263.598 309.481,259.491 C308.559,258.964 306.426,260.083 305.077,260.836 C293.373,267.362 281.633,273.831 270.125,280.688 C267.675,282.148 264.943,284.869 264.400,287.442 C262.964,294.234 262.320,301.251 262.084,308.203 C261.999,310.696 263.297,314.025 265.134,315.670 C280.546,329.460 292.018,345.320 291.824,366.943 C291.697,381.209 283.129,393.588 266.589,383.716 C262.993,381.571 258.579,380.791 254.542,379.383 C256.726,382.983 258.291,387.219 261.217,390.055 C267.893,396.524 274.872,402.809 282.402,408.238 C291.249,414.618 292.169,418.811 284.546,426.786 C282.590,428.831 280.487,430.992 278.016,432.243 C270.396,436.097 267.614,441.554 269.858,448.1000 L172.655,448.1000 ZM212.522,112.103 C208.269,113.592 204.011,115.137 199.974,117.113 C199.239,117.473 199.495,119.848 199.294,121.292 C202.729,120.820 206.243,120.651 209.571,119.774 C211.975,119.141 214.130,117.565 216.929,116.138 C213.821,113.244 212.922,111.964 212.522,112.103 ZM225.578,370.507 C224.975,367.881 223.250,365.512 222.018,363.029 C218.547,365.036 214.143,366.301 211.813,369.215 C207.902,374.107 206.444,380.737 210.136,386.149 C212.924,390.237 217.913,392.832 221.922,396.092 C223.157,392.710 224.668,389.396 225.525,385.921 C226.065,383.732 225.626,381.302 225.626,378.980 C225.655,378.980 225.685,378.981 225.715,378.981 C225.715,376.146 226.195,373.201 225.578,370.507 Z"/>
</svg>