<svg 
 xmlns="http://www.w3.org/2000/svg"
 xmlns:xlink="http://www.w3.org/1999/xlink"
 width="587px" height="535px">
<path fill-rule="evenodd"  fill="#f05b30"
 d="M581.651,193.688 C582.921,192.734 584.759,192.530 586.335,191.979 C586.062,193.632 586.077,195.397 585.472,196.919 C580.824,208.610 569.659,213.458 560.515,220.446 C558.767,221.781 557.358,223.556 555.792,225.129 C557.996,224.964 560.354,225.247 562.374,224.552 C568.248,222.531 573.947,220.007 579.812,217.957 C580.933,217.565 582.498,218.432 583.858,218.718 C583.378,219.847 583.211,221.383 582.363,222.034 C578.677,224.858 575.035,227.893 570.938,230.004 C552.335,239.587 533.268,248.324 515.039,258.556 C507.731,262.658 502.923,271.327 495.534,275.111 C489.660,278.119 486.088,285.222 477.446,284.495 C473.291,284.145 468.726,289.277 464.268,291.786 C447.004,301.501 429.077,309.715 408.715,308.078 C401.792,307.522 395.100,303.703 388.407,301.108 C387.165,300.627 385.486,298.780 385.587,297.715 C386.783,285.222 375.683,282.110 368.977,275.684 C368.056,274.801 366.908,274.089 365.754,273.526 C362.528,271.956 359.243,270.505 355.981,269.007 C356.207,272.126 356.047,275.334 356.744,278.344 C358.053,283.997 356.032,285.909 350.730,284.116 C346.638,282.732 345.228,283.426 345.257,288.076 C345.289,293.121 346.566,299.984 337.068,298.133 C336.498,298.022 333.495,304.057 333.814,306.995 C334.457,312.902 332.824,313.668 327.566,312.169 C316.364,308.977 314.560,310.522 315.115,322.536 C315.367,327.986 316.148,333.421 316.915,338.831 C317.112,340.225 318.165,341.499 318.825,342.827 C319.880,341.905 321.291,341.179 321.929,340.027 C325.536,333.517 328.972,335.751 331.381,340.558 C338.627,355.019 342.146,370.458 341.714,386.633 C341.665,388.471 339.308,390.476 337.617,391.939 C336.852,392.599 335.098,392.120 333.792,392.157 C334.347,393.006 334.719,394.276 335.497,394.615 C336.962,395.252 338.883,396.013 340.226,395.564 C347.549,393.118 350.318,395.138 351.603,402.817 C352.381,407.465 354.373,412.016 356.454,416.305 C357.833,419.149 359.774,422.510 364.199,418.943 C364.666,418.567 369.602,422.251 371.005,424.839 C373.039,428.592 373.439,433.190 375.115,437.185 C376.386,440.216 377.386,444.310 382.820,441.881 C383.828,441.430 387.828,444.704 388.434,446.831 C390.434,453.841 393.200,458.467 400.425,462.681 C406.605,466.285 414.897,469.857 418.011,479.109 C420.040,485.139 426.516,489.778 431.301,494.753 C434.349,497.922 434.355,499.815 430.787,502.820 C422.072,510.160 422.626,511.182 430.329,519.108 C432.531,521.373 432.327,526.423 432.390,530.209 C432.422,532.114 432.470,533.689 432.579,534.1000 L102.454,534.1000 C102.412,531.454 103.920,528.738 108.723,526.428 C111.448,525.117 112.764,519.298 113.262,515.348 C113.999,509.528 109.610,509.074 105.011,508.978 C104.522,508.968 103.176,503.946 103.907,501.824 C105.166,498.166 108.163,495.315 102.831,492.108 C100.089,490.459 103.561,481.201 107.110,479.515 C110.730,477.795 117.576,477.359 108.609,472.096 C101.050,467.659 101.768,461.1000 108.908,457.065 C111.449,455.308 113.499,452.702 116.212,451.374 C119.140,449.942 123.321,447.945 125.655,449.016 C132.048,451.951 134.033,449.414 136.423,443.999 C138.922,438.334 138.251,435.432 132.042,433.877 C130.711,433.544 129.266,431.441 128.896,429.908 C127.552,424.343 141.743,411.334 147.347,412.136 C149.321,412.419 152.147,410.708 153.711,409.076 C156.658,405.999 159.130,402.420 161.449,398.825 C162.121,397.783 162.205,395.513 161.510,394.612 C159.775,392.364 155.343,389.943 155.716,388.721 C157.096,384.197 158.946,378.441 162.525,376.260 C169.034,372.293 173.972,362.877 184.614,368.157 C186.756,369.220 192.181,366.314 194.528,363.789 C199.223,358.740 202.973,352.781 206.849,347.021 C209.873,342.528 208.548,339.625 202.998,339.231 C195.923,338.729 193.950,335.338 198.273,329.784 C202.048,324.934 206.552,320.563 211.176,316.480 C215.981,312.238 221.148,308.346 226.480,304.784 C229.836,302.542 232.700,302.916 233.510,307.979 C233.856,310.137 235.225,312.554 236.880,313.988 C239.785,316.503 243.270,318.351 246.511,320.479 C248.364,316.753 250.361,313.088 251.963,309.258 C252.335,308.368 251.119,305.857 251.042,305.875 C241.841,307.969 242.461,296.919 236.346,294.893 C235.606,294.648 235.319,292.806 234.974,291.658 C233.677,287.345 234.336,281.985 227.603,280.849 C226.738,280.704 225.909,274.058 226.863,270.978 C228.246,266.510 229.838,264.217 222.946,263.962 C215.545,263.688 216.400,259.050 219.909,254.326 C220.638,253.345 220.956,252.059 221.463,250.913 C220.110,251.172 218.758,251.450 217.401,251.687 C211.668,252.688 205.919,254.576 200.202,254.490 C186.453,254.283 175.480,262.882 171.792,276.885 C167.988,291.332 164.547,306.057 158.675,319.686 C156.359,325.060 148.001,330.688 142.207,330.892 C136.875,331.079 131.202,324.259 125.922,320.211 C125.196,319.654 125.690,317.250 125.940,315.754 C126.279,313.725 127.486,311.706 127.344,309.753 C126.763,301.749 123.534,293.302 133.106,287.753 C134.236,287.098 134.743,282.465 133.779,281.576 C124.619,273.127 135.136,271.773 138.675,269.707 C144.392,266.369 148.344,269.535 149.645,275.901 C149.893,277.116 150.622,278.233 151.130,279.395 C151.556,278.277 151.960,277.148 152.415,276.041 C155.695,268.066 158.944,260.077 162.289,252.129 C164.730,246.330 160.719,239.019 166.598,234.052 C164.399,233.374 161.918,231.674 160.050,232.189 C149.920,234.981 140.116,239.911 129.863,241.033 C119.242,242.195 108.234,239.868 97.400,239.015 C95.608,238.874 93.845,238.331 92.055,238.230 C90.895,238.165 89.709,238.564 88.535,238.755 C88.996,239.876 89.167,241.293 89.964,242.072 C95.957,247.930 104.133,252.679 107.522,259.737 C110.409,265.750 107.834,274.374 107.676,281.843 C106.517,281.514 104.615,281.510 104.308,280.809 C96.980,264.111 89.286,259.088 73.774,261.128 C60.475,262.876 47.738,276.388 45.449,290.459 C44.373,297.066 42.333,303.527 40.526,309.997 C40.170,311.271 38.877,312.284 38.016,313.418 C37.376,312.114 36.113,310.771 36.194,309.513 C36.789,300.281 37.673,291.067 38.416,281.844 C38.571,279.922 38.514,277.984 38.555,276.053 C37.060,277.307 34.786,278.274 34.201,279.861 C30.809,289.062 27.850,298.422 24.651,307.696 C24.086,309.336 23.081,310.824 22.278,312.383 C21.090,310.865 19.662,309.471 18.789,307.790 C18.106,306.473 18.017,304.812 17.830,303.283 C17.584,301.269 17.501,299.235 17.348,297.209 C16.153,298.675 14.993,300.171 13.748,301.593 C13.107,302.326 12.313,302.929 11.588,303.591 C10.845,302.659 9.561,301.786 9.452,300.784 C8.947,296.187 8.761,291.554 8.483,286.933 C8.407,285.688 8.409,284.438 8.375,283.190 C7.328,283.769 6.177,284.948 5.256,284.791 C3.737,284.531 1.066,283.273 1.129,282.668 C1.915,275.071 0.664,266.841 9.873,262.289 C13.334,260.579 15.150,255.630 17.819,252.239 C32.614,233.441 56.881,228.580 74.690,214.042 C78.843,210.651 86.256,211.522 91.813,209.469 C96.803,207.627 101.206,204.263 106.053,201.957 C108.805,200.648 111.917,200.078 114.890,199.254 C116.065,198.929 117.754,199.253 118.441,198.543 C126.703,190.009 137.563,194.603 147.082,193.409 C152.433,192.739 158.315,197.080 164.098,198.655 C166.315,199.258 168.947,198.585 171.305,198.088 C171.565,198.033 171.760,194.338 171.120,194.010 C169.495,193.176 167.364,193.374 165.463,193.012 C163.187,192.579 160.526,192.591 158.755,191.368 C152.466,187.020 146.123,186.894 138.548,187.612 C128.009,188.611 119.036,184.014 113.582,173.817 C109.387,165.971 105.164,166.137 99.739,173.040 C98.931,174.068 95.819,173.293 93.773,173.353 C94.088,168.876 92.839,163.339 95.025,160.132 C100.519,152.069 114.724,150.880 122.396,156.995 C123.856,158.159 123.773,161.070 124.969,162.782 C127.054,165.769 129.580,168.450 131.921,171.260 C133.463,169.210 135.276,167.310 136.500,165.086 C143.050,153.182 149.508,141.228 155.845,129.210 C156.727,127.536 156.756,125.414 157.179,123.499 C155.189,123.506 153.025,122.999 151.235,123.600 C132.836,129.780 117.184,126.622 103.255,112.267 C93.076,101.776 90.237,95.186 94.774,84.953 C97.734,78.274 102.968,77.727 108.961,78.672 C110.361,78.892 111.603,80.108 112.918,80.865 C112.116,82.053 111.560,83.583 110.468,84.373 C105.160,88.216 106.103,91.786 110.357,95.779 C114.609,99.770 118.212,104.507 122.713,108.167 C135.572,118.625 154.264,106.864 161.061,96.326 C161.821,95.148 158.909,89.476 157.046,89.098 C144.275,86.505 140.854,76.675 137.751,66.256 C134.346,54.825 127.036,50.796 115.419,53.129 C112.557,53.703 109.362,52.626 106.320,52.307 C108.346,49.376 109.720,45.280 112.515,43.722 C122.758,38.012 139.908,43.281 145.670,53.414 C147.446,56.538 148.200,60.271 150.129,63.273 C153.336,68.262 157.060,76.778 160.666,76.829 C167.580,76.928 177.159,74.076 180.998,68.977 C189.992,57.027 214.453,52.713 226.379,56.869 C228.267,57.526 230.480,58.247 232.327,57.874 C247.532,54.808 260.931,59.302 273.680,67.078 C274.490,67.571 276.348,67.533 276.947,66.950 C278.311,65.625 279.195,63.808 280.274,62.191 C282.345,63.752 284.549,65.172 286.442,66.925 C287.670,68.063 288.447,69.687 289.427,71.093 C289.867,69.536 289.855,67.179 290.857,66.614 C292.269,65.819 295.465,65.576 296.116,66.437 C302.350,74.690 307.752,83.615 314.465,91.431 C316.352,93.628 324.519,94.203 325.074,93.117 C327.067,89.214 328.407,83.948 327.400,79.828 C326.303,75.338 322.012,71.718 319.649,67.425 C312.310,54.089 316.370,43.600 330.060,37.606 C333.647,36.035 336.387,32.145 339.033,28.925 C342.766,24.384 345.834,19.298 349.565,14.754 C361.583,0.116 378.499,-0.516 395.089,0.805 C412.347,2.180 427.430,9.098 437.489,24.422 C443.575,33.694 442.162,42.978 439.016,52.666 C436.014,61.912 438.048,64.363 447.565,64.564 C449.561,64.606 452.787,65.537 453.199,66.792 C453.740,68.443 452.680,71.793 451.225,72.719 C444.481,77.011 443.185,83.744 442.230,90.700 C442.164,91.182 444.470,92.644 444.774,92.422 C448.965,89.369 452.574,85.072 457.191,83.177 C461.653,81.344 467.854,80.200 471.932,81.935 C476.170,83.737 478.779,89.350 482.101,93.297 C480.347,93.764 478.017,95.188 476.934,94.540 C470.934,90.952 466.442,92.837 461.465,96.876 C456.693,100.749 451.421,104.628 445.708,106.588 C435.359,110.137 432.195,118.444 429.619,127.394 C429.402,128.150 432.398,130.646 434.162,130.987 C438.602,131.845 443.686,130.876 447.558,132.678 C450.432,134.015 453.013,138.390 453.456,141.713 C453.782,144.157 451.005,147.932 448.568,149.557 C446.284,151.080 441.063,153.800 441.796,146.310 C441.869,145.565 439.750,143.856 438.713,143.906 C436.435,144.018 434.173,145.560 431.949,145.465 C426.330,145.226 418.022,146.388 415.788,143.341 C412.670,139.090 413.340,131.457 413.846,125.392 C414.188,121.294 417.586,117.532 418.555,113.374 C419.097,111.049 418.338,107.217 416.677,105.784 C406.606,97.099 396.020,89.011 385.791,80.503 C381.576,76.997 378.438,76.598 376.585,82.424 C371.606,98.077 363.153,111.178 350.521,122.034 C342.064,129.301 341.720,146.334 347.671,155.860 C351.024,161.226 353.106,167.369 356.142,172.955 C357.209,174.919 359.170,176.715 361.157,177.790 C364.179,179.426 367.488,180.759 370.835,181.530 C380.594,183.779 381.439,194.063 387.499,199.635 C388.503,200.559 388.236,203.072 388.221,204.848 C388.151,212.854 388.577,220.930 387.660,228.847 C386.476,239.083 397.104,240.852 400.107,247.804 C405.251,259.714 414.498,260.005 425.118,257.376 C438.732,254.006 452.400,250.849 466.004,247.437 C471.069,246.167 476.419,245.145 480.868,242.644 C483.512,241.158 486.300,236.934 486.168,234.073 C485.731,224.618 488.530,214.723 482.262,205.802 C478.679,200.703 482.122,186.047 486.966,181.778 C487.632,181.192 488.669,181.025 489.534,180.664 C489.860,182.059 490.226,183.446 490.505,184.851 C491.481,189.757 491.143,195.465 493.617,199.434 C501.978,212.850 511.470,213.493 522.280,201.864 C530.375,193.155 537.885,183.907 545.826,175.052 C548.078,172.540 550.928,170.563 553.504,168.341 C552.137,171.549 550.989,174.874 549.357,177.943 C546.079,184.109 542.406,190.069 539.190,196.266 C538.349,197.886 538.589,200.065 538.333,201.988 C540.200,201.311 542.482,201.102 543.865,199.880 C552.397,192.340 560.702,184.547 569.146,176.908 C570.419,175.757 572.025,174.975 573.477,174.022 C573.260,175.882 573.691,178.224 572.720,179.525 C566.312,188.110 559.481,196.381 553.073,204.966 C551.365,207.256 550.650,210.284 549.479,212.973 C552.621,212.389 556.389,212.710 558.791,211.056 C566.664,205.634 573.997,199.437 581.651,193.688 ZM147.707,288.266 C146.420,289.001 144.119,289.606 144.006,290.490 C143.057,297.894 142.479,305.347 141.913,312.794 C141.877,313.265 142.872,313.813 143.386,314.325 C143.861,313.473 144.594,312.670 144.770,311.760 C146.032,305.233 147.181,298.684 148.628,290.700 C148.656,290.773 148.181,289.520 147.707,288.266 ZM21.920,282.713 C21.514,283.232 21.015,283.709 20.754,284.292 C20.659,284.503 21.190,285.288 21.339,285.262 C21.980,285.151 22.585,284.835 22.909,284.709 C22.291,283.461 22.105,283.087 21.920,282.713 ZM232.705,80.532 C229.518,77.905 224.809,74.109 221.710,74.877 C203.249,79.452 184.177,83.400 173.591,102.293 C170.899,107.098 166.111,110.695 162.891,115.270 C162.073,116.433 163.571,119.219 164.004,121.259 C165.729,120.715 167.952,120.666 169.084,119.532 C172.153,116.460 174.455,112.594 177.655,109.695 C179.839,107.715 183.436,105.206 185.673,105.776 C191.225,107.191 194.461,105.427 197.609,101.279 C198.743,99.784 201.496,98.009 202.858,98.436 C210.475,100.822 216.221,98.841 220.949,92.591 C222.134,91.024 224.190,90.114 225.845,88.902 C226.297,89.542 226.749,90.183 227.201,90.823 C228.691,89.807 230.876,89.105 231.512,87.703 C232.525,85.470 233.688,81.343 232.705,80.532 ZM300.419,470.704 C299.298,470.382 297.403,470.325 296.804,470.990 C291.494,476.878 283.515,482.384 282.161,489.163 C281.100,494.470 287.222,502.610 292.232,507.264 C296.060,510.821 303.140,510.895 307.769,512.229 C315.129,510.852 320.875,509.662 326.662,508.716 C340.412,506.469 354.184,504.360 367.933,502.113 C369.084,501.925 370.133,501.124 371.229,500.607 C370.820,499.988 370.555,499.112 369.979,498.787 C363.734,495.266 357.669,491.298 351.106,488.497 C340.776,484.089 330.148,480.353 319.555,476.587 C313.273,474.354 306.833,472.548 300.419,470.704 ZM393.537,70.427 C399.089,76.528 404.592,82.836 411.013,87.929 C414.734,90.880 420.767,93.679 424.733,92.641 C427.564,91.900 428.689,84.665 430.575,80.327 C429.473,60.355 416.276,49.439 398.839,54.579 C389.506,57.331 387.294,63.567 393.537,70.427 ZM382.182,47.235 C393.363,41.120 405.051,39.880 417.404,42.220 C420.305,42.770 425.687,43.217 425.958,42.400 C427.082,39.014 427.650,34.846 426.667,31.474 C423.502,20.620 406.656,10.834 391.527,10.346 C375.374,9.826 360.386,17.519 354.854,28.931 C352.709,33.357 352.733,36.750 357.709,39.111 C363.500,41.859 369.092,45.064 375.007,47.495 C377.058,48.338 380.269,48.280 382.182,47.235 ZM347.049,74.400 C349.833,78.700 352.917,82.808 355.894,86.985 C358.245,83.973 360.984,81.179 362.844,77.890 C364.864,74.316 366.667,70.395 367.426,66.410 C367.971,63.548 367.712,58.806 365.943,57.576 C361.682,54.612 356.324,53.218 351.408,51.191 C350.261,54.309 348.794,57.354 348.055,60.566 C347.307,63.816 347.279,67.231 346.949,70.576 C346.963,71.870 346.458,73.488 347.049,74.400 Z"/>
</svg>