<svg 
 xmlns="http://www.w3.org/2000/svg"
 xmlns:xlink="http://www.w3.org/1999/xlink"
 width="477px" height="493px">
<path fill-rule="evenodd"  fill="#f05b30"
 d="M313.938,492.1000 L277.695,492.1000 C281.760,490.843 284.369,486.863 284.131,481.812 C283.885,476.577 281.521,471.458 280.277,466.247 C279.300,462.153 276.977,457.510 278.056,453.959 C281.326,443.198 285.533,432.653 290.263,422.432 C292.231,418.178 292.375,416.038 288.862,412.641 C283.136,407.104 278.696,400.227 272.886,394.796 C267.771,390.015 261.076,382.562 255.874,383.162 C246.057,384.293 247.284,395.658 245.223,403.365 C244.496,406.085 244.793,409.073 244.111,411.811 C241.344,422.918 238.253,433.945 235.553,445.067 C234.547,449.211 233.687,453.556 233.832,457.772 C234.027,463.463 235.637,469.099 235.928,474.794 C236.176,479.640 234.924,484.580 235.347,489.390 C235.444,490.493 236.488,491.951 237.705,492.1000 L186.850,492.1000 C189.419,487.488 190.685,480.914 185.703,474.866 C177.668,465.114 174.140,454.753 181.981,443.023 C182.735,441.896 182.233,439.988 182.511,438.480 C183.760,431.725 185.566,425.034 186.282,418.228 C188.119,400.738 197.028,384.715 195.398,366.305 C194.374,354.755 184.092,357.488 179.232,352.385 C176.442,355.984 172.367,359.177 171.078,363.249 C164.372,384.410 158.193,405.743 152.192,427.117 C146.918,445.907 140.427,451.022 120.903,450.654 C112.889,450.433 106.969,454.011 105.288,461.762 C103.059,472.047 101.125,482.522 100.466,492.1000 L63.187,492.1000 C65.351,477.390 67.552,461.786 69.505,446.150 C70.431,438.747 69.700,431.117 70.858,423.768 C72.304,414.595 76.622,412.160 85.728,413.829 C100.021,416.449 104.612,412.675 105.211,398.374 C105.985,379.879 106.663,361.364 108.188,342.925 C108.635,337.517 111.648,332.264 113.785,327.063 C119.303,313.633 125.312,300.394 130.459,286.827 C132.690,280.947 130.023,276.749 123.555,274.508 C110.537,269.999 108.822,263.059 117.365,252.587 C119.119,250.437 121.545,247.739 121.461,245.372 C121.004,232.528 120.689,219.576 118.664,206.926 C117.236,198.008 110.487,196.388 104.088,203.089 C95.993,211.564 86.886,217.702 75.747,221.509 C72.959,222.461 71.115,227.142 69.530,230.440 C63.435,243.114 56.715,255.602 52.040,268.799 C49.190,276.846 49.538,286.049 48.652,294.753 C47.547,305.615 47.547,315.979 59.388,322.053 C61.483,323.127 62.244,326.738 63.691,329.135 C65.804,332.630 67.172,337.474 70.291,339.285 C77.643,343.553 77.752,351.199 80.625,357.514 C81.110,358.580 79.340,360.668 78.612,362.284 C73.279,358.832 67.838,355.532 62.651,351.874 C59.216,349.451 56.382,344.828 52.838,344.333 C49.920,343.925 44.667,347.439 43.414,350.445 C40.501,357.436 39.578,365.225 37.480,372.587 C34.879,381.710 32.171,390.821 28.972,399.746 C27.552,403.712 25.720,402.946 22.261,400.155 C10.976,391.052 12.638,380.744 16.980,369.182 C18.652,364.728 18.511,359.540 18.809,354.663 C18.903,353.125 17.737,351.511 17.147,349.932 C15.587,350.678 13.887,351.229 12.504,352.220 C10.838,353.413 9.653,355.486 7.865,356.236 C6.234,356.920 3.516,357.063 2.301,356.125 C1.069,355.173 0.160,352.233 0.732,350.816 C2.546,346.320 5.504,342.281 7.297,337.780 C9.612,331.972 14.380,324.635 12.586,320.146 C5.910,303.439 12.376,288.767 17.054,273.804 C22.521,256.320 23.166,239.160 17.757,221.563 C14.141,209.804 17.933,204.794 28.116,198.279 C40.272,190.501 51.398,181.048 62.569,171.838 C70.489,165.308 80.177,160.394 83.993,149.670 C84.752,147.537 87.418,145.496 89.680,144.571 C110.782,135.941 123.801,117.463 140.388,103.367 C148.108,96.806 150.380,88.216 145.707,79.051 C137.760,63.462 136.459,47.342 136.937,30.174 C137.202,20.650 138.002,13.484 146.383,7.865 C154.230,2.604 162.013,-0.001 171.771,0.854 C183.557,1.886 194.067,3.510 203.261,12.405 C212.383,21.230 216.032,32.754 211.652,45.097 C209.565,50.978 209.329,57.523 208.367,63.785 C207.828,67.299 207.876,70.937 207.033,74.365 C205.082,82.298 205.797,89.119 213.087,94.275 C220.063,99.210 226.838,104.427 233.667,109.568 C235.729,111.120 238.672,112.438 239.500,114.535 C243.400,124.422 252.966,124.761 260.767,128.513 C267.200,131.607 273.573,136.004 278.187,141.356 C282.768,146.671 285.169,147.485 288.709,141.260 C289.470,139.925 290.681,138.846 291.451,137.515 C304.910,114.244 339.341,110.513 356.267,131.244 C366.491,143.768 373.472,158.289 374.171,175.012 C374.444,181.569 375.548,188.271 374.605,194.662 C372.711,207.479 364.797,213.247 351.675,212.899 C350.003,212.855 348.325,213.062 346.649,213.153 C348.157,214.357 349.526,215.814 351.194,216.726 C369.794,226.900 388.793,236.406 406.964,247.287 C421.830,256.188 434.050,267.467 436.615,286.584 C437.927,296.365 448.851,299.653 456.216,300.716 C468.398,302.474 471.843,311.126 476.809,319.218 C477.026,319.572 474.006,322.514 472.098,323.386 C470.155,324.273 467.721,324.090 465.503,324.375 C466.459,326.366 467.460,328.337 468.356,330.355 C468.912,331.608 469.309,332.932 469.778,334.224 C467.856,334.478 465.585,335.525 464.068,334.860 C451.778,329.480 439.671,323.683 427.401,318.256 C424.909,317.153 421.960,317.076 419.220,316.525 C418.648,319.862 417.981,323.185 417.528,326.537 C417.091,329.776 417.348,333.203 416.329,336.221 C415.909,337.463 411.552,338.771 411.359,338.481 C409.452,335.604 406.655,332.365 406.729,329.291 C407.063,315.241 409.042,301.193 408.722,287.184 C408.593,281.580 405.551,273.322 401.270,271.022 C385.828,262.723 369.322,256.382 353.106,249.565 C352.147,249.162 349.481,250.725 348.887,251.976 C347.697,254.482 346.930,257.385 346.799,260.161 C346.124,274.544 346.139,288.971 345.093,303.322 C343.628,323.412 353.083,336.200 370.639,344.288 C375.942,346.730 382.216,364.351 379.203,369.360 C377.790,371.705 374.478,372.912 372.026,374.634 C370.646,372.478 369.058,370.420 367.955,368.131 C367.203,366.571 367.510,364.468 366.665,362.996 C365.065,360.208 362.978,357.699 361.092,355.075 C359.778,357.458 358.816,360.142 357.084,362.171 C351.190,369.078 352.436,376.062 355.176,383.887 C356.111,386.558 353.215,390.564 352.070,393.960 C349.911,391.697 347.213,389.741 345.715,387.104 C343.184,382.650 341.160,377.857 339.428,373.026 C338.535,370.533 337.498,366.879 338.635,365.074 C345.300,354.506 339.345,346.729 332.427,340.595 C324.877,333.900 321.889,326.898 322.650,316.900 C323.998,299.196 315.545,283.798 308.989,268.089 C308.787,267.603 304.264,267.791 303.264,268.955 C299.424,273.427 297.149,279.897 292.516,282.874 C285.865,287.147 277.712,289.152 270.093,291.823 C267.998,292.557 265.433,291.883 263.249,292.472 C261.394,292.972 259.779,294.361 258.057,295.357 C259.237,296.943 260.158,298.838 261.635,300.070 C288.165,322.216 310.150,348.444 327.665,377.928 C334.865,390.048 338.432,404.686 341.570,418.645 C342.721,423.762 338.375,430.485 335.586,435.996 C333.091,440.926 329.134,445.098 326.099,449.783 C322.055,456.025 317.652,462.154 314.574,468.865 C311.792,474.936 307.427,483.122 309.520,487.824 C310.342,489.673 311.942,491.440 313.938,492.1000 Z"/>
</svg>