<svg 
 xmlns="http://www.w3.org/2000/svg"
 xmlns:xlink="http://www.w3.org/1999/xlink"
 width="399px" height="462px">
<path fill-rule="evenodd"  fill="#f05b30"
 d="M374.065,445.581 C375.128,450.032 377.299,456.773 379.059,461.1000 L40.237,461.1000 C30.849,455.386 21.647,448.493 12.040,442.215 C4.487,437.279 6.1000,435.1000 6.1000,435.1000 C6.1000,435.1000 6.877,434.528 5.311,428.896 C-4.741,392.753 3.437,358.086 14.006,323.836 C17.598,312.194 23.609,301.182 29.560,290.459 C31.046,287.781 36.537,286.465 40.283,286.260 C42.070,286.161 44.954,289.877 45.675,292.349 C46.131,293.914 43.542,296.389 42.267,298.424 C40.032,301.991 36.569,305.264 35.686,309.130 C28.535,340.465 25.589,371.925 34.042,403.618 C36.620,413.285 47.971,420.013 58.630,420.332 C59.608,420.361 61.352,418.217 61.549,416.904 C62.450,410.898 62.867,404.821 63.592,398.785 C63.800,397.049 64.098,395.153 64.968,393.695 C71.196,383.260 77.294,372.829 85.587,363.673 C92.267,356.297 99.939,353.244 109.451,353.421 C109.919,353.430 110.758,353.270 110.810,353.045 C113.327,342.256 118.543,347.161 124.917,349.433 C127.487,350.350 133.555,345.485 135.969,341.877 C139.208,337.036 140.959,335.043 145.431,340.317 C149.741,345.400 153.570,343.930 157.463,339.080 C158.633,337.623 162.156,337.435 164.492,337.684 C167.242,337.976 170.408,340.741 172.423,339.955 C175.022,338.940 178.769,335.026 178.368,333.131 C175.858,321.274 171.520,309.849 171.972,297.360 C172.115,293.407 169.568,289.432 169.129,285.373 C166.839,264.209 164.204,243.053 162.909,221.820 C161.707,202.145 167.546,183.673 176.454,166.275 C178.576,162.131 182.151,158.718 185.123,155.021 C192.305,146.084 192.633,133.659 187.984,123.788 C185.388,118.277 184.945,111.368 184.985,105.099 C185.045,95.637 180.611,91.846 171.629,94.916 C157.878,99.615 144.474,104.192 134.767,116.536 C130.030,122.561 121.802,125.786 115.375,130.573 C107.942,136.108 101.156,142.762 101.856,152.679 C102.261,158.429 105.930,163.896 107.656,169.633 C108.462,172.314 109.266,177.187 108.135,177.869 C103.853,180.452 97.987,184.244 94.138,183.043 C79.257,178.396 75.587,169.264 81.142,153.663 C82.720,149.233 86.127,145.479 88.439,141.274 C98.380,123.197 108.057,104.973 118.265,87.048 C120.030,83.948 123.765,81.860 126.825,79.624 C130.269,77.108 132.902,77.649 134.473,82.087 C136.494,87.796 139.995,86.746 144.280,84.244 C149.357,81.280 154.897,79.117 160.098,76.348 C162.295,75.179 165.323,73.706 165.911,71.753 C167.357,66.944 168.549,63.250 174.550,66.483 C175.356,64.862 177.026,63.118 176.814,61.642 C176.005,56.006 176.946,53.278 183.251,56.180 C184.211,56.621 186.500,56.483 186.615,56.120 C189.898,45.783 193.891,54.012 197.727,55.548 C202.853,57.601 208.092,59.376 213.282,61.270 C214.141,56.374 215.100,51.494 215.838,46.579 C217.443,35.896 218.847,25.182 220.569,14.518 C220.829,12.906 221.988,10.845 223.344,10.092 C239.411,1.176 257.888,-5.347 275.466,8.979 C282.489,14.702 290.144,19.983 298.277,23.874 C302.046,25.677 307.914,24.525 312.336,23.140 C316.357,21.880 319.890,18.720 323.321,16.000 C335.908,6.023 349.858,3.849 365.070,8.271 C371.450,10.125 377.854,11.910 384.162,13.984 C385.651,14.474 386.799,15.999 388.103,17.048 C386.805,17.551 385.211,17.745 384.279,18.631 C382.948,19.896 381.641,21.546 381.181,23.260 C380.736,24.917 381.377,26.865 381.541,28.685 C379.315,27.663 376.446,27.203 374.975,25.524 C368.038,17.601 359.093,14.357 349.185,15.782 C343.129,16.653 336.238,18.954 331.883,22.955 C321.045,32.910 309.436,36.684 294.524,36.468 C283.565,36.310 271.302,39.701 261.957,45.356 C255.875,49.036 253.885,59.571 250.459,67.213 C250.239,67.705 253.281,70.444 255.105,70.875 C258.073,71.576 261.289,71.219 264.400,71.334 C273.882,71.684 279.730,78.106 279.303,87.612 C279.259,88.593 279.213,89.999 279.790,90.519 C289.433,99.207 299.094,107.882 309.045,116.212 C309.875,116.907 313.496,115.693 314.629,114.358 C318.421,109.896 321.396,109.483 324.856,114.654 C333.768,127.973 342.325,141.574 352.007,154.319 C363.930,170.013 376.421,185.389 394.703,194.537 C396.399,195.386 398.953,198.275 398.748,198.567 C396.993,201.068 394.991,203.717 392.410,205.159 C391.380,205.735 388.465,203.679 386.868,202.294 C385.576,201.173 385.322,198.795 383.988,197.808 C381.829,196.210 379.162,195.295 376.709,194.091 C376.164,196.242 375.630,198.396 375.072,200.543 C374.498,202.753 374.230,205.130 373.189,207.097 C372.607,208.198 370.680,209.224 369.451,209.127 C368.639,209.063 367.822,207.010 367.301,205.729 C365.472,201.235 364.141,196.499 361.918,192.218 C359.725,187.993 357.235,183.183 350.808,186.885 C349.988,187.358 348.455,186.597 347.253,186.407 C347.526,185.220 348.149,183.989 348.006,182.854 C347.625,179.813 347.980,175.471 346.152,174.029 C338.278,167.815 329.716,162.470 321.426,156.778 C318.236,154.588 314.797,152.639 311.994,150.025 C299.702,138.561 287.660,126.831 275.364,115.372 C273.682,113.805 270.585,111.916 269.025,112.504 C266.943,113.290 265.581,116.261 264.162,118.456 C260.757,123.717 258.043,129.534 254.021,134.253 C250.515,138.366 248.909,148.934 253.236,152.662 C275.780,172.085 274.242,195.218 264.611,220.074 C257.586,238.206 251.543,257.150 256.167,276.464 C257.997,284.110 266.043,291.025 272.689,296.566 C279.552,302.287 289.952,303.746 293.209,313.886 C293.415,314.527 294.502,315.523 294.809,315.404 C307.173,310.617 313.411,326.954 326.069,324.147 C330.626,323.136 337.367,328.565 342.071,332.344 C349.450,338.270 356.133,345.109 362.715,351.941 C365.070,354.387 366.345,357.898 367.996,360.984 C375.263,374.569 382.453,388.359 378.296,404.431 C376.308,412.117 372.400,419.293 370.004,426.901 C369.283,429.191 370.676,432.169 371.215,434.809 C371.317,435.308 371.958,435.698 372.350,436.137 C360.648,441.158 373.350,442.588 374.065,445.581 Z"/>
</svg>