<?xml version="1.0" encoding="UTF-8"?><svg xmlns="http://www.w3.org/2000/svg" viewBox="0 0 485.94 183.49"><defs><style>.d{isolation:isolate;}.e{fill:#f15b2f;}</style></defs><g id="a"/><g id="b"><g id="c"><g><path class="e" d="M0,66.98c2.82-2.57,5.67-5.1,8.47-7.7,9.01-8.4,18.06-16.76,26.97-25.27,3.06-2.93,6.28-4.34,10.67-4.26,13.98,.25,27.97,.05,41.96,.04,8.64,0,17.28,.07,25.92-.04,4.96-.06,9.34,1.41,13.43,4.29v17.05c-2.37,.1-4.33,.26-6.29,.27-21.98,.03-43.97,.09-65.95-.02-3.73-.02-6.61,.88-9.3,3.65-6.49,6.7-13.24,13.14-19.98,19.58-2.34,2.23-3.36,4.7-3.22,7.97,.22,5.14,.06,10.29,.06,16.08,2.36,.14,4.28,.34,6.19,.35,30.48,.03,60.97,.03,91.45,.04,1.33,0,2.67,.05,4,.01,2.01-.05,3.24,.85,3.26,2.89,.05,6.46,.02,12.92,.02,19.62-1.52,.24-2.62,.56-3.72,.56-40.48,.02-80.96,0-121.43,0-.83,0-1.66-.07-2.49-.11-.02-18.34-.02-36.67-.02-55Z"/><path class="e" d="M0,128.97c105.55,0,211.09,0,316.64,.03,55.77,0,111.54,.04,167.31,.06,.66,0,1.33-.06,1.99-.09v12.99H0c0-4.33,0-8.66,0-12.99Zm2.32,9.92c2.62,.14,4.6,.36,6.57,.32,6.49-.13,12.99-.22,19.48-.59,3.94-.22,7.85-1.31,11.78-1.34,6.27-.04,12.54,.56,18.81,.72,4.21,.11,8.43,0,12.65-.11,4.31-.11,8.63-.6,12.93-.44,3.84,.14,7.66,1.32,11.49,1.35,25.77,.17,51.54,.18,77.3,.19,14.91,0,29.82-.17,44.72-.11,26.95,.12,53.9,.38,80.84,.53,6.49,.04,13.01-.51,19.47-.08,6.59,.44,12.97-1.44,19.58-.8,5.75,.55,11.6-.04,17.4,.14,11.59,.37,23.18,1.29,34.66-1.34,.77-.18,1.65,.1,2.48,.12,6.14,.14,12.29,.29,18.43,.4,4.61,.08,9.23,.14,13.84,.15,1.91,0,3.82-.11,5.73-.24,2.22-.16,4.43-.57,6.64-.58,15.53-.05,31.06-.03,46.49-.03,1.52-5.25,.97-6.23-3.62-6.28-5.99-.07-11.99,.07-17.99,.06-49.13,0-98.25-.07-147.38-.02-24.14,.02-48.29,.3-72.43,.32-22.82,.02-45.63-.28-68.45-.22-36.12,.09-72.25,.44-108.37,.51-19.47,.04-38.93-.3-58.4-.44-1.58,0-3.16,.18-5.16,.3,.18,2.71,.32,4.8,.51,7.51Z"/><path class="e" d="M176.94,20.98c-6.33,1.8-6.62,1.59-8.39-6.51-5.85,5.11-13.01,2.57-19.49,3.57-2.3,4.31-2.95,4.51-9.74,2.99-.18-6.95-1.1-14,.67-21.03h84.99c4.08,2.17,5.13,6.07,5.48,10.34,2.24,.32,4.31,.29,6.11,.96,1.72,.64,3.09,2.17,4.76,3.03,4.83,2.49,9.35-.1,9.82-5.48,.25-2.95,.55-5.9,.83-8.85h90.99c.13,2.44,.27,4.88,.42,7.57-2.88,.55-5.27,1.01-8.21,1.58-.14,2.42-.33,4.84-.41,7.26-.18,5.24-.5,5.56-5.87,5.37-.8-.03-1.59-.22-2.77-.39-.42-4.04-.83-7.94-1.24-11.96-8.48-2.02-16.67-1.11-24.8-.82-.53,5.04,.07,5.89,4.3,6.07,3.57,.16,7.16,.16,10.73,.23-.01,.42-.02,.85-.03,1.27-5.18,0-10.35,.06-15.53-.03-2.07-.04-2.98-1.6-2.85-3.41,.21-2.84,.77-5.65,1.31-9.36-1.2,1.65-1.97,2.7-2.74,3.76-.49-1.31-.98-2.62-1.51-4.05-.6,.16-1.41,.22-1.43,.4-.55,4.01-2.9,7.62-1.61,12.09,.95,3.3,2.8,5.12,5.73,5.3,5.63,.35,11.31,.16,16.96,.04,.77-.02,1.52-.86,2.69-.55-.97,.48-1.91,1.3-2.91,1.37-7.23,.56-14.52,2.31-21.59-1.08-.85-.41-2.27-.09-3.26,.3-7.96,3.08-16.04,1.85-24.08,.64-1.33-.2-2.5-1.52-3.28-2.02-10.52,3.63-20.55,4.39-30.96-.69-5.94,4.79-13.26,3.56-20.43,3.32-.04-.37-.07-.74-.11-1.11,3.42,0,6.86-.15,10.27,.03,6.53,.34,8.66-2.43,8.73-10.3,.02-1.78-.52-3.57-.91-6-4.65-1.75-9.6-3.38-14.86-.67-1.74,.9-2.98,.51-4.56-.48-3.46-2.18-6.86-.58-6.88,3.46-.02,4.25,.76,8.5,1.21,12.96-3.18-.25-6.49,3.5-10.45,.87l-.08,.05c1.91-.1,3.83-.21,6.43-.35-.5-2.35-.87-4.04-1.22-5.73-.18-.87-.74-2.01-.39-2.58,2.54-4.1,.29-6.58-1.67-8.22-5.89,.49-10.77,.89-15.65,1.3,1.85,.63,3.64,.54,5.42,.65,1.64,.11,3.36,.19,4.87,.75,.86,.32,1.38,1.56,2.05,2.39-.86,.64-1.64,1.5-2.61,1.86-.88,.32-2.01,.29-2.96,.09-3.41-.72-8.39,2.51-9.64-3.76-.02-.09-.32-.22-.42-.18-2.64,1.32-3.1-1.92-4.77-2.77-.21,3.83-.55,7.23-.55,10.62,0,6,.09,6,6.18,5.93l-.09-.04ZM286.92,3.19c-.83,.57-1.55,1.07-2.26,1.56-1.68-3.36-4.69-1.08-6.95-1.35-4.82-.59-9.76-.18-14.62-.18-.28,2.03-.67,4.11-.81,6.21-.14,2.15-.12,4.33-.02,6.49,.18,3.93,1.22,5.06,5.11,5.14,5.33,.11,10.66,.05,15.98,0,1.61-.02,3.57,.29,3.71-2.2,.15-2.7-1.74-2.78-3.69-2.77-4.65,.01-9.29,0-14.46,0-.18-1.7-.33-3.12-.56-5.26,5.5,4.75,10.87,2.49,15.92,2.87,.17-.83,.26-1,.22-1.14-.8-2.91-2.85-3.61-5.68-3.71-3.32-.12-6.83,.94-11.21-1.35,2.27-.53,3.44-1,4.63-1.04,3.81-.13,7.63-.08,11.45-.12,1.95-.04,3.71-.31,3.24-3.15ZM146.7,11.28c.59-1.92,.62-3.75,1.54-4.55,.98-.85,2.81-.72,4.27-1.01l-.15-.78c-3.68,.47-7.35,.93-11.03,1.4-.17,2.29-.45,4.59-.47,6.88-.02,2.44,.2,4.88,.3,7.23q4.93,.69,6.13-6.62c3.96,2.21,4.87,2.35,12.8,1.97,6.27-.3,8.07-2.37,7.63-8.58-3.7-2.19-7.46-3.02-11.39-.99,.78,.34,1.59,.27,2.38,.36,1.68,.18,3.13,1.03,2.6,2.81-.25,.85-1.88,1.74-2.93,1.81-3.58,.21-7.19,.07-11.68,.07Zm85.18,1.32c.3,5.4,2.31,8.17,6.58,8.41,4.62,.26,9.28,.22,13.91-.03,3.98-.22,6.15-2.38,6.39-6.27,.24-3.73,.05-7.48,.05-11.41-2.14,.97-3.9,1.76-5.78,2.61-.12,2.3-.28,4.44-.33,6.58-.05,2.41-1.05,3.69-3.62,3.59-2.48-.1-4.99,.14-7.45-.1-1.14-.11-2.78-.76-3.2-1.64-1.63-3.52-4.03-2.46-6.55-1.74Zm101.09,8.48V6.83c-1.83,.13-3.52,.24-5.57,.38v13.41c1.78,.16,3.3,.28,5.57,.46Z"/><path class="e" d="M484.81,100.11v21.56h-133.46c-.15-1.33-.44-2.75-.44-4.17-.03-15.66,.01-31.33-.06-46.99-.01-2.53,.77-4.37,2.63-6.12,11.02-10.4,22.01-20.84,32.86-31.43,2.34-2.28,4.75-3.36,7.95-3.3,8.49,.15,16.99,.13,25.49,.22,5.5,.06,10.54,1.13,15.91,3.14,9.51,3.57,13.95,12.12,21.5,17.39l-.27,1.23c-1.32,.24-2.65,.69-3.97,.7-14.82,.09-29.64,.11-44.46,.15-.83,0-1.67-.01-2.5-.05-3.96-.2-7.19,.77-10.23,3.83-6.09,6.13-12.68,11.78-19.17,17.51-2.03,1.8-3.01,3.76-2.92,6.5,.15,4.83,.11,9.66-.01,14.49-.08,3.15,1.26,4.61,4.41,4.62,7.49,.03,14.98,.17,22.48,.18,25.82,.05,51.64,.06,77.47,.12,2.09,.01,4.2,.26,6.79,.42Z"/><path class="e" d="M320.51,121.77h-21.3c-.17-2.11-.49-4.18-.49-6.25-.02-18.32,.01-36.63,.02-54.95,0-1.33,.06-2.67-.07-3.99-.37-3.52-1.42-4.77-4.97-4.92-5.65-.23-11.31-.12-16.97-.17-3.66-.03-7.32-.24-10.97-.07-3.36,.16-4.47-1.64-4.52-4.52-.07-4.48-.02-8.96,.82-13.76,.73,1.48,1.45,2.96,2.42,4.93,1.11-1.9,2.1-3.61,3.25-5.59-1.74-.82-3.04-1.44-5.31-2.51h116.76l.51,1.11c-.99,1.21-1.88,2.51-2.97,3.61-4.2,4.28-8.63,8.34-12.64,12.78-2.96,3.28-6.24,4.32-10.6,4.15-8.64-.33-17.31-.28-25.96-.04-6.43,.18-6.58,.66-6.57,7.08,.02,19.15-.01,38.3-.05,57.45-.03,1.79-.25,3.57-.39,5.66Zm14.33-90.56h-41.13c2.04,2.13,3.43,2.91,5.75,1.93,1.74-.73,3.83-.99,5.74-.91,4.78,.2,9.56,.62,14.31,1.15,1.01,.11,1.94,1.03,1.97,1.05,2.83-.33,5.14-1.22,7.02-.66,2.68,.81,3.95-.39,6.34-2.56Z"/><path class="e" d="M133.25,121.67c-1.29-4.93-1.42-86.01-.1-91.45h21.94c.91,22.92,.41,45.59,.86,69.08h70.41c1.71,4.47,1.98,15.71,.75,22.37h-93.86Z"/><path class="e" d="M30.6,85.7c6.67-6.8,13.03-13.37,19.49-19.83,1.93-1.93,4.32-2.74,7.21-2.73,21.47,.09,42.95,.01,64.42,.03,1.78,0,3.55,.32,5.71,.53v22.01c-4.99,1.48-91.53,1.48-96.83,0Z"/><path class="e" d="M484.09,85.46c-3.69,1.78-97.23,2.3-103.85,.59,.75-.98,1.32-1.91,2.07-2.66,5.79-5.74,11.63-11.44,17.44-17.16,2.11-2.08,4.47-3.1,7.56-3.07,17.15,.12,34.3,.12,51.45,.03,3.21-.02,5.75,.8,7.97,3.21,5.18,5.62,10.54,11.09,15.79,16.65,.65,.68,1.04,1.58,1.57,2.41Z"/><path class="e" d="M255.21,33.76v31.38c.01,17.32,.05,34.64,.02,51.95-.01,4.98-.12,5.06-5.01,5.16-4.16,.09-8.33,.1-12.49,.03-4.72-.08-5.02-.33-5.04-5.24-.07-16.49-.04-32.97-.04-49.46,0-10.16,0-20.32,.02-30.47,0-2.14,.18-4.28,.28-6.68,6.95-2.26,13.68,.23,20.38,.38h-17.94c-.13,2.18-.23,3.92-.34,5.91,6.4-4.91,13.06-5.11,20.16-2.96Z"/><path class="e" d="M416.6,18.14c-4.46,1.26-8.77,.72-12.55-1.24-4.96-2.57-10.25-2.08-15.41-2.49-7.75-.62-15.55-.53-23.32-.9-4.46-.21-8.9-.75-13.5-1.15-.17,2.67-.31,5.03-.51,8.29,8.15,0,16.04,0,23.93,0,7.98,0,15.97,.02,23.95-.1,7.67-.11,15.35-.73,23.01-.48,.02,.61,.04,1.21,.06,1.82-1.85,.12-3.71,.33-5.56,.34-19.8,.07-39.6,.1-59.4,.16-8.08,.02-8.8-.74-7.98-8.85,.07-.65,.31-1.27,.6-2.43,1.69-.16,3.44-.45,5.19-.46,18.13-.04,36.27,.19,54.4-.17,5.78-.11,8.75,2.6,11.01,7.37-3.34-2.63-6.38-6.63-11.45-2,2.77,.85,5.15,1.57,7.53,2.29Z"/><path class="e" d="M126.04,20.44c-2.4-2.01-3.75-3.52-5.43-4.42-1.49-.8-3.38-1.37-5.03-1.23-3.33,.29-6.45,.52-9.74-.79-2.03-.81-4.59-.69-6.84-.44-3.4,.39-6.74,1.28-10.12,1.91-.79,.15-1.62,.13-2.44,.13-2.55,.02-5.09,.01-8.83,.01-2.18-2.14-6.23-1.89-10.19-1.37-2.05,.27-3.59,.27-4.68-2.29,1.04-.32,2.02-.9,3-.9,19.98-.02,39.96,.02,59.94,.07,.47,0,.94,.25,1.88,.52v10H54.59c0-.4-.01-.8-.01-1.2,23.64,0,47.27,0,71.46,0Z"/><path class="e" d="M214.9,16.17h-2c-4.79-.01-7.46-4.18-5.21-8.36,.44-.81,1.77-1.52,2.74-1.6,2.48-.22,5-.18,7.49-.03,3.52,.22,4.8,1.63,4.85,4.99,.04,3.14-1.53,4.75-4.87,4.94-1,.06-2,.01-3,.01v.05Zm.44-7.75c-2.24-.17-4.17,.57-4.24,3.03-.06,2.08,1.5,3.21,3.67,3.16,2.12-.05,4.11-.37,4.12-3.13,.01-2.32-1.31-3.25-3.55-3.06Z"/><path class="e" d="M192.02,20.98c-5.66-5.16-9.82-5.16-15.08,0l.08,.05c.13-2.49,.26-4.97,.46-8.74,4.11,6.28,10.03,2.08,14.46,4.86v3.88l.08-.05Z"/></g><g class="d"><path class="e" d="M32.26,174.97h19.3v8.52h-19.3c-9.65,0-14.48-4.26-14.48-12.78v-4.26c0-8.52,4.83-12.78,14.48-12.78h19.3v8.52h-19.3c-3.22,0-4.83,1.42-4.83,4.26v4.26c0,2.84,1.61,4.26,4.83,4.26Z"/><path class="e" d="M75.7,183.49h-7.24c-9.65,0-14.48-4.26-14.48-12.78v-4.26c0-8.52,4.83-12.78,14.48-12.78h7.24c9.65,0,14.48,4.26,14.48,12.78v4.26c0,8.52-4.83,12.78-14.48,12.78Zm-7.24-8.52h7.24c3.22,0,4.83-1.42,4.83-4.26v-4.26c0-2.84-1.61-4.26-4.83-4.26h-7.24c-3.22,0-4.83,1.42-4.83,4.26v4.26c0,2.84,1.61,4.26,4.83,4.26Z"/><path class="e" d="M102.24,166.45v17.04h-9.65v-29.81h9.65l12.06,10.65,12.06-10.65h9.65v29.81h-9.65v-17.04l-12.06,10.65-12.06-10.65Z"/><path class="e" d="M138.43,153.68h22.92c7.24,0,10.86,3.19,10.86,9.58s-3.62,9.58-10.86,9.58h-13.27v10.65h-9.65v-29.81Zm9.65,8.52v2.13h13.27c.8,0,1.21-.35,1.21-1.06s-.4-1.06-1.21-1.06h-13.27Z"/><path class="e" d="M193.14,153.68h9.65v29.81h-9.65v-17.04l-19.3,17.04h-14.48l33.78-29.81Z"/><path class="e" d="M214.85,166.45v17.04h-9.65v-29.81h9.65l19.3,17.04v-17.04h9.65v29.81h-9.65l-19.3-17.04Z"/><path class="e" d="M255.88,183.49h-9.65v-29.81h9.65v29.81Z"/><path class="e" d="M280.01,183.49h-7.24c-9.65,0-14.48-4.26-14.48-12.78v-4.26c0-8.52,4.83-12.78,14.48-12.78h7.24c9.65,0,14.48,4.26,14.48,12.78v4.26c0,8.52-4.83,12.78-14.48,12.78Zm-7.24-8.52h7.24c3.22,0,4.83-1.42,4.83-4.26v-4.26c0-2.84-1.61-4.26-4.83-4.26h-7.24c-3.22,0-4.83,1.42-4.83,4.26v4.26c0,2.84,1.61,4.26,4.83,4.26Z"/><path class="e" d="M306.55,166.45v17.04h-9.65v-29.81h9.65l19.3,17.04v-17.04h9.65v29.81h-9.65l-19.3-17.04Z"/><path class="e" d="M371.89,153.68h9.65v29.81h-9.65v-17.04l-19.3,17.04h-14.48l33.78-29.81Z"/><path class="e" d="M383.96,153.68h22.92c7.24,0,10.86,3.19,10.86,9.58s-3.62,9.58-10.86,9.58h-13.27v10.65h-9.65v-29.81Zm9.65,8.52v2.13h13.27c.8,0,1.21-.35,1.21-1.06s-.4-1.06-1.21-1.06h-13.27Z"/><path class="e" d="M420.16,153.68h22.92c7.24,0,10.86,3.19,10.86,9.58s-3.62,9.58-10.86,9.58h-13.27v10.65h-9.65v-29.81Zm9.65,8.52v2.13h13.27c.8,0,1.21-.35,1.21-1.06s-.4-1.06-1.21-1.06h-13.27Z"/></g></g></g></svg>