<svg xmlns="http://www.w3.org/2000/svg" xmlns:xlink="http://www.w3.org/1999/xlink" width="3399px" height="3286px">
	<path fill-rule="evenodd" fill="rgb(239, 90, 50)" d="M3086.510,867.895 C3056.767,943.628 3024.056,949.170 2965.388,889.961 C2939.405,863.739 2916.025,834.945 2890.173,808.583 C2830.598,747.832 2787.482,747.674 2728.848,810.381 C2662.348,881.501 2597.861,954.500 2532.416,1026.606 C2522.440,1037.598 2512.013,1048.179 2496.079,1064.973 C2466.248,1019.920 2437.078,979.577 2412.011,936.828 C2392.067,902.818 2398.926,867.468 2424.837,839.094 C2459.837,800.766 2497.072,764.405 2534.504,728.402 C2553.808,709.835 2576.813,695.111 2596.067,676.500 C2661.231,613.516 2658.855,568.137 2588.975,509.838 C2561.927,487.272 2533.025,466.453 2508.625,441.292 C2458.031,389.122 2464.492,355.543 2531.558,328.837 C2629.629,289.784 2729.126,254.323 2827.761,216.670 C2987.144,155.827 3145.985,93.535 3306.007,34.434 C3326.180,26.984 3362.811,26.245 3372.723,38.212 C3385.792,53.989 3388.850,88.782 3380.934,109.586 C3284.497,363.005 3185.632,615.505 3086.510,867.895 ZM2569.881,2144.776 C2491.141,2177.964 2434.984,2232.566 2397.194,2305.874 C2358.475,2380.984 2302.997,2421.027 2216.733,2429.942 C2125.210,2439.401 2071.268,2504.408 2030.774,2582.667 C1992.455,2656.723 1950.910,2729.111 1905.217,2812.376 C1872.248,2768.484 1845.993,2733.535 1815.464,2692.893 C1783.845,2759.658 1754.921,2820.732 1719.096,2896.376 C1682.559,2824.237 1651.607,2763.126 1616.294,2693.402 C1586.095,2733.658 1559.958,2768.497 1528.182,2810.856 C1481.861,2729.081 1436.644,2656.742 1398.913,2580.689 C1354.831,2491.832 1296.321,2432.013 1189.783,2425.197 C1122.931,2420.919 1074.326,2375.867 1035.167,2322.536 C974.254,2239.579 896.125,2178.636 802.115,2136.195 C608.609,2048.838 546.259,1860.724 650.224,1672.429 C776.573,1443.594 914.715,1220.806 1031.285,987.184 C1122.946,803.484 1254.754,682.169 1449.684,625.182 C1518.411,605.090 1585.072,573.804 1655.023,563.388 C1707.133,555.630 1765.835,564.685 1816.613,581.401 C1910.131,612.188 1999.528,655.279 2091.492,691.057 C2175.166,723.607 2236.932,780.552 2280.333,857.112 C2434.037,1128.264 2589.484,1398.495 2738.441,1672.248 C2847.475,1872.630 2779.688,2056.345 2569.881,2144.776 ZM2115.640,2216.891 C2164.303,2217.646 2199.980,2184.366 2200.607,2137.635 C2201.241,2090.329 2167.090,2054.221 2120.099,2052.512 C2067.216,2050.589 2032.101,2081.923 2030.552,2132.417 C2029.004,2182.874 2062.438,2216.068 2115.640,2216.891 ZM1269.310,2217.621 C1321.448,2218.676 1356.440,2186.386 1357.427,2136.307 C1358.471,2083.271 1328.097,2053.130 1273.445,2052.972 C1220.185,2052.817 1191.614,2082.692 1191.935,2138.205 C1192.211,2185.921 1222.167,2216.668 1269.310,2217.621 ZM2317.495,1556.522 C2301.974,1548.988 2274.986,1559.198 2255.694,1567.764 C2245.904,1572.110 2239.987,1589.150 2235.850,1601.623 C2206.063,1691.446 2144.239,1752.249 2062.999,1796.291 C1986.274,1837.884 1910.604,1881.488 1833.080,1921.512 C1772.193,1952.948 1718.876,1990.614 1690.289,2063.201 C1666.755,1989.467 1614.988,1950.344 1555.947,1919.021 C1493.686,1885.988 1430.356,1854.964 1368.167,1821.801 C1264.831,1766.697 1177.347,1696.088 1138.128,1579.774 C1126.940,1546.593 1101.790,1541.896 1073.283,1552.138 C1041.979,1563.384 1033.619,1587.653 1047.746,1616.999 C1072.465,1668.346 1094.084,1722.209 1126.244,1768.612 C1150.179,1803.146 1185.071,1833.699 1221.457,1855.277 C1310.683,1908.190 1403.731,1954.636 1494.980,2004.164 C1573.041,2046.533 1596.685,2094.775 1585.926,2181.883 C1582.253,2211.631 1582.806,2241.901 1581.428,2271.932 C1611.061,2263.301 1640.392,2253.302 1670.463,2246.649 C1684.338,2243.580 1709.509,2242.065 1712.707,2248.379 C1731.620,2285.726 1762.258,2298.523 1795.344,2280.781 C1830.809,2261.763 1817.019,2225.797 1807.116,2194.974 C1806.097,2191.801 1805.998,2188.344 1805.167,2185.096 C1786.187,2110.935 1806.492,2056.043 1872.172,2018.246 C1951.975,1972.322 2031.341,1924.627 2114.907,1886.491 C2236.654,1830.931 2301.521,1731.975 2340.688,1611.819 C2345.682,1596.498 2331.544,1563.342 2317.495,1556.522 ZM892.226,1054.537 C842.561,999.768 795.411,947.771 748.259,895.776 C706.499,849.727 665.674,802.783 622.679,757.918 C588.439,722.187 563.217,723.330 528.110,758.020 C486.277,799.355 445.704,842.044 402.514,881.900 C362.974,918.390 333.789,912.902 313.857,862.595 C209.564,599.372 106.429,335.682 4.981,71.353 C-2.152,52.768 -0.086,15.652 11.225,8.482 C28.463,-2.446 60.062,-1.631 81.162,6.142 C274.420,77.339 466.738,151.090 659.307,224.160 C726.732,249.745 794.363,274.815 861.402,301.378 C928.925,328.133 935.291,356.273 885.247,407.534 C846.514,447.208 806.663,485.846 766.166,523.724 C735.946,551.988 731.516,578.473 763.542,608.527 C822.330,663.695 879.323,720.803 938.823,775.176 C1005.876,836.451 1011.317,880.377 958.697,953.743 C936.405,984.825 916.471,1017.597 892.226,1054.537 ZM114.766,2993.498 C184.890,2814.099 255.633,2634.943 326.155,2455.699 C329.226,2447.894 332.354,2440.097 335.830,2432.466 C362.183,2374.611 394.044,2366.577 439.648,2409.861 C471.234,2439.840 498.184,2474.640 528.430,2506.109 C585.440,2565.426 613.579,2567.114 671.745,2511.130 C718.884,2465.758 761.116,2415.194 809.180,2370.899 C879.220,2306.348 955.943,2324.708 995.503,2410.934 C1009.872,2442.254 1008.167,2466.770 981.355,2491.549 C919.689,2548.538 860.004,2607.671 799.505,2665.925 C757.355,2706.511 757.435,2723.466 800.182,2764.940 C837.529,2801.177 877.350,2835.211 911.756,2874.047 C960.539,2929.110 952.009,2958.735 883.254,2985.070 C690.884,3058.752 498.262,3131.779 305.730,3205.038 C244.752,3228.240 183.800,3251.518 122.702,3274.397 C108.715,3279.634 94.165,3283.366 86.554,3285.723 C39.246,3287.030 16.862,3256.862 31.612,3214.181 C57.281,3139.910 86.146,3066.715 114.766,2993.498 ZM2481.767,2502.107 C2424.335,2438.282 2449.085,2325.715 2528.426,2291.477 C2538.414,2287.168 2558.674,2293.836 2567.675,2302.316 C2604.233,2336.759 2638.443,2373.715 2673.117,2410.128 C2685.843,2423.491 2697.030,2438.311 2709.640,2451.793 C2795.517,2543.605 2839.826,2541.043 2919.962,2443.016 C2943.097,2414.714 2968.911,2387.494 2997.724,2365.256 C3026.588,2342.981 3055.402,2349.945 3072.009,2384.750 C3083.527,2408.890 3092.800,2434.122 3102.586,2459.060 C3193.662,2691.149 3284.669,2923.266 3375.557,3155.428 C3382.202,3172.403 3387.763,3189.801 3398.321,3219.740 C3381.327,3231.648 3364.865,3250.857 3345.389,3254.666 C3326.075,3258.444 3302.858,3249.005 3282.840,3241.431 C3037.132,3148.483 2791.695,3054.819 2546.204,2961.298 C2536.807,2957.718 2527.367,2954.145 2518.302,2949.824 C2467.660,2925.679 2460.672,2898.332 2497.131,2856.152 C2523.444,2825.711 2553.397,2798.452 2580.770,2768.888 C2644.613,2699.934 2644.712,2669.750 2580.785,2602.490 C2548.408,2568.426 2513.172,2537.007 2481.767,2502.107 Z" />
</svg>