<svg xmlns="http://www.w3.org/2000/svg" xmlns:xlink="http://www.w3.org/1999/xlink" width="3793px" height="3317px">
	<path fill-rule="evenodd" fill="rgb(239, 90, 50)" d="M3669.042,3316.629 L123.958,3316.629 C29.273,3316.629 -29.906,3214.129 17.437,3132.129 L1789.979,61.969 C1837.321,-20.031 1955.679,-20.031 2003.021,61.969 L3775.563,3132.129 C3822.906,3214.129 3763.727,3316.629 3669.042,3316.629 ZM3536.422,3079.641 L1932.007,300.688 C1916.226,273.355 1876.774,273.355 1860.993,300.688 L256.578,3079.641 C240.797,3106.975 260.523,3141.141 292.085,3141.141 L3500.915,3141.141 C3532.477,3141.141 3552.203,3106.975 3536.422,3079.641 ZM2550.388,2427.078 C2491.518,2451.890 2449.533,2492.713 2421.280,2547.521 C2392.332,2603.677 2350.854,2633.614 2286.361,2640.279 C2217.933,2647.351 2177.605,2695.953 2147.329,2754.463 C2118.680,2809.831 2087.620,2863.951 2053.458,2926.203 C2028.808,2893.388 2009.180,2867.258 1986.354,2836.873 C1962.715,2886.790 1941.090,2932.450 1914.305,2989.006 C1886.989,2935.072 1863.849,2889.383 1837.446,2837.253 C1814.868,2867.350 1795.327,2893.398 1771.570,2925.067 C1736.938,2863.928 1703.133,2809.845 1674.924,2752.985 C1641.966,2686.551 1598.222,2641.828 1518.570,2636.732 C1468.587,2633.534 1432.248,2599.851 1402.971,2559.979 C1357.430,2497.956 1299.019,2452.393 1228.733,2420.663 C1084.060,2355.350 1037.443,2214.709 1115.172,2073.931 C1209.637,1902.845 1312.916,1736.279 1400.069,1561.613 C1468.599,1424.272 1567.144,1333.572 1712.882,1290.966 C1764.265,1275.944 1814.104,1252.552 1866.402,1244.766 C1905.361,1238.965 1949.249,1245.735 1987.213,1258.233 C2057.131,1281.250 2123.968,1313.468 2192.725,1340.216 C2255.283,1364.552 2301.462,1407.127 2333.909,1464.367 C2448.826,1667.091 2565.045,1869.127 2676.410,2073.795 C2757.928,2223.610 2707.249,2360.963 2550.388,2427.078 ZM2210.779,2480.994 C2247.161,2481.558 2273.834,2456.677 2274.303,2421.739 C2274.777,2386.371 2249.245,2359.375 2214.112,2358.097 C2174.574,2356.660 2148.322,2380.085 2147.163,2417.838 C2146.006,2455.562 2171.003,2480.378 2210.779,2480.994 ZM1578.027,2481.540 C1617.007,2482.329 1643.168,2458.188 1643.906,2420.746 C1644.687,2381.094 1621.978,2358.560 1581.118,2358.441 C1541.298,2358.325 1519.938,2380.661 1520.178,2422.164 C1520.384,2457.839 1542.781,2480.827 1578.027,2481.540 ZM2361.694,1987.275 C2350.089,1981.642 2329.912,1989.275 2315.489,1995.680 C2308.169,1998.928 2303.745,2011.668 2300.653,2020.994 C2278.382,2088.149 2232.160,2133.608 2171.421,2166.536 C2114.059,2197.632 2057.486,2230.232 1999.525,2260.157 C1954.003,2283.659 1914.142,2311.820 1892.768,2366.089 C1875.173,2310.962 1836.471,2281.712 1792.328,2258.293 C1745.779,2233.597 1698.432,2210.402 1651.936,2185.608 C1574.679,2144.411 1509.272,2091.619 1479.950,2004.659 C1471.585,1979.851 1452.781,1976.340 1431.468,1983.997 C1408.065,1992.404 1401.814,2010.549 1412.376,2032.489 C1430.857,2070.878 1447.021,2111.148 1471.065,2145.842 C1488.959,2171.661 1515.046,2194.503 1542.250,2210.635 C1608.959,2250.196 1678.525,2284.921 1746.748,2321.951 C1805.108,2353.627 1822.786,2389.695 1814.743,2454.821 C1811.996,2477.062 1812.410,2499.692 1811.379,2522.145 C1833.534,2515.692 1855.463,2508.216 1877.945,2503.243 C1888.319,2500.947 1907.138,2499.814 1909.529,2504.535 C1923.669,2532.458 1946.576,2542.025 1971.312,2528.761 C1997.827,2514.542 1987.517,2487.653 1980.113,2464.608 C1979.351,2462.236 1979.277,2459.651 1978.656,2457.223 C1964.466,2401.776 1979.646,2360.737 2028.751,2332.479 C2088.415,2298.143 2147.752,2262.485 2210.231,2233.973 C2301.254,2192.434 2349.751,2118.450 2379.034,2028.616 C2382.767,2017.162 2372.197,1992.373 2361.694,1987.275 Z" />
</svg>