<svg 
 xmlns="http://www.w3.org/2000/svg"
 xmlns:xlink="http://www.w3.org/1999/xlink"
 width="11px" height="20px">
<path fill-rule="evenodd"  fill="rgb(239, 90, 50)"
 d="M10.913,15.946 L9.816,17.595 C9.738,17.711 9.696,17.847 9.696,17.988 L9.696,19.991 L3.802,19.991 L3.802,18.001 C3.802,17.852 3.755,17.708 3.669,17.588 L2.511,15.969 C2.411,15.878 2.353,15.750 2.353,15.615 L2.353,12.655 C2.353,11.859 3.001,11.332 3.801,11.327 L3.801,13.420 C3.801,13.605 3.953,13.756 4.139,13.756 C4.327,13.756 4.478,13.605 4.478,13.420 L4.478,6.216 C4.478,5.864 4.766,5.579 5.122,5.579 C5.476,5.579 5.765,5.864 5.765,6.216 L5.765,11.683 C5.765,11.868 5.916,12.018 6.103,12.018 C6.290,12.018 6.441,11.868 6.441,11.683 L6.441,9.821 L7.394,9.956 L7.394,12.157 C7.394,12.342 7.546,12.492 7.733,12.492 C7.920,12.492 8.072,12.342 8.072,12.157 L8.072,10.053 L9.025,10.188 L9.025,12.513 C9.025,12.698 9.176,12.848 9.363,12.848 C9.550,12.848 9.701,12.698 9.701,12.513 L9.701,10.284 L10.375,10.380 C10.730,10.431 10.992,10.731 10.992,11.086 L10.992,15.684 C10.992,15.778 10.965,15.868 10.913,15.946 ZM9.848,7.460 C9.614,7.460 9.424,7.273 9.424,7.041 L9.424,6.070 C9.424,3.726 7.500,1.818 5.135,1.818 C2.770,1.818 0.845,3.726 0.845,6.070 L0.845,7.041 C0.845,7.273 0.655,7.460 0.422,7.460 C0.189,7.460 -0.001,7.273 -0.001,7.041 L-0.001,6.070 C-0.001,3.264 2.303,0.980 5.135,0.980 C7.966,0.980 10.270,3.264 10.270,6.070 L10.270,7.041 C10.270,7.273 10.080,7.460 9.848,7.460 ZM5.134,2.926 C6.883,2.926 8.306,4.337 8.306,6.070 L8.306,7.041 C8.306,7.273 8.117,7.460 7.884,7.460 C7.650,7.460 7.461,7.273 7.461,7.041 L7.461,6.070 C7.461,4.799 6.418,3.765 5.134,3.765 C3.852,3.765 2.808,4.799 2.808,6.070 L2.808,7.041 C2.808,7.273 2.619,7.460 2.386,7.460 C2.152,7.460 1.963,7.273 1.963,7.041 L1.963,6.070 C1.963,4.337 3.385,2.926 5.134,2.926 Z"/>
</svg>