<svg 
 xmlns="http://www.w3.org/2000/svg"
 xmlns:xlink="http://www.w3.org/1999/xlink"
 width="18px" height="18px">
<path fill-rule="evenodd"  fill="rgb(239, 90, 50)"
 d="M15.704,12.799 C15.546,12.959 15.288,12.959 15.129,12.799 C14.971,12.638 14.971,12.379 15.129,12.218 C16.395,10.938 17.062,9.168 16.965,7.358 C16.922,6.593 16.747,5.850 16.443,5.151 C16.129,4.428 15.687,3.775 15.129,3.211 C14.333,2.406 13.339,1.831 12.255,1.549 C12.072,1.500 11.950,1.334 11.950,1.151 C11.950,1.117 11.954,1.082 11.963,1.048 C12.019,0.829 12.240,0.696 12.458,0.753 C13.683,1.072 14.805,1.721 15.704,2.631 C16.334,3.266 16.833,4.004 17.188,4.821 C17.531,5.610 17.729,6.449 17.776,7.313 C17.889,9.355 17.133,11.354 15.704,12.799 ZM14.100,11.177 C13.185,12.102 11.969,12.611 10.676,12.611 C9.592,12.611 8.562,12.252 7.718,11.591 C7.689,11.650 7.649,11.704 7.602,11.752 L6.705,12.659 C7.316,13.163 8.006,13.541 8.764,13.784 C8.978,13.853 9.096,14.084 9.029,14.300 C8.961,14.516 8.731,14.636 8.518,14.568 C7.648,14.288 6.833,13.834 6.128,13.243 L2.027,17.389 C1.773,17.645 1.362,17.645 1.107,17.389 C0.980,17.261 0.917,17.093 0.917,16.924 C0.917,16.756 0.980,16.588 1.107,16.460 L5.210,12.311 C4.116,10.984 3.568,9.350 3.568,7.715 C3.568,5.873 4.260,4.032 5.647,2.630 C5.806,2.470 6.063,2.470 6.222,2.630 C6.380,2.791 6.380,3.051 6.222,3.212 C3.922,5.538 3.777,9.231 5.786,11.729 L6.682,10.823 C6.730,10.774 6.784,10.735 6.842,10.704 C6.188,9.852 5.833,8.811 5.833,7.715 C5.833,6.406 6.337,5.177 7.252,4.253 C8.165,3.327 9.382,2.818 10.676,2.818 C11.969,2.818 13.185,3.327 14.100,4.253 C15.988,6.161 15.988,9.268 14.100,11.177 ZM10.676,4.133 C9.730,4.133 8.840,4.505 8.171,5.182 C7.501,5.859 7.133,6.758 7.133,7.715 C7.133,8.672 7.501,9.571 8.171,10.247 C8.840,10.924 9.730,11.296 10.676,11.296 C11.622,11.296 12.512,10.924 13.180,10.247 C13.871,9.549 14.217,8.632 14.217,7.715 C14.217,6.797 13.871,5.880 13.180,5.182 C12.512,4.505 11.622,4.133 10.676,4.133 Z"/>
</svg>