<?xml version="1.0" encoding="utf-8"?>
<svg version="1.1" id="Layer_1" xmlns="http://www.w3.org/2000/svg" xmlns:xlink="http://www.w3.org/1999/xlink" x="0px" y="0px" viewBox="0 0 514.67 216" style="enable-background:new 0 0 514.67 216;" xml:space="preserve">
	<style>
		@font-face {
			font-family: "Manilla Cellos";
			src: url("../Manilla\ Cellos.otf") format("truetype");
		}

		.st0 {
			fill: #F05B30;
		}

		.st1 {
			font-family: 'Manilla Cellos';
		}

		.st2 {
			font-size: 43.61px;
		}
	</style>
	<g>
		<g>
			<path class="st0" d="M14.51,81.01c2.82-2.57,5.67-5.1,8.47-7.7c9.01-8.4,18.06-16.76,26.97-25.27c3.06-2.93,6.28-4.34,10.67-4.26
			c13.98,0.25,27.97,0.05,41.96,0.04c8.64-0.01,17.28,0.07,25.92-0.04c4.96-0.06,9.34,1.41,13.43,4.29c0,5.52,0,11.09,0,17.05
			c-2.37,0.1-4.33,0.26-6.29,0.27c-21.98,0.03-43.97,0.09-65.95-0.02c-3.73-0.02-6.61,0.88-9.3,3.65
			C53.9,75.72,47.15,82.16,40.41,88.6c-2.34,2.23-3.36,4.7-3.22,7.97c0.22,5.14,0.06,10.29,0.06,16.08
			c2.36,0.14,4.28,0.34,6.19,0.35c30.48,0.03,60.97,0.03,91.45,0.04c1.33,0,2.67,0.05,4,0.01c2.01-0.05,3.24,0.85,3.26,2.89
			c0.05,6.46,0.02,12.92,0.02,19.62c-1.52,0.24-2.62,0.56-3.72,0.56c-40.48,0.02-80.96,0.01-121.43,0c-0.83,0-1.66-0.07-2.49-0.11
			C14.51,117.67,14.51,99.34,14.51,81.01z" />
			<path class="st0" d="M14.51,143c105.55,0.01,211.09,0.01,316.64,0.03c55.77,0.01,111.54,0.04,167.31,0.06
			c0.66,0,1.33-0.06,1.99-0.09c0,4.33,0,8.66,0,12.99c-161.98,0-323.96,0-485.94,0C14.51,151.66,14.51,147.33,14.51,143z
			 M16.83,152.92c2.62,0.14,4.6,0.36,6.57,0.32c6.49-0.13,12.99-0.22,19.48-0.59c3.94-0.22,7.85-1.31,11.78-1.34
			c6.27-0.04,12.54,0.56,18.81,0.72c4.21,0.11,8.43,0,12.65-0.11c4.31-0.11,8.63-0.6,12.93-0.44c3.84,0.14,7.66,1.32,11.49,1.35
			c25.77,0.17,51.54,0.18,77.3,0.19c14.91,0.01,29.82-0.17,44.72-0.11c26.95,0.12,53.9,0.38,80.84,0.53
			c6.49,0.04,13.01-0.51,19.47-0.08c6.59,0.44,12.97-1.44,19.58-0.8c5.75,0.55,11.6-0.04,17.4,0.14
			c11.59,0.37,23.18,1.29,34.66-1.34c0.77-0.18,1.65,0.1,2.48,0.12c6.14,0.14,12.29,0.29,18.43,0.4c4.61,0.08,9.23,0.14,13.84,0.15
			c1.91,0,3.82-0.11,5.73-0.24c2.22-0.16,4.43-0.57,6.64-0.58c15.53-0.05,31.06-0.03,46.49-0.03c1.52-5.25,0.97-6.23-3.62-6.28
			c-5.99-0.07-11.99,0.07-17.99,0.06c-49.13-0.01-98.25-0.07-147.38-0.02c-24.14,0.02-48.29,0.3-72.43,0.32
			c-22.82,0.02-45.63-0.28-68.45-0.22c-36.12,0.09-72.25,0.44-108.37,0.51c-19.47,0.04-38.93-0.3-58.4-0.44
			c-1.58-0.01-3.16,0.18-5.16,0.3C16.5,148.12,16.64,150.21,16.83,152.92z" />
			<path class="st0" d="M191.45,35.01c-6.33,1.8-6.62,1.59-8.39-6.51c-5.85,5.11-13.01,2.57-19.49,3.57
			c-2.3,4.31-2.95,4.51-9.74,2.99c-0.18-6.95-1.1-14,0.67-21.03c28.33,0,56.66,0,84.99,0c4.08,2.17,5.13,6.07,5.48,10.34
			c2.24,0.32,4.31,0.29,6.11,0.96c1.72,0.64,3.09,2.17,4.76,3.03c4.83,2.49,9.35-0.1,9.82-5.48c0.25-2.95,0.55-5.9,0.83-8.85
			c30.33,0,60.66,0,90.99,0c0.13,2.44,0.27,4.88,0.42,7.57c-2.88,0.55-5.27,1.01-8.21,1.58c-0.14,2.42-0.33,4.84-0.41,7.26
			c-0.18,5.24-0.5,5.56-5.87,5.37c-0.8-0.03-1.59-0.22-2.77-0.39c-0.42-4.04-0.83-7.94-1.24-11.96c-8.48-2.02-16.67-1.11-24.8-0.82
			c-0.53,5.04,0.07,5.89,4.3,6.07c3.57,0.16,7.16,0.16,10.73,0.23c-0.01,0.42-0.02,0.85-0.03,1.27c-5.18,0-10.35,0.06-15.53-0.03
			c-2.07-0.04-2.98-1.6-2.85-3.41c0.21-2.84,0.77-5.65,1.31-9.36c-1.2,1.65-1.97,2.7-2.74,3.76c-0.49-1.31-0.98-2.62-1.51-4.05
			c-0.6,0.16-1.41,0.22-1.43,0.4c-0.55,4.01-2.9,7.62-1.61,12.09c0.95,3.3,2.8,5.12,5.73,5.3c5.63,0.35,11.31,0.16,16.96,0.04
			c0.77-0.02,1.52-0.86,2.69-0.55c-0.97,0.48-1.91,1.3-2.91,1.37c-7.23,0.56-14.52,2.31-21.59-1.08c-0.85-0.41-2.27-0.09-3.26,0.3
			c-7.96,3.08-16.04,1.85-24.08,0.64c-1.33-0.2-2.5-1.52-3.28-2.02c-10.52,3.63-20.55,4.39-30.96-0.69
			c-5.94,4.79-13.26,3.56-20.43,3.32c-0.04-0.37-0.07-0.74-0.11-1.11c3.42,0,6.86-0.15,10.27,0.03c6.53,0.34,8.66-2.43,8.73-10.3
			c0.02-1.78-0.52-3.57-0.91-6c-4.65-1.75-9.6-3.38-14.86-0.67c-1.74,0.9-2.98,0.51-4.56-0.48c-3.46-2.18-6.86-0.58-6.88,3.46
			c-0.02,4.25,0.76,8.5,1.21,12.96c-3.18-0.25-6.49,3.5-10.45,0.87l-0.08,0.05c1.91-0.1,3.83-0.21,6.43-0.35
			c-0.5-2.35-0.87-4.04-1.22-5.73c-0.18-0.87-0.74-2.01-0.39-2.58c2.54-4.1,0.29-6.58-1.67-8.22c-5.89,0.49-10.77,0.89-15.65,1.3
			c1.85,0.63,3.64,0.54,5.42,0.65c1.64,0.11,3.36,0.19,4.87,0.75c0.86,0.32,1.38,1.56,2.05,2.39c-0.86,0.64-1.64,1.5-2.61,1.86
			c-0.88,0.32-2.01,0.29-2.96,0.09c-3.41-0.72-8.39,2.51-9.64-3.76c-0.02-0.09-0.32-0.22-0.42-0.18c-2.64,1.32-3.1-1.92-4.77-2.77
			c-0.21,3.83-0.55,7.23-0.55,10.62c0,6,0.09,6,6.18,5.93L191.45,35.01z M301.43,17.22c-0.83,0.57-1.55,1.07-2.26,1.56
			c-1.68-3.36-4.69-1.08-6.95-1.35c-4.82-0.59-9.76-0.18-14.62-0.18c-0.28,2.03-0.67,4.11-0.81,6.21c-0.14,2.15-0.12,4.33-0.02,6.49
			c0.18,3.93,1.22,5.06,5.11,5.14c5.33,0.11,10.66,0.05,15.98,0c1.61-0.02,3.57,0.29,3.71-2.2c0.15-2.7-1.74-2.78-3.69-2.77
			c-4.65,0.01-9.29,0-14.46,0c-0.18-1.7-0.33-3.12-0.56-5.26c5.5,4.75,10.87,2.49,15.92,2.87c0.17-0.83,0.26-1,0.22-1.14
			c-0.8-2.91-2.85-3.61-5.68-3.71c-3.32-0.12-6.83,0.94-11.21-1.35c2.27-0.53,3.44-1,4.63-1.04c3.81-0.13,7.63-0.08,11.45-0.12
			C300.14,20.33,301.9,20.06,301.43,17.22z M161.21,25.31c0.59-1.92,0.62-3.75,1.54-4.55c0.98-0.85,2.81-0.72,4.27-1.01
			c-0.05-0.26-0.1-0.52-0.15-0.78c-3.68,0.47-7.35,0.93-11.03,1.4c-0.17,2.29-0.45,4.59-0.47,6.88c-0.02,2.44,0.2,4.88,0.3,7.23
			c4.93,0.69,4.93,0.69,6.13-6.62c3.96,2.21,4.87,2.35,12.8,1.97c6.27-0.3,8.07-2.37,7.63-8.58c-3.7-2.19-7.46-3.02-11.39-0.99
			c0.78,0.34,1.59,0.27,2.38,0.36c1.68,0.18,3.13,1.03,2.6,2.81c-0.25,0.85-1.88,1.74-2.93,1.81
			C169.31,25.45,165.7,25.31,161.21,25.31z M246.39,26.63c0.3,5.4,2.31,8.17,6.58,8.41c4.62,0.26,9.28,0.22,13.91-0.03
			c3.98-0.22,6.15-2.38,6.39-6.27c0.24-3.73,0.05-7.48,0.05-11.41c-2.14,0.97-3.9,1.76-5.78,2.61c-0.12,2.3-0.28,4.44-0.33,6.58
			c-0.05,2.41-1.05,3.69-3.62,3.59c-2.48-0.1-4.99,0.14-7.45-0.1c-1.14-0.11-2.78-0.76-3.2-1.64
			C251.31,24.85,248.91,25.91,246.39,26.63z M347.48,35.11c0-5.43,0-9.96,0-14.25c-1.83,0.13-3.52,0.24-5.57,0.38
			c0,4.17,0,8.52,0,13.41C343.69,34.81,345.21,34.93,347.48,35.11z" />
			<path class="st0" d="M499.32,114.14c0,7.55,0,14.33,0,21.56c-44.47,0-88.7,0-133.46,0c-0.15-1.33-0.44-2.75-0.44-4.17
			c-0.03-15.66,0.01-31.33-0.06-46.99c-0.01-2.53,0.77-4.37,2.63-6.12c11.02-10.4,22.01-20.84,32.86-31.43
			c2.34-2.28,4.75-3.36,7.95-3.3c8.49,0.15,16.99,0.13,25.49,0.22c5.5,0.06,10.54,1.13,15.91,3.14c9.51,3.57,13.95,12.12,21.5,17.39
			c-0.09,0.41-0.18,0.82-0.27,1.23c-1.32,0.24-2.65,0.69-3.97,0.7c-14.82,0.09-29.64,0.11-44.46,0.15c-0.83,0-1.67-0.01-2.5-0.05
			c-3.96-0.2-7.19,0.77-10.23,3.83c-6.09,6.13-12.68,11.78-19.17,17.51c-2.03,1.8-3.01,3.76-2.92,6.5
			c0.15,4.83,0.11,9.66-0.01,14.49c-0.08,3.15,1.26,4.61,4.41,4.62c7.49,0.03,14.98,0.17,22.48,0.18
			c25.82,0.05,51.64,0.06,77.47,0.12C494.62,113.73,496.73,113.98,499.32,114.14z" />
			<path class="st0" d="M335.02,135.8c-7.18,0-13.93,0-21.3,0c-0.17-2.11-0.49-4.18-0.49-6.25c-0.02-18.32,0.01-36.63,0.02-54.95
			c0-1.33,0.06-2.67-0.07-3.99c-0.37-3.52-1.42-4.77-4.97-4.92c-5.65-0.23-11.31-0.12-16.97-0.17c-3.66-0.03-7.32-0.24-10.97-0.07
			c-3.36,0.16-4.47-1.64-4.52-4.52c-0.07-4.48-0.02-8.96,0.82-13.76c0.73,1.48,1.45,2.96,2.42,4.93c1.11-1.9,2.1-3.61,3.25-5.59
			c-1.74-0.82-3.04-1.44-5.31-2.51c39.6,0,78.18,0,116.76,0c0.17,0.37,0.34,0.74,0.51,1.11c-0.99,1.21-1.88,2.51-2.97,3.61
			c-4.2,4.28-8.63,8.34-12.64,12.78c-2.96,3.28-6.24,4.32-10.6,4.15c-8.64-0.33-17.31-0.28-25.96-0.04
			c-6.43,0.18-6.58,0.66-6.57,7.08c0.02,19.15-0.01,38.3-0.05,57.45C335.38,131.93,335.16,133.71,335.02,135.8z M349.35,45.24
			c-14.22,0-27.31,0-41.13,0c2.04,2.13,3.43,2.91,5.75,1.93c1.74-0.73,3.83-0.99,5.74-0.91c4.78,0.2,9.56,0.62,14.31,1.15
			c1.01,0.11,1.94,1.03,1.97,1.05c2.83-0.33,5.14-1.22,7.02-0.66C345.69,48.61,346.96,47.41,349.35,45.24z" />
			<path class="st0" d="M147.76,135.7c-1.29-4.93-1.42-86.01-0.1-91.45c6.94,0,14,0,21.94,0c0.91,22.92,0.41,45.59,0.86,69.08
			c24,0,47.38,0,70.41,0c1.71,4.47,1.98,15.71,0.75,22.37C210.49,135.7,179.3,135.7,147.76,135.7z" />
			<path class="st0" d="M45.11,99.73c6.67-6.8,13.03-13.37,19.49-19.83c1.93-1.93,4.32-2.74,7.21-2.73
			c21.47,0.09,42.95,0.01,64.42,0.03c1.78,0,3.55,0.32,5.71,0.53c0,7.61,0,14.84,0,22.01C136.95,101.22,50.41,101.22,45.11,99.73z" />
			<path class="st0" d="M498.6,99.49c-3.69,1.78-97.23,2.3-103.85,0.59c0.75-0.98,1.32-1.91,2.07-2.66
			c5.79-5.74,11.63-11.44,17.44-17.16c2.11-2.08,4.47-3.1,7.56-3.07c17.15,0.12,34.3,0.12,51.45,0.03c3.21-0.02,5.75,0.8,7.97,3.21
			c5.18,5.62,10.54,11.09,15.79,16.65C497.68,97.76,498.07,98.66,498.6,99.49z" />
			<path class="st0" d="M269.72,47.79c0,10.77,0,21.08,0,31.38c0.01,17.32,0.05,34.64,0.02,51.95c-0.01,4.98-0.12,5.06-5.01,5.16
			c-4.16,0.09-8.33,0.1-12.49,0.03c-4.72-0.08-5.02-0.33-5.04-5.24c-0.07-16.49-0.04-32.97-0.04-49.46
			c0-10.16-0.01-20.32,0.02-30.47c0.01-2.14,0.18-4.28,0.28-6.68c6.95-2.26,13.68,0.23,20.38,0.38c-5.81,0-11.61,0-17.94,0
			c-0.13,2.18-0.23,3.92-0.34,5.91C255.96,45.84,262.62,45.64,269.72,47.79z" />
			<path class="st0" d="M431.11,32.17c-4.46,1.26-8.77,0.72-12.55-1.24c-4.96-2.57-10.25-2.08-15.41-2.49
			c-7.75-0.62-15.55-0.53-23.32-0.9c-4.46-0.21-8.9-0.75-13.5-1.15c-0.17,2.67-0.31,5.03-0.51,8.29c8.15,0,16.04,0.01,23.93,0
			c7.98-0.01,15.97,0.02,23.95-0.1c7.67-0.11,15.35-0.73,23.01-0.48c0.02,0.61,0.04,1.21,0.06,1.82c-1.85,0.12-3.71,0.33-5.56,0.34
			c-19.8,0.07-39.6,0.1-59.4,0.16c-8.08,0.02-8.8-0.74-7.98-8.85c0.07-0.65,0.31-1.27,0.6-2.43c1.69-0.16,3.44-0.45,5.19-0.46
			c18.13-0.04,36.27,0.19,54.4-0.17c5.78-0.11,8.75,2.6,11.01,7.37c-3.34-2.63-6.38-6.63-11.45-2
			C426.35,30.73,428.73,31.45,431.11,32.17z" />
			<path class="st0" d="M140.55,34.47c-2.4-2.01-3.75-3.52-5.43-4.42c-1.49-0.8-3.38-1.37-5.03-1.23c-3.33,0.29-6.45,0.52-9.74-0.79
			c-2.03-0.81-4.59-0.69-6.84-0.44c-3.4,0.39-6.74,1.28-10.12,1.91c-0.79,0.15-1.62,0.13-2.44,0.13c-2.55,0.02-5.09,0.01-8.83,0.01
			c-2.18-2.14-6.23-1.89-10.19-1.37c-2.05,0.27-3.59,0.27-4.68-2.29c1.04-0.32,2.02-0.9,3-0.9c19.98-0.02,39.96,0.02,59.94,0.07
			c0.47,0,0.94,0.25,1.88,0.52c0,3.12,0,6.32,0,10c-24.39,0-48.68,0-72.97,0c0-0.4-0.01-0.8-0.01-1.2
			C92.73,34.47,116.36,34.47,140.55,34.47z" />
			<path class="st0" d="M229.41,30.2c-0.67,0-1.33,0-2,0c-4.79-0.01-7.46-4.18-5.21-8.36c0.44-0.81,1.77-1.52,2.74-1.6
			c2.48-0.22,5-0.18,7.49-0.03c3.52,0.22,4.8,1.63,4.85,4.99c0.04,3.14-1.53,4.75-4.87,4.94c-1,0.06-2,0.01-3,0.01
			C229.41,30.16,229.41,30.18,229.41,30.2z M229.85,22.45c-2.24-0.17-4.17,0.57-4.24,3.03c-0.06,2.08,1.5,3.21,3.67,3.16
			c2.12-0.05,4.11-0.37,4.12-3.13C233.41,23.19,232.09,22.26,229.85,22.45z" />
			<path class="st0" d="M206.53,35.01c-5.66-5.16-9.82-5.16-15.08,0l0.08,0.05c0.13-2.49,0.26-4.97,0.46-8.74
			c4.11,6.28,10.03,2.08,14.46,4.86c0,1.29,0,2.59,0,3.88L206.53,35.01z" />
		</g>
	</g>
	<text transform="matrix(1.1332 0 0 1 32.2924 197.5189)" class="st0 st1 st2">COMPANION APP</text>
</svg>