<svg 
 xmlns="http://www.w3.org/2000/svg"
 xmlns:xlink="http://www.w3.org/1999/xlink"
 width="419px" height="495px">
<path fill-rule="evenodd"  fill="#f05b30"
 d="M54.038,211.964 C55.722,223.211 56.608,234.777 56.608,246.584 C56.608,258.896 55.648,270.946 53.821,282.646 L0.487,247.377 L54.038,211.964 ZM115.718,246.592 C115.718,222.322 112.937,198.810 107.755,176.441 L162.315,140.361 C171.764,173.790 176.894,209.492 176.894,246.591 C176.894,284.179 171.634,320.338 161.944,354.147 L107.438,318.102 C112.825,295.327 115.718,271.353 115.718,246.592 ZM237.410,246.591 C237.410,196.823 229.782,149.126 215.815,104.982 L268.669,70.030 C287.280,124.686 297.510,184.251 297.510,246.591 C297.510,309.418 287.109,369.421 268.221,424.427 L215.392,389.492 C229.621,344.986 237.410,296.846 237.410,246.591 ZM357.828,246.591 C357.828,171.637 344.904,100.195 321.538,35.069 L374.402,0.110 C402.595,75.670 418.255,159.002 418.255,246.591 C418.255,334.667 402.419,418.436 373.928,494.330 L321.089,459.388 C344.744,393.921 357.828,322.032 357.828,246.591 Z"/>
</svg>