<svg 
 xmlns="http://www.w3.org/2000/svg"
 xmlns:xlink="http://www.w3.org/1999/xlink"
 width="468px" height="301px">
<path fill-rule="evenodd"  fill="#f05b30"
 d="M371.500,300.1000 C371.500,300.1000 274.1000,149.795 274.1000,96.500 C274.1000,43.205 318.205,0.000 371.500,0.000 C424.795,0.000 468.000,43.205 468.000,96.500 C468.000,149.795 371.500,300.1000 371.500,300.1000 ZM371.500,43.797 C342.393,43.797 318.797,67.393 318.797,96.500 C318.797,125.607 342.393,149.203 371.500,149.203 C400.607,149.203 424.203,125.607 424.203,96.500 C424.203,67.393 400.607,43.797 371.500,43.797 ZM187.743,273.857 C201.533,235.693 209.160,193.785 209.160,149.806 C209.160,106.111 201.626,64.464 188.004,26.499 L218.822,6.119 C235.257,50.168 244.386,98.746 244.386,149.806 C244.386,201.150 235.154,249.984 218.545,294.226 L187.743,273.857 ZM126.127,233.110 C134.422,207.166 138.962,179.103 138.962,149.806 C138.962,120.794 134.515,92.988 126.373,67.255 L157.185,46.879 C168.034,78.741 173.997,113.465 173.997,149.806 C173.997,186.431 167.934,221.410 156.923,253.476 L126.127,233.110 ZM63.194,191.494 C66.335,178.217 68.021,164.241 68.021,149.807 C68.021,135.659 66.400,121.952 63.379,108.912 L95.185,87.879 C100.693,107.367 103.684,128.179 103.684,149.806 C103.684,171.718 100.618,192.797 94.969,212.506 L63.194,191.494 ZM0.847,150.264 L32.065,129.620 C33.046,136.177 33.563,142.919 33.563,149.802 C33.563,156.979 33.003,164.004 31.938,170.824 L0.847,150.264 Z"/>
</svg>