<svg 
 xmlns="http://www.w3.org/2000/svg"
 xmlns:xlink="http://www.w3.org/1999/xlink"
 width="428px" height="428px">
<path fill-rule="evenodd"  fill="#f05b30"
 d="M417.402,185.078 L383.865,198.165 C382.703,198.619 381.520,198.912 380.335,199.084 C380.771,203.999 381.000,208.972 381.000,213.1000 C381.000,221.047 380.558,227.991 379.711,234.809 C380.977,235.025 382.239,235.377 383.469,235.917 L416.437,250.377 C424.529,253.926 428.212,263.364 424.663,271.456 L399.357,329.151 C395.808,337.243 386.370,340.926 378.278,337.376 L345.310,322.916 C344.164,322.414 343.118,321.782 342.157,321.065 C334.500,330.221 325.880,338.544 316.454,345.879 C317.200,346.930 317.845,348.075 318.335,349.330 L331.422,382.867 C334.634,391.099 330.565,400.376 322.333,403.589 L263.644,426.491 C255.412,429.704 246.134,425.634 242.922,417.402 L229.835,383.865 C229.381,382.703 229.088,381.520 228.916,380.335 C224.001,380.771 219.028,381.000 213.1000,381.000 C206.953,381.000 200.009,380.558 193.191,379.711 C192.975,380.977 192.623,382.239 192.083,383.469 L177.623,416.437 C174.074,424.529 164.636,428.212 156.544,424.663 L98.849,399.357 C90.757,395.808 87.074,386.370 90.624,378.278 L105.084,345.310 C105.586,344.164 106.218,343.118 106.935,342.157 C97.779,334.500 89.456,325.880 82.121,316.454 C81.070,317.200 79.925,317.845 78.670,318.335 L45.133,331.422 C36.901,334.634 27.624,330.565 24.411,322.333 L1.509,263.644 C-1.704,255.412 2.366,246.134 10.598,242.922 L44.135,229.835 C45.297,229.381 46.480,229.088 47.665,228.916 C47.229,224.001 46.1000,219.028 46.1000,213.1000 C46.1000,206.953 47.442,200.009 48.289,193.191 C47.023,192.975 45.761,192.623 44.531,192.083 L11.563,177.623 C3.471,174.074 -0.212,164.636 3.337,156.544 L28.643,98.849 C32.192,90.757 41.630,87.074 49.722,90.624 L82.690,105.084 C83.836,105.586 84.882,106.218 85.843,106.935 C93.500,97.779 102.120,89.456 111.546,82.121 C110.800,81.070 110.155,79.925 109.665,78.670 L96.578,45.133 C93.366,36.901 97.435,27.624 105.667,24.411 L164.356,1.509 C172.588,-1.704 181.866,2.366 185.078,10.598 L198.165,44.135 C198.619,45.297 198.912,46.480 199.084,47.665 C203.999,47.229 208.972,46.1000 213.1000,46.1000 C221.047,46.1000 227.991,47.442 234.809,48.289 C235.025,47.023 235.377,45.761 235.917,44.531 L250.377,11.563 C253.926,3.471 263.364,-0.212 271.456,3.337 L329.151,28.643 C337.243,32.192 340.926,41.630 337.376,49.722 L322.916,82.690 C322.414,83.836 321.782,84.882 321.065,85.843 C330.221,93.500 338.544,102.120 345.879,111.546 C346.930,110.800 348.075,110.155 349.330,109.665 L382.867,96.578 C391.099,93.366 400.376,97.435 403.589,105.667 L426.491,164.356 C429.704,172.588 425.634,181.866 417.402,185.078 ZM213.1000,90.132 C145.590,90.132 90.132,145.590 90.132,213.1000 C90.132,282.410 145.590,337.868 213.1000,337.868 C282.410,337.868 337.868,282.410 337.868,213.1000 C337.868,145.590 282.410,90.132 213.1000,90.132 Z"/>
</svg>