<svg 
 xmlns="http://www.w3.org/2000/svg"
 xmlns:xlink="http://www.w3.org/1999/xlink"
 width="351px" height="155px">
<path fill-rule="evenodd"  fill="#f05b30"
 d="M254.1000,155.000 L96.000,155.000 C44.658,155.000 2.730,114.695 0.129,63.1000 L23.511,63.1000 C29.266,104.221 63.842,135.143 105.654,135.143 L245.346,135.143 C287.158,135.143 321.734,104.221 327.489,63.1000 L350.871,63.1000 C348.270,114.695 306.342,155.000 254.1000,155.000 ZM232.1000,45.1000 C220.297,45.1000 210.000,35.703 210.000,22.1000 C210.000,10.297 220.297,0.000 232.1000,0.000 C245.703,0.000 256.000,10.297 256.000,22.1000 C256.000,35.703 245.703,45.1000 232.1000,45.1000 ZM118.1000,45.1000 C106.297,45.1000 96.000,35.703 96.000,22.1000 C96.000,10.297 106.297,0.000 118.1000,0.000 C131.703,0.000 141.1000,10.297 141.1000,22.1000 C141.1000,35.703 131.703,45.1000 118.1000,45.1000 Z"/>
</svg>