<svg 
 xmlns="http://www.w3.org/2000/svg"
 xmlns:xlink="http://www.w3.org/1999/xlink"
 width="330px" height="300px">
<path fill-rule="evenodd"  fill="#222223"
 d="M198.006,300.000 C196.717,295.904 201.407,296.315 203.876,295.072 C205.774,294.117 207.637,293.094 209.515,292.102 C207.486,291.377 205.454,290.660 203.429,289.924 C200.198,288.751 196.973,287.563 193.745,286.382 C197.549,280.966 191.825,282.374 189.959,281.434 C187.215,280.050 184.234,279.028 181.248,278.261 C178.977,277.677 176.542,277.729 174.179,277.498 C174.907,280.311 174.912,283.645 176.502,285.836 C180.785,291.743 180.283,294.530 173.086,295.243 C162.562,296.287 151.945,296.395 141.368,296.902 C141.308,296.632 141.248,296.362 141.188,296.092 C138.624,296.716 133.807,297.520 133.840,297.935 C133.897,298.645 133.987,299.335 134.111,300.000 L75.310,300.000 C75.182,299.705 75.039,299.440 74.867,299.255 C67.809,291.676 73.565,291.095 79.367,290.281 C80.391,290.137 81.427,290.019 82.423,289.757 C83.116,289.575 83.749,289.167 84.409,288.860 C83.751,288.574 83.115,288.106 82.434,288.029 C75.026,287.182 67.612,286.396 57.474,285.298 C56.705,286.173 53.561,288.252 52.953,290.908 C52.454,293.089 54.817,296.043 56.201,298.491 C56.490,299.001 56.800,299.505 57.126,300.000 L34.640,300.000 C35.293,299.069 35.767,297.890 35.573,297.275 C34.984,295.412 33.295,292.804 31.711,292.527 C22.840,290.975 13.862,290.024 4.920,288.873 C3.457,288.685 1.991,288.521 0.526,288.345 C1.494,287.037 2.190,285.294 3.476,284.493 C9.631,280.660 15.661,276.429 22.267,273.554 C34.392,268.276 45.801,262.421 47.196,247.544 C48.336,235.379 47.228,222.934 49.153,210.938 C50.370,203.355 46.245,202.576 41.891,199.346 C30.464,190.870 26.936,178.532 27.917,164.722 C28.005,163.483 28.951,161.529 28.479,161.141 C16.177,151.022 19.808,136.954 20.458,124.462 C21.168,110.811 23.791,97.002 27.652,83.869 C29.935,76.106 36.292,69.556 40.704,62.391 C45.336,54.872 49.772,47.233 54.437,39.735 C55.362,38.248 56.837,37.040 58.228,35.911 C67.791,28.149 77.265,20.269 87.071,12.822 C90.055,10.556 94.850,4.444 96.409,14.459 C96.577,15.546 99.080,16.656 100.679,17.074 C110.483,19.634 115.717,12.486 121.517,6.868 C126.285,2.249 129.759,-4.878 136.553,5.737 C139.253,9.957 146.162,12.916 151.500,13.545 C155.162,13.976 159.491,9.515 163.393,7.038 C173.320,0.737 172.952,0.844 177.220,11.784 C178.820,15.886 181.866,20.686 185.537,22.355 C188.944,23.905 194.087,21.840 198.420,21.095 C200.434,20.749 202.307,19.292 204.297,19.164 C207.862,18.935 212.822,17.956 214.716,19.812 C217.138,22.185 218.169,27.154 217.828,30.823 C217.483,34.525 217.564,35.273 221.292,37.216 C226.426,39.892 235.471,39.978 234.356,49.684 C234.293,50.231 235.163,51.434 235.368,51.384 C245.021,49.035 245.141,59.065 249.592,63.056 C253.160,66.255 255.323,67.129 259.090,65.221 C266.630,61.402 271.606,62.970 274.985,71.219 C276.654,75.294 279.979,79.044 283.388,81.976 C288.600,86.457 296.414,88.637 292.322,98.642 C291.604,100.397 297.393,104.733 300.074,107.962 C302.305,110.650 306.741,114.304 306.108,116.068 C303.873,122.294 308.372,122.900 311.600,125.140 C316.413,128.480 321.118,132.007 325.565,135.809 C326.504,136.611 326.130,138.941 326.361,140.567 C325.011,140.116 323.583,139.815 322.335,139.168 C321.204,138.582 320.366,137.411 319.222,136.877 C317.992,136.303 316.555,136.170 315.208,135.845 C315.473,137.048 315.471,138.401 316.048,139.431 C320.098,146.659 324.375,153.761 328.309,161.049 C329.143,162.596 328.860,164.743 329.092,166.614 C327.473,166.015 325.710,165.652 324.259,164.775 C318.273,161.159 312.448,157.272 306.407,153.750 C304.849,152.843 302.723,152.906 300.858,152.523 C301.299,154.405 301.466,156.410 302.244,158.140 C303.410,160.730 305.005,163.128 306.418,165.608 C303.048,164.078 298.682,163.383 296.530,160.830 C292.939,156.570 290.319,151.308 288.130,146.115 C286.247,141.649 284.660,139.732 279.723,142.647 C277.635,143.880 274.391,143.162 271.673,143.330 C272.019,141.085 273.146,138.594 272.533,136.651 C271.534,133.487 270.050,129.496 267.527,128.110 C265.625,127.065 259.632,128.928 259.155,130.567 C256.793,138.678 252.163,136.382 249.277,132.434 C242.937,123.761 236.062,117.962 224.465,121.024 C223.954,121.159 220.876,116.480 221.463,115.064 C224.213,108.429 227.597,102.016 231.219,95.795 C233.617,91.677 233.483,90.165 228.427,88.283 C223.466,86.435 214.649,88.470 215.221,78.640 C215.242,78.264 214.683,77.528 214.358,77.507 C202.514,76.735 193.518,68.924 183.017,64.846 C178.085,62.931 173.860,60.546 167.921,62.656 C165.406,63.550 160.867,60.342 157.924,58.111 C153.216,54.543 149.664,48.500 144.515,46.747 C139.681,45.101 133.073,46.730 127.855,48.605 C121.214,50.992 115.189,55.085 108.884,58.414 C108.214,58.768 106.987,59.348 106.789,59.129 C98.630,50.134 95.655,62.216 89.985,63.224 C80.156,64.973 81.192,76.886 73.629,81.041 C72.529,81.645 73.198,85.307 72.896,87.534 C71.843,95.323 70.593,103.089 69.700,110.896 C69.404,113.490 69.598,116.267 70.203,118.810 C71.416,123.906 75.129,129.403 74.044,133.812 C72.495,140.104 74.871,142.965 79.409,144.141 C88.408,146.474 89.882,154.930 89.616,160.498 C89.003,173.354 97.974,167.920 102.015,167.323 C106.322,166.686 108.923,165.183 111.258,170.130 C111.876,171.439 115.201,172.182 117.188,172.021 C125.050,171.382 131.602,173.434 135.880,180.323 C138.587,184.682 141.502,184.266 145.636,182.347 C158.750,176.257 162.642,177.511 170.439,189.298 C171.090,190.283 172.523,191.901 172.942,191.720 C179.918,188.715 188.016,186.814 193.387,181.947 C200.597,175.412 209.634,173.151 217.821,179.257 C218.644,179.871 219.304,180.698 220.052,181.414 C225.253,186.391 229.800,194.076 235.855,195.537 C241.325,196.857 248.377,191.183 254.848,188.923 C275.366,181.757 296.323,193.594 301.696,214.496 C303.251,220.544 303.482,225.216 300.609,231.103 C298.153,236.135 299.955,243.189 297.629,248.340 C293.992,256.398 291.565,263.476 298.124,271.069 C298.808,271.861 297.778,275.713 297.110,275.837 C290.181,277.131 283.242,280.629 276.185,275.702 C271.783,272.629 267.068,269.846 262.147,267.739 C259.846,266.754 255.211,266.599 254.252,267.936 C251.142,272.276 248.614,277.292 247.081,282.411 C245.914,286.306 247.316,290.936 246.300,294.914 C245.767,296.999 245.730,298.681 246.095,300.000 L198.006,300.000 ZM86.374,246.776 C82.741,249.330 77.737,239.618 74.395,248.521 C71.841,255.323 67.799,261.595 64.164,267.958 C61.015,273.467 60.411,277.268 69.144,277.465 C70.745,276.628 73.029,276.204 73.833,274.883 C78.168,267.753 82.298,260.484 86.112,253.064 C86.983,251.369 86.327,248.893 86.374,246.776 ZM101.396,263.816 C100.006,266.907 98.527,269.963 97.307,273.119 C97.077,273.714 97.885,274.708 98.214,275.518 C99.900,272.458 101.586,269.398 103.420,266.071 C102.560,265.113 101.978,264.465 101.396,263.816 ZM147.889,277.111 C145.710,276.215 143.392,274.347 141.382,274.633 C137.631,275.167 134.059,276.952 130.413,278.217 C132.998,280.632 135.448,284.791 138.204,285.003 C141.373,285.247 144.811,281.998 148.133,280.266 C148.052,279.215 147.970,278.163 147.889,277.111 ZM210.570,281.551 C209.129,282.136 208.008,282.592 206.887,283.048 C208.086,283.297 209.291,283.755 210.483,283.724 C211.305,283.702 212.108,283.001 212.920,282.604 C212.103,282.238 211.286,281.872 210.570,281.551 Z"/>
</svg>