<svg 
 xmlns="http://www.w3.org/2000/svg"
 xmlns:xlink="http://www.w3.org/1999/xlink"
 width="435px" height="408px">
<path fill-rule="evenodd"  fill="#222223"
 d="M433.362,257.390 C432.614,261.194 424.895,264.571 419.724,266.339 C413.013,268.634 404.201,263.480 398.982,272.156 C398.529,272.908 396.026,272.366 394.490,272.547 C389.496,273.138 380.206,269.145 385.625,281.092 C386.105,282.147 381.876,286.906 379.266,287.511 C366.764,290.408 354.137,293.853 341.422,294.499 C322.383,295.465 302.930,296.839 284.836,287.896 C283.908,287.437 281.417,289.069 280.262,290.297 C274.563,296.363 269.552,303.169 263.346,308.637 C258.511,312.897 252.261,315.552 246.679,318.983 C245.649,319.616 244.808,320.555 243.880,321.352 C244.917,322.001 245.882,323.026 247.002,323.238 C254.114,324.586 261.262,325.758 268.399,326.982 C271.938,327.589 275.613,327.779 278.988,328.883 C283.381,330.321 287.583,333.321 291.070,327.442 C291.444,326.811 293.136,326.372 293.919,326.657 C303.008,329.967 312.318,332.854 321.015,337.009 C331.417,341.978 341.772,347.359 351.218,353.898 C358.405,358.875 364.664,365.517 370.185,372.345 C371.735,374.262 369.652,379.639 368.235,383.010 C367.907,383.789 363.417,382.471 360.948,382.832 C359.230,383.084 357.019,384.162 356.198,385.557 C353.633,389.914 351.042,389.978 347.529,386.774 C345.934,385.319 343.924,384.319 342.102,383.112 C341.880,384.840 340.839,387.254 341.599,388.156 C343.383,390.270 345.877,391.979 348.404,393.178 C349.370,393.637 351.203,392.229 352.656,391.714 C361.523,388.570 369.941,395.029 368.322,404.351 C368.053,405.900 367.969,407.102 368.092,407.1000 L255.991,407.1000 C256.008,407.952 256.027,407.910 256.045,407.861 C257.572,403.635 255.507,395.861 264.054,395.943 C264.382,395.946 264.780,395.281 265.002,394.853 C265.054,394.755 264.558,394.217 264.236,394.105 C256.813,391.520 256.995,391.558 258.509,382.776 C259.391,377.653 261.880,369.698 259.603,367.770 C254.419,363.381 246.927,361.172 240.028,359.469 C231.976,357.481 221.993,362.527 216.183,352.521 C215.793,351.849 214.358,351.822 213.457,351.396 C207.508,348.585 201.352,346.119 195.690,342.813 C189.741,339.339 189.410,334.023 192.383,328.111 C195.349,322.214 197.833,316.068 200.948,310.254 C202.719,306.946 204.928,303.653 207.660,301.127 C211.403,297.666 216.022,295.166 219.923,291.852 C228.514,284.552 228.675,276.358 220.380,273.462 C218.408,272.774 215.945,273.448 213.711,273.552 C207.025,273.864 199.457,276.359 193.845,274.069 C183.325,269.775 177.870,277.195 171.511,281.429 C164.733,285.941 158.774,286.601 152.925,280.691 C151.681,279.435 149.401,279.239 147.658,278.427 C144.837,277.110 141.989,275.818 139.314,274.243 C138.273,273.631 137.860,271.755 136.825,271.382 C135.216,270.804 133.321,271.018 131.547,270.896 C133.376,273.221 135.090,275.650 137.090,277.819 C137.901,278.698 139.295,279.105 140.488,279.562 C149.730,283.106 154.823,302.011 148.990,309.850 C141.537,319.867 134.591,330.258 127.330,340.419 C116.266,355.900 118.150,370.687 129.270,385.254 C134.010,391.466 132.333,394.948 124.793,395.889 C123.237,396.084 121.310,396.841 120.482,397.999 C119.987,398.694 120.875,401.370 121.859,401.957 C124.818,403.723 126.651,405.833 127.736,407.1000 L32.597,407.1000 C33.246,407.328 33.912,406.671 34.500,405.951 C34.547,405.893 34.037,405.380 33.029,404.174 C32.514,405.136 31.955,405.965 31.655,406.879 C31.572,407.130 32.194,407.612 32.527,407.1000 L17.887,407.1000 C18.891,407.289 19.961,406.319 21.205,405.499 C19.540,402.742 18.611,401.202 17.682,399.662 C14.733,402.006 11.785,404.351 8.837,406.695 C9.839,407.065 10.843,407.562 11.847,407.1000 L0.625,407.1000 C1.220,402.736 1.290,397.377 2.401,392.234 C4.851,380.886 10.734,372.077 21.725,366.635 C29.983,362.547 35.978,355.787 42.169,348.622 C48.067,341.798 59.048,339.455 67.575,334.746 C73.280,331.595 78.826,328.048 84.005,324.104 C86.867,321.925 87.280,319.934 82.439,318.106 C65.483,311.704 61.913,301.340 69.762,284.812 C71.740,280.646 72.917,276.075 74.196,271.613 C75.657,266.516 75.832,261.229 83.211,259.794 C85.021,259.442 85.599,251.843 86.409,247.514 C87.882,239.643 89.326,231.751 90.270,223.808 C90.500,221.873 89.205,219.295 87.810,217.720 C84.372,213.837 79.808,210.824 76.876,206.639 C68.801,195.112 60.939,183.565 47.955,176.776 C47.194,176.378 46.873,173.078 47.251,172.884 C53.029,169.925 49.305,168.682 46.685,166.173 C44.236,163.828 34.434,163.467 42.746,156.438 C42.965,156.253 41.478,154.405 41.219,153.236 C40.799,151.349 39.872,148.196 40.656,147.626 C51.815,139.513 47.337,129.410 45.086,119.299 C44.750,117.789 47.493,114.480 49.443,113.795 C54.641,111.970 56.761,109.165 58.130,103.547 C59.415,98.278 64.254,93.876 67.507,89.077 C69.845,85.628 73.172,82.446 74.266,78.633 C77.364,67.835 88.723,58.599 99.919,59.518 C106.146,60.028 111.064,58.742 114.986,53.672 C116.530,51.675 118.569,49.441 120.834,48.716 C138.963,42.914 143.456,26.436 151.276,12.090 C153.960,7.166 160.820,3.381 166.572,1.476 C179.756,-2.890 201.136,6.138 209.265,17.143 C218.814,30.071 213.490,43.024 211.140,56.291 C210.330,60.858 210.170,67.076 212.658,70.224 C214.829,72.972 221.234,73.551 225.601,73.169 C235.122,72.337 246.028,77.743 248.476,87.473 C250.926,97.203 259.320,101.380 269.272,98.589 C271.127,98.069 274.740,98.540 275.358,99.705 C280.177,108.795 291.678,114.673 289.069,127.404 C288.871,128.368 288.930,129.652 289.422,130.449 C294.661,138.940 291.231,145.784 285.590,152.389 C284.743,153.381 284.753,155.102 284.366,156.485 C285.525,156.559 286.683,156.649 287.843,156.695 C288.085,156.704 288.368,156.424 288.574,156.484 C296.964,158.891 305.354,161.303 313.727,163.771 C315.113,164.180 316.392,165.230 317.771,165.337 C326.826,166.039 335.930,166.265 344.942,167.306 C348.184,167.680 353.414,169.388 353.850,171.349 C354.583,174.649 352.303,178.667 351.110,182.324 C350.541,184.072 348.471,186.683 348.942,187.193 C351.450,189.910 354.230,192.840 357.535,194.222 C360.451,195.440 364.180,194.711 367.549,194.858 C369.102,194.926 371.751,194.546 372.039,195.194 C376.412,205.033 384.180,199.550 390.776,199.744 C394.068,199.840 397.690,200.558 400.467,202.181 C402.348,203.281 404.635,207.305 403.971,208.547 C399.281,217.320 404.924,215.856 410.466,216.537 C414.587,217.044 418.568,219.800 422.296,222.069 C426.034,224.345 431.825,226.795 432.435,229.984 C434.147,238.938 435.091,248.594 433.362,257.390 ZM114.013,142.475 C109.384,137.432 103.702,133.311 98.209,129.127 C96.926,128.151 93.799,127.562 93.090,128.299 C91.789,129.650 90.563,132.638 91.227,134.035 C94.051,139.976 97.124,145.923 101.039,151.176 C103.079,153.913 107.058,155.212 110.162,157.160 C111.634,158.118 113.106,159.075 114.578,160.033 C115.214,157.506 116.455,154.950 116.337,152.458 C116.174,149.039 116.048,144.694 114.013,142.475 ZM215.334,145.620 C214.850,146.609 213.782,147.753 213.997,148.557 C214.538,150.585 215.655,152.459 216.542,154.396 C217.121,153.492 217.699,152.588 218.548,151.263 C217.435,149.309 216.384,147.465 215.334,145.620 ZM279.072,179.731 C278.883,178.553 277.045,176.834 275.833,176.749 C264.975,175.995 254.099,175.294 243.222,175.205 C240.710,175.185 238.177,177.574 235.655,178.855 C238.194,180.788 240.593,184.116 243.301,184.387 C250.904,185.150 258.635,184.653 266.316,184.653 C266.319,184.826 266.322,184.999 266.326,185.172 C269.888,184.692 273.523,184.484 276.969,183.566 C278.010,183.288 279.264,180.924 279.072,179.731 Z"/>
</svg>