<svg 
 xmlns="http://www.w3.org/2000/svg"
 xmlns:xlink="http://www.w3.org/1999/xlink"
 width="645px" height="477px">
<path fill-rule="evenodd"  fill="#222223"
 d="M355.811,475.475 C365.720,460.778 378.014,449.648 397.010,448.631 C399.043,448.521 401.619,447.198 402.849,445.599 C406.545,440.791 405.820,416.287 401.972,411.662 C398.156,407.074 394.311,402.411 389.870,398.463 C382.191,391.637 373.903,385.496 366.151,378.747 C362.679,375.724 358.773,372.383 357.107,368.347 C355.533,364.535 356.059,359.528 356.754,355.222 C357.292,351.888 359.760,348.911 360.942,345.623 C364.395,336.012 366.996,326.038 371.193,316.775 C373.715,311.209 372.533,310.217 367.348,308.355 C356.531,304.470 345.213,300.827 335.818,294.533 C329.010,289.971 323.123,287.316 315.503,289.408 C308.535,291.322 300.318,292.162 295.144,296.461 C281.373,307.904 275.922,325.156 268.913,340.882 C258.558,364.119 240.168,369.763 220.874,354.120 C215.955,350.131 212.233,350.785 208.303,355.436 C204.474,359.966 200.297,364.217 196.128,368.448 C186.992,377.718 185.901,382.016 194.498,391.623 C207.359,405.997 212.064,422.268 209.605,441.072 C208.478,452.771 210.941,461.908 224.638,464.488 C226.744,464.885 228.894,467.486 230.132,469.589 C232.258,473.199 234.864,475.544 237.904,476.1000 L149.943,476.1000 C149.881,469.903 148.891,462.707 147.414,455.764 C145.381,446.209 141.209,437.030 139.915,427.426 C139.188,422.033 142.276,416.075 143.883,410.440 C145.295,405.489 147.560,400.733 148.542,395.714 C152.061,377.748 160.024,361.883 170.381,346.986 C175.874,339.084 181.236,331.061 186.120,322.778 C193.485,310.289 206.281,306.307 218.635,302.245 C224.592,300.287 226.236,297.904 226.294,292.038 C226.345,286.875 228.826,281.774 229.236,276.567 C230.072,265.946 237.305,259.705 243.752,252.539 C246.053,249.982 245.644,245.097 246.766,241.364 C248.344,236.118 250.253,230.973 251.900,225.747 C252.430,224.063 253.415,221.164 252.776,220.680 C245.265,214.987 237.615,209.438 229.601,204.497 C228.655,203.914 223.878,206.772 223.321,208.728 C217.605,228.794 204.794,244.341 191.591,259.682 C190.766,260.641 189.682,261.699 188.529,262.006 C179.577,264.389 179.056,270.872 179.884,278.445 C180.166,281.032 179.087,283.767 178.630,286.435 C175.991,285.788 173.049,285.676 170.768,284.393 C163.993,280.581 157.296,276.570 150.916,272.139 C145.291,268.231 139.983,264.176 132.500,266.017 C131.594,266.239 130.292,265.969 129.516,265.433 C122.163,260.355 115.048,254.917 107.540,250.085 C99.301,244.783 90.722,240.007 82.279,235.020 C81.844,234.763 81.154,234.832 80.833,234.504 C72.634,226.144 64.541,217.678 56.259,209.400 C53.240,206.384 50.170,203.010 46.441,201.204 C40.533,198.343 39.707,194.504 42.937,188.855 C44.514,186.095 43.921,180.991 42.450,177.802 C36.823,165.608 29.523,154.128 24.512,141.714 C9.388,104.245 0.478,65.316 0.202,24.744 C0.177,21.049 2.898,17.335 4.344,13.631 C5.985,17.304 8.562,20.842 9.122,24.673 C14.511,61.602 19.310,98.886 38.239,131.837 C44.992,143.592 56.318,152.816 65.983,162.784 C70.018,166.945 75.277,166.580 78.926,161.920 C86.474,152.284 97.489,158.291 106.604,155.812 C107.375,155.602 110.507,162.596 111.918,166.470 C114.359,173.181 114.527,181.655 118.872,186.524 C126.006,194.517 135.375,200.742 144.474,206.688 C149.784,210.158 156.336,211.839 162.484,213.851 C163.823,214.289 167.331,212.632 167.303,212.064 C166.440,194.431 164.465,176.813 164.485,159.195 C164.494,151.085 166.653,141.979 170.806,135.111 C176.695,125.372 185.174,117.148 192.851,108.549 C196.556,104.400 200.530,104.748 205.028,108.486 C207.501,110.540 212.222,112.374 214.607,111.321 C216.738,110.381 218.210,105.250 217.958,102.130 C217.090,91.374 214.060,80.596 221.537,70.732 C222.132,69.947 220.134,67.545 220.122,65.889 C220.102,62.991 219.722,59.394 221.216,57.333 C224.471,52.843 229.777,49.393 224.473,43.070 C224.114,42.642 224.213,41.369 224.595,40.857 C228.694,35.358 232.869,29.916 237.081,24.503 C238.183,23.086 239.795,21.994 240.648,20.463 C249.314,4.911 264.499,1.864 280.189,0.252 C282.664,-0.002 285.901,2.080 287.991,3.961 C299.667,14.472 303.884,28.826 308.680,43.156 C311.752,52.334 317.435,60.648 322.110,69.261 C322.271,69.558 324.859,69.258 325.178,68.646 C329.021,61.266 336.401,60.906 342.819,61.186 C359.008,61.893 375.217,63.274 391.260,65.512 C396.374,66.226 400.736,71.303 405.904,72.909 C412.074,74.827 418.715,75.405 425.204,76.041 C427.267,76.243 431.099,75.129 431.349,74.003 C432.128,70.500 431.809,66.680 431.447,63.029 C431.263,61.169 430.075,59.406 429.342,57.599 C431.489,57.130 433.742,56.001 435.761,56.325 C440.339,57.059 444.833,58.403 449.306,59.690 C456.763,61.837 464.157,64.198 471.625,66.304 C472.974,66.684 474.810,66.759 475.976,66.141 C483.962,61.912 491.060,57.739 501.449,61.535 C506.111,63.239 513.612,57.460 519.682,54.756 C520.408,54.433 520.867,51.798 520.370,50.740 C517.435,44.488 520.959,41.591 525.926,39.363 C531.355,36.927 536.775,34.455 542.310,32.283 C544.165,31.554 547.013,30.735 548.303,31.599 C558.179,38.208 564.333,29.724 571.825,26.387 C576.686,24.222 581.682,21.776 586.852,20.995 C602.195,18.678 617.961,15.011 632.619,22.926 C636.734,25.148 640.317,30.393 641.832,35.006 C648.008,53.817 643.808,65.071 626.989,71.344 C616.008,75.439 604.013,77.221 592.305,78.831 C585.149,79.815 577.664,78.166 570.354,78.439 C568.115,78.522 566.057,81.225 563.760,82.432 C559.873,84.473 555.879,87.803 551.900,87.847 C544.934,87.925 543.816,91.463 542.574,96.922 C541.919,99.801 538.942,102.391 536.518,104.562 C534.248,106.595 530.404,107.302 528.872,109.646 C524.954,115.640 508.515,117.133 503.935,111.424 C502.970,110.221 501.483,108.112 500.686,108.301 C492.618,110.220 484.414,111.930 476.692,114.861 C462.414,120.281 448.580,125.434 432.614,121.519 C418.639,118.092 404.110,114.904 392.337,128.427 C389.350,131.858 383.960,133.583 379.354,135.162 C367.260,139.309 363.424,146.595 366.274,158.994 C367.198,163.009 365.984,167.640 365.210,171.892 C363.033,183.851 360.571,195.759 358.244,207.691 C358.149,208.180 358.076,209.008 358.333,209.184 C370.106,217.229 372.880,235.467 392.242,236.021 C398.671,236.205 406.451,246.032 410.681,253.178 C417.552,264.786 421.862,277.885 427.660,290.164 C428.402,291.736 431.723,293.200 433.607,292.943 C442.217,291.766 444.811,294.156 442.878,302.592 C439.116,319.015 429.940,330.544 414.023,337.489 C408.324,339.976 404.344,346.518 399.884,351.482 C399.452,351.963 400.895,354.613 401.953,355.840 C404.812,359.157 408.255,362.009 410.876,365.487 C414.848,370.757 418.077,376.593 422.148,381.776 C423.438,383.419 426.385,383.814 428.627,384.636 C429.308,384.886 430.323,384.361 430.922,384.681 C440.878,390.003 451.383,394.571 460.539,401.037 C468.590,406.724 475.730,414.044 482.120,421.612 C486.804,427.159 491.061,433.921 492.763,440.815 C493.889,445.375 491.089,451.677 488.402,456.235 C484.187,463.390 479.362,470.186 474.566,476.1000 L354.645,476.1000 C355.060,476.506 355.456,476.001 355.811,475.475 Z"/>
</svg>