<svg 
 xmlns="http://www.w3.org/2000/svg"
 xmlns:xlink="http://www.w3.org/1999/xlink"
 width="350px" height="482px">
<path fill-rule="evenodd"  fill="#222223"
 d="M208.423,481.455 C208.515,481.640 208.612,481.818 208.706,481.1000 L178.823,481.1000 C178.538,480.735 178.148,479.538 177.492,478.508 C169.836,466.493 161.276,455.036 153.884,442.869 C144.831,427.969 140.316,411.763 144.206,394.233 C144.653,392.215 147.817,389.349 149.701,389.364 C155.763,389.410 158.017,386.094 159.097,381.107 C159.850,377.628 159.424,373.508 161.181,370.708 C166.049,362.948 161.687,356.835 156.755,353.151 C146.652,345.604 142.760,334.586 136.641,324.618 C133.559,319.597 126.813,316.759 121.528,313.224 C120.958,312.843 118.543,314.069 117.896,315.113 C110.963,326.293 104.040,337.486 97.493,348.893 C94.613,353.913 92.527,359.398 90.212,364.728 C86.856,372.455 83.536,380.200 80.418,388.023 C79.932,389.242 80.873,390.959 80.665,392.374 C80.370,394.387 80.264,397.188 78.959,398.166 C72.249,403.191 65.642,408.743 58.116,412.194 C49.423,416.180 47.602,421.867 47.885,430.681 C48.085,436.890 45.734,443.404 43.523,449.416 C40.010,458.966 34.985,467.993 31.873,477.649 C31.338,479.310 31.026,480.751 30.920,481.1000 L0.672,481.1000 C7.399,463.739 12.347,445.098 13.636,425.232 C14.240,415.930 21.249,406.791 26.294,398.127 C29.023,393.441 30.607,391.286 24.738,387.526 C5.048,374.911 3.513,354.484 4.213,334.027 C4.396,328.683 10.145,323.446 2.699,318.841 C2.284,318.585 2.512,315.964 3.186,315.486 C12.046,309.190 7.948,301.346 6.948,293.206 C5.958,285.161 7.344,276.755 8.218,268.564 C10.270,249.340 12.793,230.167 14.830,210.941 C16.380,196.319 23.830,185.779 36.187,178.320 C36.847,177.921 37.920,177.650 38.099,177.095 C42.216,164.305 54.974,156.255 56.573,141.807 C57.912,129.707 65.849,121.106 76.267,115.281 C87.886,108.782 100.712,104.043 111.247,96.183 C116.064,92.589 127.456,88.780 121.009,77.178 C119.763,74.935 122.938,70.135 124.286,66.596 C126.219,61.520 127.763,56.173 130.502,51.549 C138.432,38.165 137.526,25.253 130.373,11.913 C128.596,8.599 128.875,4.188 128.209,0.280 C130.989,2.957 134.015,5.428 136.474,8.370 C138.613,10.931 139.742,14.378 142.023,16.758 C143.567,18.368 146.546,19.941 148.520,19.577 C157.302,17.955 164.048,20.353 167.993,28.427 C170.299,33.148 172.972,32.606 175.490,29.437 C180.930,22.590 185.852,15.335 191.191,8.404 C192.816,6.294 195.108,4.696 197.095,2.864 C196.996,5.368 197.242,7.949 196.707,10.356 C196.095,13.108 195.309,16.080 193.701,18.313 C180.863,36.139 180.852,55.599 186.224,75.665 C188.113,82.723 185.305,87.550 180.589,92.213 C175.395,97.348 172.594,101.364 180.213,108.487 C189.392,117.067 197.258,127.666 201.151,140.150 C202.321,143.901 202.277,148.224 201.936,152.212 C201.085,162.160 199.824,172.075 198.570,181.983 C197.790,188.155 199.795,189.467 206.404,190.434 C220.867,192.551 234.739,192.675 248.774,188.414 C256.155,186.173 266.226,173.191 265.907,165.468 C265.633,158.833 265.450,152.160 265.891,145.549 C266.042,143.283 267.667,140.280 269.550,139.122 C275.198,135.652 276.862,130.966 276.435,124.683 C276.319,122.962 278.403,121.092 279.477,119.291 C281.348,120.769 284.828,122.256 284.820,123.725 C284.779,131.460 289.982,134.284 295.263,138.412 C302.782,144.290 302.1000,153.744 301.803,162.587 C300.949,168.897 301.508,170.718 308.310,167.665 C318.818,162.947 329.328,157.046 341.551,159.314 C344.303,159.825 346.676,162.363 349.224,163.968 C346.925,165.992 344.953,168.883 342.270,169.894 C329.535,174.692 316.593,178.943 303.788,183.564 C303.240,183.762 303.046,185.736 303.195,186.812 C303.325,187.746 304.430,188.517 304.664,189.467 C305.398,192.443 305.572,197.932 306.589,198.077 C313.098,199.005 319.805,199.217 326.386,198.765 C331.757,198.396 337.010,196.519 342.384,195.866 C343.991,195.670 345.825,197.343 347.556,198.160 C346.592,199.826 346.016,202.377 344.594,202.998 C339.430,205.250 334.107,207.484 328.614,208.562 C319.759,210.301 310.697,210.968 301.785,212.458 C300.174,212.727 298.025,214.512 297.548,216.040 C294.597,225.484 286.888,225.337 279.327,225.349 C277.711,225.351 275.626,224.543 274.548,223.379 C264.220,212.219 245.357,212.656 234.799,224.410 C233.665,225.672 231.682,227.911 231.049,227.622 C222.945,223.905 218.324,231.221 212.035,233.032 C203.926,235.366 195.384,236.393 186.954,237.217 C185.714,237.339 183.980,233.294 182.615,231.090 C180.383,227.490 178.265,223.820 176.099,220.179 C173.602,223.382 171.063,226.553 168.630,229.804 C167.862,230.830 167.357,232.056 166.762,233.206 C159.855,246.567 160.791,247.686 175.064,251.984 C189.893,256.449 192.473,255.152 193.141,272.119 C193.215,273.981 196.748,276.972 198.965,277.265 C208.063,278.465 211.677,284.220 208.552,292.890 C207.685,295.296 208.273,298.352 208.647,301.048 C209.364,306.215 211.970,311.259 206.626,316.032 C205.580,316.967 208.239,321.931 209.063,325.069 C211.160,333.052 214.357,340.972 214.919,349.069 C215.519,357.692 213.863,366.525 212.672,375.196 C212.025,379.904 210.160,384.433 209.082,389.096 C206.448,400.486 197.477,406.320 188.041,410.084 C175.735,414.994 175.432,414.793 181.316,426.223 C190.701,444.454 199.204,463.136 208.423,481.455 ZM19.656,355.621 C19.805,355.174 19.392,355.740 19.514,356.146 C21.419,362.464 23.260,368.813 25.639,374.953 C25.805,375.382 30.170,374.483 32.414,373.714 C33.843,373.224 34.962,371.832 36.219,370.844 C30.777,365.842 25.336,360.841 19.656,355.621 ZM91.214,205.608 C86.823,199.134 80.663,193.854 75.189,188.117 C75.102,188.025 74.674,188.165 74.465,188.294 C68.644,191.881 61.573,193.199 59.584,202.000 C55.901,218.301 50.935,234.328 46.103,250.349 C43.554,258.800 40.159,266.996 36.590,276.842 C39.393,282.929 42.055,288.689 44.696,294.458 C45.823,296.919 46.906,299.399 48.009,301.870 C50.290,299.550 52.944,297.481 54.744,294.835 C56.443,292.340 57.414,289.295 58.406,286.390 C60.946,278.951 66.266,276.525 73.490,279.096 C75.892,279.951 80.598,280.345 81.117,279.339 C82.552,276.560 82.840,272.905 82.669,269.644 C82.211,260.889 78.268,250.887 81.303,243.747 C84.980,235.095 80.903,224.068 90.208,217.104 C92.379,215.480 92.974,208.204 91.214,205.608 ZM105.595,226.822 C103.786,228.640 101.349,230.160 100.307,232.342 C98.559,236.003 97.598,240.059 96.531,244.009 C96.235,245.104 96.733,246.413 96.774,246.784 C101.590,243.392 106.739,240.731 110.249,236.662 C111.214,235.543 107.281,230.218 105.595,226.822 Z"/>
</svg>