<svg 
 xmlns="http://www.w3.org/2000/svg"
 xmlns:xlink="http://www.w3.org/1999/xlink"
 width="372px" height="343px">
<path fill-rule="evenodd"  fill="#222223"
 d="M234.530,327.722 C236.096,332.652 236.947,339.724 239.1000,342.482 L239.1000,342.1000 L0.479,342.1000 C0.484,341.273 2.759,339.875 7.612,337.052 C11.132,335.005 15.130,333.668 19.041,332.417 C28.566,329.370 32.813,322.040 29.602,312.651 C26.853,304.615 23.742,296.666 20.223,288.937 C16.023,279.714 18.645,271.136 28.689,270.065 C44.125,268.419 53.366,258.051 64.221,249.510 C68.144,246.423 67.427,244.773 63.853,242.042 C59.122,238.428 53.443,235.302 58.014,227.020 C59.410,224.489 55.871,218.942 54.047,215.029 C52.307,211.296 49.847,207.899 47.721,204.343 C42.692,195.926 43.644,188.379 48.818,179.833 C57.586,165.351 64.994,150.045 72.781,134.987 C73.509,133.580 72.773,131.463 72.877,129.685 C73.351,121.594 73.993,113.511 74.325,105.415 C74.424,103.009 73.715,100.570 73.375,98.146 C71.620,99.075 69.418,99.614 68.198,101.009 C65.271,104.354 62.837,108.126 60.130,111.670 C59.289,112.772 58.225,114.552 57.240,114.567 C48.863,114.694 48.054,121.930 45.273,127.109 C42.502,132.273 40.450,137.817 37.797,143.049 C35.756,147.071 34.172,151.585 27.492,148.656 C25.690,147.866 21.963,151.693 19.010,153.184 C16.726,154.336 13.579,158.583 12.931,151.604 C12.796,150.155 8.429,149.143 8.236,147.645 C7.302,140.363 5.437,132.584 7.070,125.733 C9.565,115.272 14.531,105.375 18.750,95.366 C19.725,93.050 21.739,91.064 23.591,89.247 C26.455,86.438 30.651,84.465 32.408,81.148 C37.263,71.982 45.365,67.834 54.162,63.542 C60.695,60.354 65.847,54.463 71.991,50.333 C76.955,46.996 82.493,44.512 87.753,41.610 C90.676,39.997 93.582,38.351 96.446,36.638 C100.801,34.033 105.274,31.578 109.381,28.622 C111.695,26.956 115.183,24.245 115.004,22.292 C114.429,16.043 117.298,15.471 122.262,15.566 C124.430,15.607 128.189,14.260 128.558,12.848 C130.439,5.673 135.063,6.380 140.567,7.254 C143.794,7.765 149.354,11.218 148.924,3.244 C148.900,2.821 149.981,1.951 150.557,1.944 C156.961,1.867 163.369,1.852 169.772,1.996 C170.990,2.024 172.813,3.564 173.305,3.153 C183.089,-5.019 187.583,6.903 194.691,8.668 C196.348,9.080 198.512,10.940 199.399,10.406 C206.513,6.131 209.624,11.760 213.343,15.697 C216.424,18.959 218.487,23.886 224.506,21.525 C224.861,21.385 225.615,21.714 225.913,22.058 C230.951,27.872 236.050,33.638 240.899,39.605 C242.930,42.104 244.148,45.265 246.194,47.748 C254.194,57.453 263.348,66.389 270.077,76.883 C273.356,81.996 274.728,90.857 272.628,96.380 C267.192,110.676 259.625,124.208 252.358,137.752 C248.329,145.262 238.141,147.699 230.536,143.928 C214.632,136.041 214.897,136.128 209.560,152.466 C208.123,156.864 205.240,161.381 201.751,164.370 C197.546,167.973 192.121,169.994 195.595,177.129 C195.778,177.506 192.689,179.336 191.278,180.654 C189.1000,181.848 188.341,183.124 187.972,184.637 C187.709,185.714 188.979,187.901 190.124,188.467 C200.199,193.443 209.450,198.209 222.065,192.976 C234.385,187.865 248.014,190.905 260.854,195.311 C289.924,205.286 308.618,226.892 323.146,252.155 C335.622,273.848 346.060,296.722 357.059,319.239 C360.254,325.780 364.041,328.933 371.128,328.372 L339.000,332.302 L339.000,330.1000 L338.589,330.1000 C339.027,330.744 339.458,330.447 339.901,330.214 C339.069,329.427 338.370,328.344 337.383,327.902 C332.043,325.513 330.103,321.788 331.826,316.030 C332.279,314.520 331.930,312.479 331.272,310.978 C327.110,301.497 322.482,292.214 318.532,282.650 C311.162,264.810 301.704,248.448 287.493,235.041 C275.615,223.834 264.457,211.549 246.568,210.442 C243.917,210.278 241.217,210.909 238.540,211.173 C240.150,213.077 241.534,215.244 243.406,216.842 C255.574,227.230 263.689,238.914 260.117,256.277 C257.068,271.102 241.797,291.488 221.319,287.727 C215.518,286.661 210.072,283.677 204.476,281.500 C204.393,281.386 204.313,281.270 204.229,281.158 C204.092,281.136 203.947,281.122 203.804,281.107 C202.604,279.933 201.474,278.673 200.167,277.635 C198.321,276.167 196.315,274.901 194.378,273.548 C195.958,275.811 197.255,278.381 199.237,280.215 C200.204,281.110 202.170,280.930 203.804,281.107 C203.884,281.185 203.961,281.265 204.041,281.342 C204.042,281.342 204.051,281.332 204.053,281.331 C204.194,281.385 204.335,281.445 204.476,281.500 C205.412,282.782 206.267,284.144 207.366,285.269 C219.364,297.560 229.331,311.351 234.530,327.722 ZM67.229,282.805 C64.505,284.510 61.859,286.166 59.213,287.823 C59.901,288.202 60.798,289.071 61.241,288.881 C64.197,287.617 67.058,286.128 69.949,284.711 C69.277,284.240 68.604,283.769 67.229,282.805 ZM132.868,322.278 C131.212,319.104 129.410,315.745 126.831,313.364 C122.099,308.996 116.762,305.281 112.666,302.069 C109.116,302.731 107.334,303.022 105.570,303.403 C103.210,303.913 100.866,304.493 98.515,305.043 C99.910,307.076 100.890,309.678 102.772,311.043 C110.951,316.974 119.309,322.674 127.825,328.112 C129.133,328.947 131.602,327.974 133.534,327.838 C133.348,325.966 133.676,323.827 132.868,322.278 ZM186.581,213.260 C180.492,211.917 174.309,210.1000 166.013,209.572 C165.339,211.681 164.457,213.715 164.069,215.839 C163.601,218.401 163.028,221.121 163.423,223.628 C164.351,229.527 157.644,235.368 163.303,241.172 C170.497,248.551 177.756,255.870 185.024,263.176 C185.885,264.040 186.987,264.663 187.977,265.398 C187.696,264.215 187.375,263.041 187.138,261.849 C184.137,246.707 177.218,231.432 188.731,216.725 C189.049,216.320 187.558,213.475 186.581,213.260 ZM213.554,259.899 C218.441,264.827 224.395,267.523 230.125,263.915 C234.751,261.003 237.612,255.300 240.175,252.159 C238.005,236.038 228.192,229.948 218.465,223.471 C213.131,219.919 210.123,221.467 207.286,226.213 C202.396,234.397 205.893,252.174 213.554,259.899 Z"/>
</svg>