<svg 
 xmlns="http://www.w3.org/2000/svg"
 xmlns:xlink="http://www.w3.org/1999/xlink"
 width="442px" height="388px">
<path fill-rule="evenodd"  fill="#222223"
 d="M348.426,387.1000 L268.509,387.1000 C264.783,380.729 267.643,376.985 275.187,375.074 C277.016,374.611 278.651,373.378 280.374,372.500 C278.724,371.403 277.169,370.114 275.407,369.240 C263.836,363.502 254.896,355.036 254.070,341.819 C253.606,334.389 251.403,333.070 245.257,334.600 C243.083,335.141 240.955,336.690 238.862,336.591 C228.290,336.090 216.687,337.675 207.460,333.779 C197.251,329.469 189.078,321.559 177.055,328.454 C175.150,329.546 171.467,328.377 168.952,327.383 C165.625,326.069 162.705,323.761 159.471,322.160 C158.249,321.555 156.639,321.729 155.206,321.548 C155.315,322.720 155.079,324.072 155.584,325.037 C161.803,336.900 168.032,348.762 174.531,360.474 C175.567,362.341 177.730,364.047 179.753,364.785 C181.972,365.596 184.634,365.199 187.103,365.328 C186.363,369.703 187.015,375.280 184.527,378.142 C181.506,381.617 175.849,382.823 171.302,384.947 C170.632,385.261 169.040,385.353 169.040,385.353 L159.988,385.966 C159.988,385.966 158.320,385.205 157.457,384.906 C151.140,382.709 144.588,381.023 138.553,378.224 C131.443,374.926 129.593,375.742 129.169,383.459 C129.056,385.506 129.347,386.954 129.918,387.1000 L71.943,387.1000 L63.402,376.507 C63.402,376.507 59.588,371.895 57.226,370.234 C45.127,361.722 35.058,351.431 29.089,337.784 C27.988,335.265 29.237,331.722 29.407,328.652 C29.496,327.070 30.005,325.377 29.609,323.929 C28.864,321.204 27.051,318.697 26.665,315.962 C25.842,310.133 23.387,307.203 17.087,306.124 C11.953,305.244 7.144,302.053 2.425,299.461 C1.173,298.773 0.785,296.520 -0.000,294.985 C1.544,294.371 3.037,293.481 4.640,293.190 C14.017,291.488 24.859,289.804 27.727,279.951 C30.320,271.046 29.739,261.169 34.175,252.398 C34.600,251.557 32.265,248.320 30.602,247.605 C22.710,244.212 22.588,239.494 26.666,232.806 C30.399,226.685 33.764,220.496 30.562,212.396 C29.692,210.197 34.232,205.866 36.293,202.517 C36.986,201.391 38.247,200.252 38.205,199.160 C38.175,198.367 36.386,196.938 35.450,196.992 C24.844,197.597 30.273,190.731 31.741,187.614 C33.415,184.059 35.083,172.784 41.807,185.002 C42.366,186.020 44.842,185.987 46.427,186.443 C47.135,182.561 48.301,178.684 48.340,174.796 C48.358,173.075 46.112,169.844 44.865,169.830 C33.291,169.700 39.095,162.573 40.560,158.391 C42.032,154.185 44.660,147.823 49.743,156.594 C50.475,157.859 54.690,158.831 55.382,158.110 C58.490,154.876 60.907,150.982 63.573,147.326 C61.504,146.593 59.138,146.256 57.456,145.005 C56.029,143.945 54.262,141.529 54.607,140.230 C55.922,135.265 57.665,130.331 59.921,125.713 C64.076,117.206 64.530,117.931 71.265,124.293 C74.562,127.408 80.938,127.278 85.920,128.617 C86.667,125.133 88.191,121.558 87.797,118.208 C87.626,116.760 83.338,114.552 81.190,114.822 C75.710,115.513 74.624,112.582 76.426,109.073 C80.987,100.189 86.221,91.635 91.523,83.159 C92.373,81.801 94.965,81.527 96.752,80.751 C97.387,82.380 97.928,84.053 98.673,85.630 C100.488,89.471 102.397,93.267 104.268,97.081 C108.835,93.689 113.636,90.535 117.668,86.596 C118.160,86.116 114.776,79.309 112.743,79.060 C105.407,78.162 105.375,75.009 109.219,70.603 C115.501,63.402 122.212,56.565 128.949,49.780 C130.009,48.712 132.158,48.720 133.803,48.231 C134.143,49.867 134.395,51.527 134.843,53.133 C135.773,56.471 135.972,61.782 137.998,62.622 C140.899,63.826 145.285,62.121 148.805,60.957 C151.174,60.174 153.574,58.543 155.179,56.636 C157.186,54.249 158.393,51.192 159.946,48.424 C157.427,47.048 155.045,44.945 152.362,44.442 C146.002,43.249 144.199,39.988 148.890,35.712 C158.019,27.389 167.804,19.771 177.512,12.107 C178.868,11.037 181.329,11.360 183.278,11.038 C183.526,12.986 184.532,15.231 183.902,16.835 C177.541,33.039 186.368,34.864 199.431,35.415 C203.765,35.598 208.189,34.670 212.496,33.849 C213.957,33.571 215.183,32.062 216.516,31.115 C215.154,29.838 213.958,28.288 212.393,27.345 C209.873,25.825 207.110,24.707 204.450,23.418 C206.632,20.754 208.284,17.116 211.089,15.601 C221.279,10.099 231.805,5.199 242.341,0.368 C243.873,-0.334 247.547,0.090 247.804,0.832 C248.474,2.760 248.208,5.292 247.534,7.326 C246.910,9.206 244.657,10.608 244.218,12.476 C243.439,15.800 242.292,19.894 243.585,22.564 C244.557,24.571 249.081,25.634 252.071,25.736 C257.736,25.930 263.451,25.272 269.112,24.652 C270.632,24.485 272.027,23.181 273.479,22.399 C272.630,20.921 272.073,19.130 270.881,18.018 C265.057,12.588 265.035,8.203 272.277,6.667 C285.817,3.795 299.715,2.438 313.530,1.167 C316.102,0.930 318.985,4.055 321.724,5.629 C319.658,8.691 318.239,12.717 315.394,14.618 C309.123,18.810 308.331,21.965 314.067,26.646 C316.869,28.933 319.834,31.057 322.900,32.978 C326.519,35.246 330.179,37.703 332.365,30.999 C332.901,29.355 336.080,27.275 337.755,27.504 C349.678,29.130 361.583,31.033 373.344,33.548 C375.493,34.007 378.869,38.550 378.350,39.667 C377.140,42.267 374.053,44.151 371.444,45.909 C368.879,47.637 363.678,48.830 363.664,50.295 C363.633,53.762 365.747,57.386 367.544,60.644 C368.044,61.551 370.799,62.141 371.953,61.621 C381.354,57.388 405.588,64.675 409.280,73.845 C410.008,75.653 406.141,81.435 403.703,81.919 C399.104,82.832 394.766,83.253 396.002,88.796 C397.189,94.124 398.464,99.304 406.095,101.254 C414.240,103.337 421.656,108.572 428.973,113.103 C429.758,113.590 428.459,119.046 426.856,121.294 C425.276,123.510 419.747,125.206 419.975,126.048 C421.387,131.274 423.319,136.589 426.252,141.118 C430.107,147.073 435.858,151.879 439.286,158.017 C442.601,163.952 439.673,166.428 432.840,166.799 C430.060,166.950 425.974,170.039 425.162,172.628 C424.147,175.866 424.887,179.973 431.139,179.680 C436.638,179.423 443.702,194.585 440.632,199.190 C439.761,200.497 437.285,201.261 435.514,201.320 C433.183,201.397 430.821,200.531 428.473,200.070 C429.106,203.668 429.293,207.420 430.480,210.825 C432.065,215.369 434.851,219.513 436.264,224.092 C436.908,226.179 435.499,228.896 435.021,231.327 C433.017,230.843 431.024,230.302 429.004,229.898 C427.902,229.678 426.753,229.691 425.626,229.599 C425.736,232.765 425.568,235.970 426.020,239.087 C426.849,244.800 428.205,250.441 428.946,256.163 C429.090,257.271 427.617,258.868 426.493,259.712 C426.083,260.020 424.459,258.877 423.489,258.245 C421.892,257.205 420.376,256.042 418.827,254.932 C418.185,258.504 415.733,263.507 417.228,265.390 C422.471,271.994 419.731,278.023 417.684,284.282 C417.550,284.690 414.783,284.760 413.651,284.185 C412.399,283.549 411.619,281.988 410.634,280.829 C410.107,282.710 409.301,284.560 409.096,286.475 C407.719,299.303 407.085,312.242 405.049,324.961 C400.906,350.841 383.723,366.003 360.810,375.791 C355.123,378.220 349.005,379.640 343.108,381.591 C342.011,381.954 341.019,382.635 339.979,383.169 C340.971,383.879 341.924,384.652 342.961,385.289 C344.759,386.395 346.584,387.277 348.426,387.1000 ZM77.750,317.334 C77.196,317.163 76.181,318.480 75.377,319.113 C77.512,320.301 79.601,321.590 81.818,322.598 C82.296,322.816 83.236,322.021 85.784,320.869 C82.045,319.160 79.969,318.016 77.750,317.334 ZM119.468,366.128 C117.261,366.885 115.340,368.473 113.302,369.723 C114.030,370.203 114.859,371.196 115.469,371.077 C118.118,370.561 120.703,369.720 125.051,368.515 C122.000,367.139 120.445,365.793 119.468,366.128 ZM289.414,325.642 C287.636,324.746 284.834,325.629 282.548,326.034 C277.783,326.878 272.735,329.241 270.217,322.306 C269.971,321.629 267.360,321.106 266.339,321.577 C264.875,322.252 263.039,323.764 262.796,325.166 C261.336,333.610 269.308,342.194 279.851,341.986 C280.624,341.455 282.618,340.136 284.555,338.736 C286.844,337.082 288.977,335.182 291.384,333.731 C292.924,332.802 294.839,332.493 296.586,331.906 C294.230,329.750 292.161,327.026 289.414,325.642 Z"/>
</svg>