<svg 
 xmlns="http://www.w3.org/2000/svg"
 xmlns:xlink="http://www.w3.org/1999/xlink"
 width="442px" height="600px">
<path fill-rule="evenodd"  fill="#222223"
 d="M411.840,599.1000 L225.253,599.1000 C225.667,598.658 225.894,596.940 225.885,594.737 C225.868,590.646 227.370,587.204 225.707,581.947 C222.903,573.079 226.016,563.622 234.452,558.024 C244.935,551.066 250.437,542.084 251.314,529.379 C251.718,523.527 251.862,519.226 245.722,517.140 C234.348,513.277 232.327,500.359 242.041,489.736 C243.676,487.946 244.625,483.805 243.708,481.697 C237.719,467.948 230.606,454.672 224.932,440.806 C221.594,432.647 215.276,432.245 210.077,435.169 C202.148,439.628 195.343,438.166 188.993,434.001 C183.473,430.379 179.193,424.918 174.121,420.551 C172.501,419.155 170.104,418.658 168.062,417.749 C168.194,419.695 167.999,421.734 168.521,423.570 C169.923,428.496 172.301,433.232 173.082,438.232 C174.798,449.209 175.544,460.335 177.177,471.328 C177.669,474.640 178.900,479.115 181.317,480.624 C187.547,484.510 189.205,489.942 189.130,496.397 C189.069,501.547 189.320,506.944 187.900,511.783 C184.934,521.895 187.089,529.133 196.803,534.070 C203.566,537.507 205.366,544.014 205.781,551.044 C206.360,560.835 205.239,569.877 196.775,576.675 C194.827,578.240 194.360,581.597 193.106,584.075 C190.460,589.303 194.646,596.573 193.312,598.787 C193.047,599.227 192.830,599.621 192.629,599.1000 L0.889,599.1000 C1.126,597.079 1.379,594.159 1.680,591.244 C1.890,589.213 3.932,585.604 4.845,585.692 C11.713,586.348 10.525,583.961 9.003,579.009 C8.413,577.091 12.961,573.195 15.693,570.792 C17.910,568.841 20.910,567.777 23.564,566.320 C21.337,564.431 19.287,562.270 16.854,560.700 C3.888,552.334 3.585,536.775 16.338,527.628 C19.076,525.665 21.791,523.629 24.709,521.966 C31.023,518.368 33.705,513.743 30.170,506.629 C29.420,505.120 28.787,502.514 29.551,501.459 C35.831,492.779 34.669,486.447 26.292,479.080 C21.474,474.844 23.044,467.012 29.799,463.323 C35.649,460.127 36.026,456.136 34.335,450.422 C27.356,426.845 20.600,403.201 13.890,379.545 C9.395,363.697 12.598,357.178 28.105,352.758 C37.954,349.950 46.170,346.463 46.670,334.555 C46.710,333.596 47.234,332.451 47.912,331.762 C50.260,329.371 52.776,327.143 55.228,324.852 C49.298,319.149 44.292,311.191 37.208,308.299 C27.864,304.484 21.083,300.438 17.785,290.468 C15.646,284.002 9.927,278.531 8.565,272.040 C6.957,264.371 8.443,256.081 8.356,248.063 C8.222,235.682 7.918,223.302 7.626,210.923 C7.549,207.654 6.439,204.187 7.200,201.160 C10.271,188.940 13.900,176.861 17.281,164.718 C17.622,163.495 18.275,161.853 17.775,160.980 C10.691,148.595 19.126,139.581 25.424,131.153 C29.185,126.121 28.598,122.319 28.003,117.215 C27.520,113.069 27.805,108.345 29.393,104.566 C31.535,99.471 34.658,94.458 38.499,90.515 C41.203,87.740 45.698,85.625 49.579,85.278 C59.466,84.393 69.517,85.270 79.388,84.293 C88.090,83.432 96.365,80.951 101.746,72.633 C105.780,66.398 110.824,60.798 115.619,55.084 C116.464,54.077 118.274,53.489 119.682,53.399 C137.887,52.231 156.091,50.707 174.316,50.358 C181.262,50.225 184.398,48.225 186.256,41.659 C188.716,32.968 191.355,24.064 195.757,16.287 C198.293,11.808 204.113,8.686 209.082,6.202 C214.621,3.432 220.793,1.756 226.855,0.274 C229.156,-0.289 233.714,0.334 234.185,1.572 C238.166,12.065 241.480,22.811 244.883,33.517 C245.420,35.208 245.981,37.231 245.547,38.835 C242.762,49.108 248.629,50.023 256.401,49.267 C259.233,48.992 262.104,49.104 264.957,49.033 C280.796,48.639 287.050,53.365 290.899,68.583 C291.188,69.724 291.926,71.802 292.137,71.762 C302.515,69.816 298.463,76.305 298.535,81.487 C298.654,90.094 299.787,98.737 301.221,107.243 C301.628,109.656 304.532,111.670 306.341,113.824 C311.919,120.466 310.998,125.244 303.900,130.364 C302.425,131.428 301.298,135.554 302.144,136.699 C303.825,138.975 307.968,142.161 309.387,141.472 C319.112,136.754 324.939,144.324 331.645,148.153 C333.147,149.011 333.138,154.300 332.302,157.095 C329.937,165.003 329.718,170.916 338.898,175.158 C349.682,180.143 359.673,186.824 370.102,192.600 C372.307,193.822 374.990,195.160 377.336,194.975 C385.074,194.366 390.988,195.575 393.411,204.361 C393.963,206.364 397.800,207.629 400.294,208.906 C407.773,212.733 411.317,217.819 409.791,226.993 C407.816,238.864 406.328,250.678 419.374,259.423 C422.875,261.770 421.925,271.620 421.926,278.026 C421.927,284.961 419.930,291.919 420.149,298.825 C420.342,304.940 422.502,310.977 423.569,317.087 C424.492,322.383 424.165,328.460 432.610,327.124 C433.521,326.980 435.388,328.740 435.760,329.941 C441.527,348.566 445.208,367.501 435.448,385.756 C426.004,403.420 408.522,409.879 389.446,407.545 C385.007,407.002 380.729,405.229 376.312,404.348 C375.421,404.171 374.235,405.469 373.185,406.086 C374.181,407.046 375.237,407.951 376.160,408.977 C379.185,412.334 383.439,415.253 384.935,419.203 C391.712,437.078 397.286,455.410 404.165,473.242 C407.367,481.544 413.118,488.847 416.605,497.070 C418.393,501.289 417.689,506.542 418.227,511.315 C418.413,512.974 418.436,515.023 419.399,516.168 C432.222,531.421 431.069,537.902 413.773,546.573 C402.726,552.111 399.879,569.483 405.904,580.488 C409.096,586.318 410.592,593.158 411.840,599.1000 ZM42.962,350.785 C42.338,351.081 41.788,351.535 41.213,351.934 C41.501,352.182 41.858,352.686 42.064,352.631 C42.709,352.459 43.297,352.075 43.908,351.774 C43.497,351.333 43.075,350.733 42.962,350.785 ZM52.968,255.641 C52.193,256.020 51.715,257.002 51.109,257.726 C51.746,258.212 52.620,259.236 52.973,259.080 C53.949,258.651 54.708,257.730 56.417,256.259 C54.497,255.872 53.538,255.362 52.968,255.641 ZM134.640,315.827 C131.952,297.364 130.317,278.543 120.130,262.183 C114.270,252.772 109.735,243.851 112.417,231.805 C113.781,225.680 111.784,217.629 108.612,211.946 C103.364,202.546 107.680,188.646 118.083,186.340 C120.343,185.838 122.449,184.644 124.627,183.768 C122.694,181.992 121.028,179.715 118.784,178.524 C106.850,172.193 101.719,146.232 110.535,136.063 C115.141,130.751 119.818,125.489 124.131,119.947 C125.170,118.613 125.687,115.856 124.990,114.493 C124.335,113.213 121.816,112.697 120.017,112.220 C114.784,110.832 109.470,109.743 104.253,108.302 C102.389,107.787 100.712,106.600 99.030,105.760 C93.259,107.962 87.892,109.718 82.832,112.118 C81.305,112.841 80.194,115.223 79.643,117.068 C77.601,123.905 75.564,130.772 74.144,137.753 C73.293,141.935 72.405,146.716 73.604,150.588 C76.801,160.906 80.601,171.115 85.110,180.933 C92.285,196.550 90.237,209.859 78.767,222.916 C72.796,229.713 64.321,235.662 67.173,248.038 C68.852,255.323 65.496,263.745 64.554,271.673 C64.451,272.536 65.516,273.476 65.735,274.448 C68.835,288.192 81.191,294.343 89.798,303.546 C90.693,304.504 92.601,304.662 94.086,304.905 C101.135,306.056 107.169,308.339 110.098,315.799 C111.831,320.211 131.473,321.822 134.208,318.027 C134.609,317.469 134.743,316.535 134.640,315.827 Z"/>
</svg>