<svg 
 xmlns="http://www.w3.org/2000/svg"
 xmlns:xlink="http://www.w3.org/1999/xlink"
 width="669px" height="489px">
<path fill-rule="evenodd"  fill="#222223"
 d="M61.954,488.1000 C56.163,486.106 50.292,483.352 44.247,481.096 C34.790,477.565 25.668,477.993 17.031,484.590 C14.412,486.590 9.805,485.998 6.109,486.593 C6.597,482.602 5.661,477.458 7.812,474.815 C18.292,461.943 32.746,461.387 47.597,464.366 C53.653,465.581 59.388,468.321 65.354,470.081 C69.056,471.173 72.936,472.414 76.701,472.310 C79.802,472.225 82.851,470.261 85.923,469.130 C84.363,466.950 82.782,464.785 81.248,462.586 C75.777,454.743 69.825,447.176 65.031,438.938 C61.721,433.251 57.987,431.942 52.255,434.145 C47.663,435.910 43.128,438.030 38.365,439.053 C36.075,439.545 33.318,437.867 30.773,437.172 C31.520,434.883 31.740,432.191 33.125,430.388 C36.079,426.542 42.378,423.056 42.250,419.609 C42.093,415.352 37.648,409.680 33.527,407.506 C27.148,404.143 22.097,401.893 25.709,393.408 C25.896,392.970 20.377,390.038 17.448,388.383 C15.734,387.416 13.888,386.682 12.102,385.843 C13.127,384.274 15.058,382.666 14.992,381.143 C14.845,377.715 14.796,373.171 12.703,371.217 C9.995,368.690 7.149,368.143 9.374,363.225 C10.122,361.571 6.480,356.936 3.857,354.988 C-0.808,351.527 -0.370,349.602 4.718,347.908 C10.318,346.044 11.061,344.014 7.769,338.358 C6.025,335.362 8.678,329.287 10.473,325.080 C11.047,323.735 15.670,322.815 17.705,323.599 C29.134,328.003 40.835,329.544 52.971,331.147 C63.833,332.581 76.476,334.732 85.106,344.627 C87.510,347.384 92.660,347.818 96.604,349.161 C104.154,351.731 111.771,354.107 119.272,356.808 C120.082,357.100 120.954,359.850 120.714,360.032 C114.479,364.740 122.454,364.532 122.904,364.683 C129.300,366.827 134.502,364.351 138.920,359.717 C142.488,355.975 145.957,352.135 149.610,348.478 C156.629,341.450 164.554,336.725 175.134,337.529 C177.792,337.730 180.757,334.663 183.339,334.991 C193.666,336.304 203.897,338.361 214.164,340.144 C214.182,340.099 214.203,340.060 214.221,340.016 C214.259,339.919 214.296,339.821 214.342,339.742 C218.527,329.783 226.051,327.181 236.630,328.463 C243.773,329.329 251.222,327.775 258.520,327.147 C259.201,327.088 259.784,325.895 260.413,325.228 C259.212,324.396 258.081,323.426 256.792,322.767 C255.337,322.025 253.739,321.562 252.204,320.977 C253.744,320.145 255.289,319.320 256.824,318.479 C259.996,316.741 263.133,314.937 266.342,313.271 C268.398,312.203 270.820,310.162 272.625,310.568 C283.834,313.083 289.932,304.204 298.176,300.042 C301.659,298.283 305.925,297.751 309.905,297.356 C317.257,296.627 324.673,296.543 332.033,295.871 C333.579,295.730 334.1000,294.214 336.478,293.331 C334.701,290.640 333.464,286.377 331.047,285.551 C323.691,283.036 319.747,271.952 309.409,276.736 C309.024,276.915 306.983,274.585 306.420,273.149 C303.391,265.416 300.758,264.480 294.246,268.945 C293.364,269.550 291.254,269.970 291.011,269.608 C290.235,268.452 289.451,266.722 289.776,265.509 C291.357,259.592 289.284,258.650 283.890,260.203 C280.275,261.244 276.338,261.548 272.563,261.455 C271.246,261.423 269.197,259.414 268.828,257.967 C266.904,250.427 261.507,249.106 254.813,248.937 C253.147,248.894 249.972,246.301 250.146,245.378 C251.692,237.168 245.196,233.600 240.614,229.749 C236.345,226.160 229.331,225.616 225.486,221.777 C218.713,215.014 211.980,207.461 207.878,198.967 C202.145,187.091 200.311,174.733 211.776,163.470 C217.374,157.972 220.903,150.114 224.322,142.835 C225.293,140.768 222.300,137.041 221.632,133.966 C220.830,130.277 218.799,125.148 220.427,122.976 C224.342,117.754 221.558,113.711 219.810,109.701 C215.037,98.752 220.962,82.161 232.081,77.992 C239.268,75.298 246.846,73.657 254.163,71.281 C256.348,70.572 258.243,68.974 260.270,67.784 C258.525,66.127 256.976,64.160 254.979,62.901 C253.065,61.694 250.716,61.125 248.506,60.444 C241.658,58.332 237.699,54.101 236.562,46.733 C236.060,43.477 233.509,40.535 231.888,37.451 C229.886,40.467 226.837,43.241 226.072,46.543 C223.344,58.322 213.113,63.186 204.971,55.770 C203.308,54.256 203.159,51.088 202.312,48.681 C204.654,48.044 207.251,46.432 209.285,46.965 C213.967,48.190 215.911,46.678 215.502,42.255 C214.737,33.1000 220.132,30.911 226.243,27.355 C233.647,23.048 238.957,25.063 244.697,30.137 C246.305,31.558 249.896,31.775 252.092,31.060 C253.137,30.720 253.844,26.689 253.321,24.690 C251.524,17.827 254.367,13.029 259.488,9.229 C271.657,0.198 292.431,0.498 303.019,13.634 C304.386,15.330 307.606,15.918 310.072,16.253 C312.811,16.624 316.080,15.177 318.387,16.186 C323.118,18.253 326.078,17.621 329.845,13.881 C335.109,8.656 344.114,11.889 344.206,18.988 C344.291,25.574 348.744,27.071 352.701,30.425 C356.953,34.028 361.417,39.823 361.746,44.921 C362.089,50.247 358.895,57.156 354.954,61.082 C349.021,66.992 348.174,71.672 355.618,75.800 C362.347,79.531 368.788,82.145 377.170,78.032 C383.742,74.806 393.263,75.625 396.351,82.931 C398.572,88.183 395.435,95.839 394.191,102.328 C393.689,104.941 391.265,107.183 390.753,109.796 C389.517,116.099 391.764,119.678 399.002,119.209 C408.646,118.585 412.490,122.438 413.035,131.821 C413.144,133.703 414.948,135.487 415.971,137.316 C418.103,135.243 422.248,132.911 422.020,131.142 C421.001,123.262 419.389,115.314 416.767,107.816 C412.419,95.379 407.664,83.024 402.132,71.071 C389.622,44.037 411.505,10.953 430.435,3.149 C452.128,-5.795 475.799,9.372 478.353,33.774 C478.560,35.743 475.632,39.772 482.542,36.931 C509.807,25.720 537.778,14.734 568.106,22.411 C597.297,29.801 617.542,48.152 626.041,77.304 C629.435,88.948 626.669,101.397 616.622,109.071 C606.851,116.535 595.193,120.552 582.319,115.086 C574.467,111.751 570.277,106.133 570.206,97.841 C570.132,89.344 574.973,83.446 582.623,80.813 C589.045,78.602 592.548,76.443 589.425,68.894 C585.694,59.879 580.146,55.457 573.182,57.358 C572.685,57.493 571.909,58.034 571.786,57.901 C565.536,51.189 557.367,53.322 549.756,53.229 C546.599,53.190 543.427,53.901 540.273,54.349 C538.906,54.543 537.135,55.633 536.287,55.114 C532.146,52.580 530.909,56.246 528.049,57.526 C513.170,64.185 523.744,73.562 524.503,81.588 C525.487,92.008 537.140,89.279 542.199,94.875 C543.930,96.789 546.661,98.596 547.050,100.785 C548.491,108.914 548.907,117.220 550.184,125.386 C550.994,130.567 552.749,134.068 559.317,129.976 C574.425,120.563 591.477,120.054 606.833,126.732 C614.588,130.105 619.259,140.817 624.968,148.475 C627.707,152.149 629.145,156.835 632.074,160.304 C633.970,162.548 638.078,165.161 640.154,164.475 C642.937,163.555 645.232,159.868 646.759,156.873 C647.986,154.469 646.962,150.818 648.366,148.634 C650.416,145.445 653.669,140.995 656.550,140.889 C660.038,140.760 663.765,144.468 667.177,146.822 C667.969,147.368 668.553,149.471 668.134,150.314 C664.681,157.267 659.755,163.739 657.620,171.039 C654.466,181.828 643.809,179.864 637.451,184.899 C637.014,185.246 635.944,185.075 635.291,184.826 C632.600,183.801 627.844,181.369 627.615,181.744 C624.683,186.547 622.400,191.744 619.953,196.842 C622.989,198.062 625.927,199.836 629.081,200.390 C636.681,201.724 643.467,203.803 643.708,213.069 C643.763,215.148 642.015,218.801 640.639,219.033 C638.583,219.380 636.136,217.302 633.827,216.322 C631.494,215.330 628.832,213.199 626.823,213.681 C617.022,216.032 608.687,213.417 600.165,208.629 C594.647,205.529 588.103,204.103 581.866,202.522 C580.213,202.102 578.000,203.881 576.044,204.650 C577.259,206.432 578.126,209.298 579.746,209.816 C588.955,212.759 593.344,219.779 595.285,228.269 C596.546,233.787 597.246,239.995 595.991,245.382 C594.337,252.481 576.979,256.861 571.175,252.219 C567.174,249.018 565.135,245.924 571.766,242.437 C575.271,240.595 578.839,236.622 579.739,232.964 C580.260,230.847 575.705,225.282 573.139,225.084 C568.204,224.703 561.808,225.577 558.293,228.580 C552.983,233.117 549.176,239.662 545.531,245.825 C539.376,256.234 531.239,264.089 519.591,267.711 C514.321,269.349 514.610,272.171 517.276,275.472 C523.869,283.635 530.752,291.563 537.432,299.656 C538.582,301.049 539.313,302.786 540.237,304.365 C538.248,304.450 535.595,305.403 534.379,304.477 C526.984,298.846 527.724,303.973 527.650,309.010 C527.625,310.771 526.244,312.513 525.482,314.264 C524.447,312.623 522.993,311.107 522.457,309.318 C521.052,304.621 520.170,299.770 518.803,295.061 C518.425,293.760 517.262,292.165 516.106,291.791 C515.322,291.538 513.593,292.951 512.856,294.012 C510.057,298.045 507.628,302.340 504.699,306.269 C504.215,306.918 501.383,306.807 500.557,306.048 C497.178,302.943 493.845,299.675 491.187,295.971 C490.354,294.810 491.038,290.878 492.144,290.285 C501.536,285.251 491.827,278.726 493.763,273.250 C491.008,272.413 488.230,270.830 485.504,270.914 C481.412,271.042 477.324,272.208 473.306,273.216 C472.072,273.525 471.072,274.763 469.965,275.576 C471.242,275.829 472.583,276.468 473.786,276.270 C479.921,275.262 483.785,278.943 482.773,283.855 C480.612,294.341 487.961,300.976 490.981,309.329 C494.024,317.747 497.161,326.148 499.655,334.731 C500.071,336.165 497.854,339.456 496.114,340.228 C488.611,343.554 491.824,348.282 495.125,351.401 C501.301,357.238 499.947,362.101 496.023,368.454 C494.149,371.489 493.971,376.607 495.041,380.180 C496.864,386.271 496.411,390.927 492.255,395.953 C490.108,398.550 489.781,402.699 488.846,406.204 C488.608,407.095 489.653,408.392 489.328,409.184 C485.540,418.421 492.008,418.690 496.532,418.795 C490.743,421.195 483.774,423.859 477.057,427.049 C475.617,427.733 474.972,430.272 474.161,432.047 C472.362,435.989 471.402,442.826 468.840,443.467 C458.797,445.977 455.539,452.991 451.997,461.314 C450.448,464.953 445.141,467.430 441.052,469.448 C436.544,471.671 437.075,473.414 440.437,475.852 C447.175,480.738 433.639,484.213 435.395,488.1000 L61.954,488.1000 ZM215.135,339.348 C215.661,339.500 216.176,339.685 216.704,339.820 C216.171,339.577 215.643,339.266 215.135,339.348 ZM218.142,339.978 C218.843,339.934 218.799,339.808 218.142,339.978 ZM613.821,191.114 C615.969,186.575 618.297,182.105 620.099,177.433 C620.427,176.581 618.605,174.905 617.775,173.609 C615.310,176.816 612.846,180.022 610.564,182.990 C612.139,186.919 612.980,189.016 613.821,191.114 ZM595.571,187.355 C602.407,191.839 605.906,189.046 606.573,177.839 C606.499,177.220 606.319,175.706 606.139,174.192 C604.997,175.290 603.892,176.433 602.702,177.478 C600.209,179.670 597.545,181.688 595.244,184.061 C594.719,184.603 594.954,186.950 595.571,187.355 ZM604.008,155.691 C604.754,154.762 605.500,153.833 607.307,151.583 C602.876,149.177 599.103,147.060 595.233,145.138 C594.861,144.953 593.882,145.986 593.184,146.453 C596.793,149.532 600.400,152.612 604.008,155.691 ZM577.453,180.676 C578.132,181.932 579.212,183.038 580.339,183.943 C580.629,184.177 581.698,183.446 583.482,182.725 C581.123,180.728 579.627,179.462 578.131,178.195 C577.874,179.039 577.158,180.130 577.453,180.676 ZM578.072,173.644 C580.030,170.420 582.396,167.347 583.683,163.876 C584.041,162.912 581.201,160.767 579.828,159.164 C577.809,160.964 575.790,162.763 573.356,164.932 C575.383,168.676 576.727,171.160 578.072,173.644 ZM524.865,128.305 C528.496,125.833 530.471,120.941 533.822,115.945 C530.983,112.860 529.081,110.792 527.179,108.725 C523.069,113.332 518.959,117.939 514.848,122.546 C518.300,124.630 523.482,129.246 524.865,128.305 ZM517.543,94.257 C518.397,91.951 519.250,89.645 520.490,86.297 C518.490,81.465 516.558,76.207 514.094,71.211 C513.362,69.727 511.131,68.980 509.587,67.896 C508.580,69.544 506.505,71.375 506.752,72.808 C507.744,78.546 509.009,84.334 511.130,89.730 C511.929,91.763 515.329,92.778 517.543,94.257 ZM509.699,100.760 C509.624,96.344 504.593,92.012 502.512,88.821 C493.337,89.332 492.479,93.233 494.043,98.092 C495.726,103.321 497.880,108.406 500.025,113.472 C500.344,114.226 501.735,114.529 502.630,115.042 C505.184,110.277 509.779,105.479 509.699,100.760 ZM493.240,175.685 C495.707,173.672 498.174,171.660 500.641,169.647 C499.014,167.790 497.387,165.933 495.067,163.285 C491.977,165.417 488.531,167.236 488.718,167.760 C489.727,170.579 491.639,173.076 493.240,175.685 ZM495.291,136.792 C496.219,137.096 497.862,135.223 500.304,133.596 C495.727,131.478 492.417,129.828 488.961,128.575 C488.690,128.477 487.409,131.149 486.598,132.533 C489.476,134.014 492.253,135.799 495.291,136.792 ZM440.085,85.202 C440.828,85.243 441.868,84.989 442.259,85.381 C443.304,86.426 445.076,88.121 444.786,88.899 C442.730,94.410 444.622,97.073 450.175,98.203 C451.432,98.459 452.337,100.432 453.403,101.615 C452.876,101.986 452.349,102.357 451.822,102.728 C452.142,103.731 452.461,104.735 452.780,105.738 C453.675,104.361 455.013,103.096 455.394,101.589 C459.224,86.436 462.958,71.256 466.467,56.027 C466.690,55.064 464.911,52.660 463.892,52.554 C456.600,51.791 450.165,49.992 446.691,42.612 C446.332,41.849 443.656,41.167 443.154,41.631 C437.518,46.839 428.121,49.678 430.473,60.191 C430.961,62.378 433.783,65.289 433.124,66.295 C426.761,75.1000 444.621,76.522 440.085,85.202 Z"/>
</svg>