<svg 
 xmlns="http://www.w3.org/2000/svg"
 xmlns:xlink="http://www.w3.org/1999/xlink"
 width="16px" height="16px">
<path fill-rule="evenodd"  fill="rgb(239, 90, 50)"
 d="M11.694,6.394 L14.006,6.394 C14.255,6.394 14.494,6.295 14.669,6.119 L15.711,5.077 C15.888,4.901 15.986,4.662 15.986,4.414 L15.986,3.755 C15.986,3.507 15.888,3.268 15.711,3.092 L15.143,2.525 L13.236,4.432 L12.062,3.921 L11.551,2.747 L13.458,0.840 L12.891,0.272 C12.715,0.095 12.476,-0.003 12.228,-0.003 L11.569,-0.003 C11.321,-0.003 11.082,0.095 10.906,0.272 L9.865,1.314 C9.688,1.489 9.589,1.728 9.589,1.977 L9.589,4.289 C9.589,4.538 9.491,4.776 9.314,4.951 L4.950,9.316 C4.773,9.492 4.535,9.592 4.286,9.592 L1.974,9.592 C1.726,9.592 1.487,9.690 1.311,9.866 L0.270,10.908 C0.094,11.084 -0.005,11.322 -0.005,11.571 L-0.005,12.229 C-0.005,12.478 0.094,12.717 0.270,12.893 L0.837,13.460 L2.413,11.885 L3.587,12.396 L4.099,13.570 L2.523,15.146 L3.090,15.713 C3.266,15.889 3.505,15.988 3.754,15.988 L4.412,15.988 C4.661,15.988 4.899,15.889 5.075,15.713 L6.117,14.672 C6.293,14.496 6.391,14.257 6.391,14.009 L6.391,11.697 C6.391,11.448 6.491,11.209 6.667,11.033 L11.032,6.669 C11.207,6.492 11.445,6.394 11.694,6.394 "/>
</svg>