<svg 
 xmlns="http://www.w3.org/2000/svg"
 xmlns:xlink="http://www.w3.org/1999/xlink"
 width="19px" height="19px">
<path fill-rule="evenodd"  fill="rgb(239, 90, 50)"
 d="M18.543,9.505 L14.437,7.676 C14.283,7.607 14.109,7.720 14.109,7.889 L14.109,9.203 L11.245,9.203 C11.084,8.719 10.702,8.336 10.218,8.175 L10.218,5.311 L11.532,5.311 C11.701,5.311 11.814,5.138 11.745,4.984 L9.916,0.877 C9.834,0.693 9.573,0.693 9.491,0.877 L7.662,4.984 C7.593,5.138 7.706,5.311 7.875,5.311 L9.189,5.311 L9.189,8.175 C8.705,8.336 8.323,8.719 8.162,9.203 L5.298,9.203 L5.298,7.889 C5.298,7.720 5.124,7.607 4.970,7.676 L0.864,9.505 C0.679,9.586 0.679,9.848 0.864,9.930 L4.970,11.759 C5.124,11.828 5.298,11.715 5.298,11.546 L5.298,10.231 L8.162,10.231 C8.323,10.715 8.705,11.098 9.189,11.259 L9.189,14.123 L7.875,14.123 C7.706,14.123 7.593,14.297 7.662,14.451 L9.491,18.557 C9.573,18.741 9.834,18.741 9.916,18.557 L11.745,14.451 C11.814,14.297 11.701,14.123 11.532,14.123 L10.218,14.123 L10.218,11.259 C10.702,11.098 11.084,10.715 11.245,10.231 L14.109,10.231 L14.109,11.546 C14.109,11.715 14.283,11.828 14.437,11.759 L18.543,9.930 C18.728,9.848 18.728,9.586 18.543,9.505 "/>
</svg>