<svg xmlns="http://www.w3.org/2000/svg" xmlns:xlink="http://www.w3.org/1999/xlink" width="3426px" height="3655px">
	<path fill-rule="evenodd" fill="#222223" d="M2041.698,3522.674 C1990.133,3454.028 1949.072,3399.368 1901.325,3335.804 C1851.872,3440.224 1806.637,3535.742 1750.606,3654.050 C1693.464,3541.225 1645.055,3445.648 1589.825,3336.601 C1542.594,3399.560 1501.718,3454.049 1452.020,3520.297 C1379.574,3392.401 1308.855,3279.266 1249.845,3160.320 C1180.902,3021.348 1089.393,2927.792 922.769,2917.133 C818.213,2910.442 742.196,2839.981 680.952,2756.572 C585.685,2626.828 463.493,2531.515 316.462,2465.138 C13.822,2328.512 -83.693,2034.306 78.908,1739.815 C276.516,1381.920 492.567,1033.483 674.880,668.101 C818.237,380.798 1024.382,191.063 1329.251,101.936 C1436.739,70.513 1540.995,21.581 1650.398,5.292 C1731.896,-6.842 1823.705,7.320 1903.122,33.464 C2049.382,81.613 2189.198,149.008 2333.029,204.963 C2463.893,255.871 2560.495,344.932 2628.372,464.671 C2868.763,888.748 3111.880,1311.387 3344.846,1739.531 C3515.373,2052.926 3409.357,2340.253 3081.221,2478.558 C2958.073,2530.463 2870.244,2615.860 2811.142,2730.513 C2750.585,2847.984 2663.819,2910.611 2528.903,2924.554 C2385.762,2939.346 2301.398,3041.017 2238.066,3163.413 C2178.135,3279.236 2113.160,3392.449 2041.698,3522.674 ZM1705.553,2350.975 C1668.747,2235.657 1587.783,2174.470 1495.444,2125.480 C1398.068,2073.818 1299.022,2025.297 1201.758,1973.430 C1040.143,1887.249 903.319,1776.816 841.982,1594.903 C824.483,1543.009 785.149,1535.663 740.564,1551.681 C691.607,1569.270 678.531,1607.226 700.626,1653.123 C739.285,1733.429 773.097,1817.670 823.395,1890.244 C860.829,1944.254 915.400,1992.038 972.307,2025.785 C1111.855,2108.541 1257.381,2181.183 1400.093,2258.643 C1522.178,2324.907 1559.158,2400.358 1542.331,2536.594 C1536.586,2583.118 1537.452,2630.460 1535.296,2677.428 C1581.642,2663.929 1627.515,2648.291 1674.545,2637.886 C1696.245,2633.086 1735.613,2630.716 1740.614,2640.591 C1770.194,2699.002 1818.111,2719.017 1869.857,2691.268 C1925.325,2661.524 1903.757,2605.274 1888.269,2557.068 C1886.675,2552.104 1886.520,2546.697 1885.221,2541.619 C1855.536,2425.631 1887.293,2339.782 1990.015,2280.668 C2114.825,2208.842 2238.952,2134.248 2369.649,2074.604 C2560.059,1987.710 2661.510,1832.943 2722.767,1645.021 C2730.577,1621.060 2708.465,1569.204 2686.494,1558.539 C2662.218,1546.755 2620.011,1562.723 2589.837,1576.120 C2574.526,1582.918 2565.272,1609.568 2558.803,1629.075 C2512.215,1769.557 2415.524,1864.652 2288.465,1933.532 C2168.469,1998.583 2050.122,2066.779 1928.876,2129.377 C1833.650,2178.542 1750.262,2237.452 1705.553,2350.975 ZM1053.614,2334.978 C970.317,2334.736 925.633,2381.460 926.134,2468.281 C926.567,2542.909 973.417,2590.997 1047.149,2592.487 C1128.691,2594.137 1183.417,2543.636 1184.961,2465.313 C1186.595,2382.365 1139.090,2335.225 1053.614,2334.978 ZM2370.796,2591.345 C2446.904,2592.525 2502.701,2540.477 2503.682,2467.390 C2504.674,2393.404 2451.263,2336.932 2377.769,2334.258 C2295.060,2331.251 2240.141,2380.256 2237.719,2459.229 C2235.298,2538.142 2287.588,2590.058 2370.796,2591.345 Z" />
</svg>