<svg 
 xmlns="http://www.w3.org/2000/svg"
 xmlns:xlink="http://www.w3.org/1999/xlink"
 width="21px" height="14px">
<path fill-rule="evenodd"  fill="#222223"
 d="M10.266,5.317 L9.760,6.758 C9.708,6.906 9.568,6.999 9.416,6.999 C9.377,6.999 9.337,6.993 9.298,6.980 C9.108,6.915 9.007,6.711 9.073,6.523 L9.579,5.081 C9.645,4.895 9.852,4.795 10.042,4.860 C10.231,4.925 10.332,5.129 10.266,5.317 M8.978,5.317 L8.472,6.758 C8.420,6.906 8.279,6.999 8.128,6.999 C8.089,6.999 8.049,6.993 8.009,6.980 C7.820,6.915 7.719,6.711 7.785,6.523 L8.292,5.081 C8.357,4.895 8.564,4.795 8.753,4.860 C8.943,4.925 9.044,5.129 8.978,5.317 M7.689,5.317 L7.184,6.758 C7.131,6.906 6.991,6.999 6.839,6.999 C6.801,6.999 6.760,6.993 6.721,6.980 C6.531,6.915 6.430,6.711 6.496,6.523 L7.003,5.081 C7.068,4.895 7.275,4.795 7.465,4.860 C7.656,4.925 7.756,5.129 7.689,5.317 M18.034,4.140 L18.034,3.156 L16.747,2.450 L14.980,2.450 C14.987,2.423 14.991,2.395 14.991,2.366 L14.991,1.179 C14.991,0.980 14.829,0.820 14.628,0.820 C14.427,0.820 14.263,0.980 14.263,1.179 L14.263,2.366 C14.263,2.395 14.268,2.423 14.275,2.450 L8.281,2.450 C8.288,2.423 8.292,2.395 8.292,2.366 L8.292,1.179 C8.292,0.980 8.128,0.820 7.928,0.820 C7.727,0.820 7.564,0.980 7.564,1.179 L7.564,2.366 C7.564,2.395 7.569,2.423 7.575,2.450 L4.771,2.450 L3.529,2.450 L2.768,3.783 L0.984,3.783 L0.984,7.787 C0.984,8.108 1.248,8.368 1.573,8.368 L3.024,8.368 L1.299,13.082 C1.191,13.386 1.354,13.718 1.662,13.823 L3.730,13.840 C4.185,13.856 4.476,13.483 4.582,13.179 L6.261,8.368 L7.444,8.368 C7.435,8.430 7.442,8.495 7.468,8.556 L8.041,9.884 C8.100,10.020 8.235,10.102 8.376,10.102 C8.423,10.102 8.472,10.092 8.518,10.073 C8.703,9.995 8.789,9.784 8.711,9.602 L8.177,8.368 L10.408,8.368 L10.408,9.969 L10.865,9.969 L10.865,13.202 C10.865,13.299 10.944,13.378 11.043,13.378 L13.055,13.378 C13.153,13.378 13.232,13.299 13.232,13.202 L13.232,9.969 L13.698,9.969 L13.698,8.368 L14.605,8.368 C14.930,8.368 15.194,8.108 15.194,7.787 L15.194,7.142 L18.034,7.142 L18.034,6.047 L20.994,6.047 L20.994,4.140 L18.034,4.140 Z"/>
</svg>