<svg 
 xmlns="http://www.w3.org/2000/svg"
 xmlns:xlink="http://www.w3.org/1999/xlink"
 width="419px" height="600px">
<path fill-rule="evenodd"  fill="#222223"
 d="M404.000,418.1000 L14.1000,418.1000 C6.716,418.1000 0.000,412.284 0.000,404.000 L0.000,14.1000 C0.000,6.716 6.716,0.000 14.1000,0.000 L404.000,0.000 C412.284,0.000 418.1000,6.716 418.1000,14.1000 L418.1000,404.000 C418.1000,412.284 412.284,418.1000 404.000,418.1000 ZM392.940,41.060 C392.940,32.776 386.224,26.060 377.940,26.060 L41.060,26.060 C32.776,26.060 26.060,32.776 26.060,41.060 L26.060,193.1000 L80.683,193.1000 L118.862,59.296 L118.945,59.000 L143.723,59.000 L220.025,328.209 L257.901,194.572 L257.1000,194.601 L257.1000,193.1000 L392.940,193.1000 L392.940,41.060 ZM392.940,216.000 L276.773,216.000 L232.558,372.000 L207.491,372.000 L131.334,103.302 L131.334,103.302 L99.393,216.000 L26.060,216.000 L26.060,377.940 C26.060,386.224 32.776,392.940 41.060,392.940 L377.940,392.940 C386.224,392.940 392.940,386.224 392.940,377.940 L392.940,216.000 ZM279.500,61.1000 C290.270,61.1000 299.000,70.730 299.000,81.500 C299.000,92.270 290.270,101.000 279.500,101.000 C268.730,101.000 259.1000,92.270 259.1000,81.500 C259.1000,70.730 268.730,61.1000 279.500,61.1000 ZM338.500,61.1000 C349.270,61.1000 358.000,70.730 358.000,81.500 C358.000,92.270 349.270,101.000 338.500,101.000 C327.730,101.000 318.1000,92.270 318.1000,81.500 C318.1000,70.730 327.730,61.1000 338.500,61.1000 Z"/>
</svg>